# Blender 5.1.0
# www.blender.org
mtllib water_wheel_item.mtl
o Cube.019
v 0.125000 0.937500 0.875000
v 0.125000 0.937500 0.125000
v 0.875000 0.937500 0.875000
v 0.875000 0.937500 0.125000
v 0.000000 0.875000 1.000000
v 1.000000 0.875000 -0.000000
v 0.000000 0.875000 -0.000000
v 1.000000 0.875000 1.000000
v 0.000000 1.000000 1.000000
v 0.000000 1.000000 -0.000000
v 1.000000 1.000000 -0.000000
v 1.000000 1.000000 1.000000
v 0.125000 1.000000 0.875000
v 0.125000 1.000000 0.125000
v 0.875000 1.000000 0.125000
v 0.875000 1.000000 0.875000
v 0.125000 0.062500 0.875000
v 0.125000 0.062500 0.125000
v 0.875000 0.062500 0.875000
v 0.875000 0.062500 0.125000
v 0.000000 0.125000 1.000000
v 1.000000 0.125000 -0.000000
v 0.000000 0.125000 -0.000000
v 1.000000 0.125000 1.000000
v 0.000000 0.000000 1.000000
v 0.000000 0.000000 0.000000
v 1.000000 0.000000 0.000000
v 1.000000 0.000000 1.000000
v 0.125000 0.000000 0.875000
v 0.125000 0.000000 0.125000
v 0.875000 0.000000 0.125000
v 0.875000 0.000000 0.875000
v 0.125000 0.125000 0.875000
v 0.125000 0.125000 0.125000
v 0.125000 0.875000 0.875000
v 0.125000 0.875000 0.125000
v 0.875000 0.125000 0.875000
v 0.875000 0.125000 0.125000
v 0.875000 0.875000 0.875000
v 0.875000 0.875000 0.125000
vn 1.0000 -0.0000 -0.0000
vn -0.0000 1.0000 -0.0000
vn -0.0000 -0.0000 1.0000
vn -0.0000 -0.0000 -1.0000
vn -1.0000 -0.0000 -0.0000
vn -0.0000 -1.0000 -0.0000
vt 0.125000 0.000000
vt 0.125000 1.000000
vt 0.000000 1.000000
vt -0.000000 0.000000
vt 0.875000 0.125000
vt 0.875000 0.875000
vt 0.125000 0.875000
vt 0.125000 0.125000
vt -0.000000 0.875000
vt 1.000000 0.875000
vt 1.000000 1.000000
vt 1.000000 0.125000
vt 0.000000 0.125000
vt 1.000000 0.000000
vt 0.875000 1.000000
vt 0.875000 0.000000
vt 0.125000 0.937500
vt 0.875000 0.937500
vt 0.875000 0.062500
vt 0.125000 0.062500
vt 0.937500 0.875000
vt 0.937500 0.125000
vt 0.062500 0.125000
vt 0.062500 0.875000
vt 0.375000 0.375000
vt 0.375000 0.625000
vt 0.625000 0.625000
vt 0.625000 0.375000
s 1
usemtl Casing
f 8/1/1 6/2/1 11/3/1 12/4/1
f 3/5/2 4/6/2 2/7/2 1/8/2
f 5/9/3 8/10/3 12/11/3 9/3/3
f 6/12/4 7/13/4 10/4/4 11/14/4
f 9/14/5 10/11/5 7/15/5 5/16/5
f 13/8/2 14/7/2 10/3/2 9/4/2
f 15/6/2 16/5/2 12/14/2 11/11/2
f 16/5/2 13/8/2 9/4/2 12/14/2
f 14/7/2 15/6/2 11/11/2 10/3/2
f 2/17/3 4/18/3 15/15/3 14/2/3
f 3/19/4 1/20/4 13/1/4 16/16/4
f 4/21/5 3/22/5 16/12/5 15/10/5
f 1/23/1 2/24/1 14/9/1 13/13/1
f 5/14/6 7/11/6 6/3/6 8/4/6
f 24/1/1 28/4/1 27/3/1 22/2/1
f 19/5/6 17/8/6 18/7/6 20/6/6
f 21/9/3 25/3/3 28/11/3 24/10/3
f 22/12/4 27/14/4 26/4/4 23/13/4
f 25/14/5 21/16/5 23/15/5 26/11/5
f 29/8/6 25/4/6 26/3/6 30/7/6
f 31/6/6 27/11/6 28/14/6 32/5/6
f 32/5/6 28/14/6 25/4/6 29/8/6
f 30/7/6 26/3/6 27/11/6 31/6/6
f 18/17/3 30/2/3 31/15/3 20/18/3
f 19/19/4 32/16/4 29/1/4 17/20/4
f 20/21/5 31/10/5 32/12/5 19/22/5
f 17/23/1 29/13/1 30/9/1 18/24/1
f 21/14/2 24/4/2 22/3/2 23/11/2
f 33/25/5 35/26/5 36/27/5 34/28/5
f 39/25/1 37/26/1 38/27/1 40/28/1
f 35/25/3 33/26/3 37/27/3 39/28/3
f 40/25/4 38/26/4 34/27/4 36/28/4
o Waterwheel_Big_Axle.007
v 0.375000 0.000000 0.625000
v 0.375000 0.000000 0.375000
v 0.375000 1.000000 0.625000
v 0.375000 1.000000 0.375000
v 0.625000 0.000000 0.375000
v 0.625000 0.000000 0.625000
v 0.625000 1.000000 0.375000
v 0.625000 1.000000 0.625000
v 1.311795 0.843750 0.500000
v 1.041196 0.843750 0.500000
v 0.882684 0.843750 0.882683
v 0.973899 0.843750 0.662470
v 1.180951 0.843750 0.815884
v 1.204869 0.843750 0.758141
v 1.031641 0.843750 0.686388
v 1.089384 0.843750 0.710306
v 1.147126 0.843750 0.734223
v 1.007724 0.843750 0.744130
v 1.065466 0.843750 0.768048
v 1.123209 0.843750 0.791966
v 0.882684 0.781250 0.882683
v 0.973899 0.781250 0.662470
v 1.180951 0.781250 0.815884
v 1.204869 0.781250 0.758141
v 1.031641 0.781250 0.686388
v 1.089384 0.781250 0.710306
v 1.147126 0.781250 0.734223
v 1.007724 0.781250 0.744131
v 1.065466 0.781250 0.768048
v 1.123209 0.781250 0.791966
v 1.074025 0.843750 1.074025
v 0.500000 0.843750 1.041196
v 0.720213 0.843750 0.949981
v 0.758142 0.843750 1.204869
v 0.815884 0.843750 1.180951
v 0.744131 0.843750 1.007723
v 0.768049 0.843750 1.065466
v 0.791966 0.843750 1.123208
v 0.686388 0.843750 1.031641
v 0.710306 0.843750 1.089384
v 0.734224 0.843750 1.147126
v 1.074026 0.781250 1.074025
v 0.500000 0.781250 1.311794
v 0.500000 0.781250 1.041196
v 0.720213 0.781250 0.949981
v 0.758142 0.781250 1.204869
v 0.815884 0.781250 1.180951
v 0.744131 0.781250 1.007723
v 0.768049 0.781250 1.065466
v 0.791966 0.781250 1.123208
v 0.686388 0.781250 1.031641
v 0.710306 0.781250 1.089384
v 0.734224 0.781250 1.147126
v 0.500000 0.843750 1.311794
v 0.117317 0.843750 0.882683
v 0.337530 0.843750 0.973899
v 0.184116 0.843750 1.180951
v 0.241859 0.843750 1.204869
v 0.313612 0.843750 1.031641
v 0.289694 0.843750 1.089384
v 0.265776 0.843750 1.147126
v 0.255869 0.843750 1.007723
v 0.231952 0.843750 1.065466
v 0.208034 0.843750 1.123208
v 0.117317 0.781250 0.882683
v 0.337530 0.781250 0.973899
v 0.184116 0.781250 1.180951
v 0.241859 0.781250 1.204869
v 0.313612 0.781250 1.031641
v 0.289694 0.781250 1.089384
v 0.265776 0.781250 1.147126
v 0.255869 0.781250 1.007723
v 0.231952 0.781250 1.065466
v 0.208034 0.781250 1.123208
v -0.074025 0.843750 1.074025
v -0.041196 0.843750 0.500000
v 0.050019 0.843750 0.720213
v -0.204869 0.843750 0.758141
v -0.180951 0.843750 0.815884
v -0.007723 0.843750 0.744131
v -0.065466 0.843750 0.768048
v -0.123208 0.843750 0.791966
v -0.031641 0.843750 0.686388
v -0.089384 0.843750 0.710306
v -0.147126 0.843750 0.734224
v -0.074025 0.781250 1.074025
v -0.041196 0.781250 0.500000
v 0.050019 0.781250 0.720213
v -0.204869 0.781250 0.758141
v -0.180951 0.781250 0.815884
v -0.007723 0.781250 0.744131
v -0.065466 0.781250 0.768048
v -0.123208 0.781250 0.791966
v -0.031641 0.781250 0.686388
v -0.089384 0.781250 0.710306
v -0.147126 0.781250 0.734224
v -0.311794 0.843750 0.500000
v -0.074025 0.843750 -0.074025
v 0.026101 0.843750 0.337529
v -0.180951 0.843750 0.184116
v -0.204869 0.843750 0.241859
v -0.031641 0.843750 0.313612
v -0.089384 0.843750 0.289694
v -0.147126 0.843750 0.265776
v -0.007723 0.843750 0.255869
v -0.065466 0.843750 0.231952
v -0.123208 0.843750 0.208034
v -0.311794 0.781250 0.500000
v 0.117317 0.781250 0.117317
v 0.026101 0.781250 0.337529
v -0.180951 0.781250 0.184116
v -0.204869 0.781250 0.241859
v -0.031641 0.781250 0.313612
v -0.089384 0.781250 0.289694
v -0.147126 0.781250 0.265776
v -0.007723 0.781250 0.255869
v -0.065466 0.781250 0.231952
v -0.123208 0.781250 0.208034
v 0.117316 0.843750 0.117316
v 0.279787 0.843750 0.050019
v 0.241859 0.843750 -0.204869
v 0.184116 0.843750 -0.180951
v 0.255869 0.843750 -0.007724
v 0.231952 0.843750 -0.065466
v 0.208034 0.843750 -0.123209
v 0.313612 0.843750 -0.031641
v 0.289694 0.843750 -0.089384
v 0.265776 0.843750 -0.147126
v -0.074025 0.781250 -0.074025
v 0.500000 0.781250 -0.041196
v 0.279787 0.781250 0.050019
v 0.241859 0.781250 -0.204869
v 0.184116 0.781250 -0.180951
v 0.255869 0.781250 -0.007724
v 0.231952 0.781250 -0.065466
v 0.208034 0.781250 -0.123209
v 0.313612 0.781250 -0.031641
v 0.289694 0.781250 -0.089384
v 0.265776 0.781250 -0.147126
v 0.500000 0.843750 -0.311795
v 0.500000 0.843750 -0.041196
v 0.662470 0.843750 0.026101
v 0.815884 0.843750 -0.180951
v 0.758141 0.843750 -0.204869
v 0.686388 0.843750 -0.031641
v 0.710306 0.843750 -0.089384
v 0.734224 0.843750 -0.147126
v 0.744131 0.843750 -0.007724
v 0.768048 0.843750 -0.065466
v 0.791966 0.843750 -0.123209
v 0.500000 0.781250 -0.311795
v 0.662470 0.781250 0.026101
v 0.815884 0.781250 -0.180951
v 0.758141 0.781250 -0.204869
v 0.686388 0.781250 -0.031641
v 0.710306 0.781250 -0.089384
v 0.734224 0.781250 -0.147126
v 0.744131 0.781250 -0.007724
v 0.768048 0.781250 -0.065466
v 0.791966 0.781250 -0.123209
v 1.074025 0.843750 -0.074025
v 0.882684 0.843750 0.117316
v 0.949981 0.843750 0.279787
v 1.204869 0.843750 0.241858
v 1.180951 0.843750 0.184116
v 1.007723 0.843750 0.255869
v 1.065466 0.843750 0.231951
v 1.123209 0.843750 0.208034
v 1.031641 0.843750 0.313612
v 1.089384 0.843750 0.289694
v 1.147126 0.843750 0.265776
v 1.074025 0.781250 -0.074026
v 1.311794 0.781250 0.500000
v 0.882684 0.781250 0.117316
v 1.041196 0.781250 0.500000
v 0.949981 0.781250 0.279787
v 1.204869 0.781250 0.241858
v 1.180951 0.781250 0.184116
v 1.007724 0.781250 0.255869
v 1.065466 0.781250 0.231951
v 1.123209 0.781250 0.208034
v 1.031641 0.781250 0.313612
v 1.089384 0.781250 0.289694
v 1.147126 0.781250 0.265776
v 1.041196 0.156250 0.500000
v 0.882684 0.156250 0.882684
v 0.973899 0.156250 0.662471
v 1.180951 0.156250 0.815884
v 1.204869 0.156250 0.758141
v 1.031641 0.156250 0.686388
v 1.089384 0.156250 0.710306
v 1.147126 0.156250 0.734224
v 1.007724 0.156250 0.744131
v 1.065466 0.156250 0.768048
v 1.123209 0.156250 0.791966
v 1.074025 0.218750 1.074025
v 1.041196 0.218750 0.500000
v 0.882684 0.218750 0.882684
v 0.973899 0.218750 0.662471
v 1.180951 0.218750 0.815884
v 1.204869 0.218750 0.758141
v 1.031641 0.218750 0.686388
v 1.089384 0.218750 0.710306
v 1.147126 0.218750 0.734224
v 1.007723 0.218750 0.744131
v 1.065466 0.218750 0.768049
v 1.123209 0.218750 0.791966
v 1.074025 0.156250 1.074026
v 0.500000 0.156250 1.311795
v 0.720213 0.156250 0.949981
v 0.758141 0.156250 1.204869
v 0.815884 0.156250 1.180951
v 0.744131 0.156250 1.007724
v 0.768049 0.156250 1.065466
v 0.791966 0.156250 1.123209
v 0.686388 0.156250 1.031641
v 0.710306 0.156250 1.089384
v 0.734224 0.156250 1.147126
v 0.500000 0.218750 1.311795
v 0.720213 0.218750 0.949981
v 0.758141 0.218750 1.204869
v 0.815884 0.218750 1.180951
v 0.744131 0.218750 1.007724
v 0.768049 0.218750 1.065466
v 0.791966 0.218750 1.123209
v 0.686388 0.218750 1.031641
v 0.710306 0.218750 1.089384
v 0.734224 0.218750 1.147126
v -0.074025 0.156250 1.074025
v 0.500000 0.156250 1.041196
v 0.337530 0.156250 0.973899
v 0.184116 0.156250 1.180951
v 0.241859 0.156250 1.204869
v 0.313612 0.156250 1.031641
v 0.289694 0.156250 1.089384
v 0.265776 0.156250 1.147126
v 0.255869 0.156250 1.007724
v 0.231952 0.156250 1.065466
v 0.208034 0.156250 1.123209
v -0.074025 0.218750 1.074025
v 0.500000 0.218750 1.041196
v 0.117317 0.218750 0.882684
v 0.337530 0.218750 0.973899
v 0.184116 0.218750 1.180951
v 0.241859 0.218750 1.204869
v 0.313612 0.218750 1.031641
v 0.289694 0.218750 1.089384
v 0.265776 0.218750 1.147126
v 0.255869 0.218750 1.007724
v 0.231952 0.218750 1.065466
v 0.208034 0.218750 1.123209
v -0.311794 0.156250 0.500000
v 0.117316 0.156250 0.882684
v -0.041196 0.156250 0.500000
v 0.050019 0.156250 0.720213
v -0.204869 0.156250 0.758142
v -0.180951 0.156250 0.815884
v -0.007723 0.156250 0.744131
v -0.065466 0.156250 0.768049
v -0.123208 0.156250 0.791966
v -0.031641 0.156250 0.686388
v -0.089384 0.156250 0.710306
v -0.147126 0.156250 0.734224
v 0.050019 0.218750 0.720213
v -0.204869 0.218750 0.758142
v -0.180951 0.218750 0.815884
v -0.007724 0.218750 0.744131
v -0.065466 0.218750 0.768049
v -0.123208 0.218750 0.791966
v -0.031641 0.218750 0.686388
v -0.089384 0.218750 0.710306
v -0.147126 0.218750 0.734224
v -0.074025 0.156250 -0.074025
v 0.117316 0.156250 0.117317
v 0.026101 0.156250 0.337530
v -0.180951 0.156250 0.184116
v -0.204869 0.156250 0.241859
v -0.031641 0.156250 0.313612
v -0.089384 0.156250 0.289694
v -0.147126 0.156250 0.265777
v -0.007723 0.156250 0.255870
v -0.065466 0.156250 0.231952
v -0.123208 0.156250 0.208034
v -0.311795 0.218750 0.500000
v -0.074025 0.218750 -0.074025
v -0.041196 0.218750 0.500000
v 0.117316 0.218750 0.117317
v 0.026101 0.218750 0.337530
v -0.180951 0.218750 0.184116
v -0.204869 0.218750 0.241859
v -0.031641 0.218750 0.313612
v -0.089384 0.218750 0.289694
v -0.147126 0.218750 0.265777
v -0.007724 0.218750 0.255870
v -0.065466 0.218750 0.231952
v -0.123209 0.218750 0.208034
v 0.500000 0.156250 -0.311794
v 0.279787 0.156250 0.050019
v 0.241858 0.156250 -0.204868
v 0.184116 0.156250 -0.180951
v 0.255869 0.156250 -0.007723
v 0.231951 0.156250 -0.065466
v 0.208034 0.156250 -0.123208
v 0.313612 0.156250 -0.031641
v 0.289694 0.156250 -0.089383
v 0.265776 0.156250 -0.147126
v 0.279787 0.218750 0.050019
v 0.241859 0.218750 -0.204868
v 0.184116 0.218750 -0.180951
v 0.255869 0.218750 -0.007723
v 0.231952 0.218750 -0.065466
v 0.208034 0.218750 -0.123208
v 0.313612 0.218750 -0.031641
v 0.289694 0.218750 -0.089384
v 0.265776 0.218750 -0.147126
v 1.074025 0.156250 -0.074025
v 0.500000 0.156250 -0.041196
v 0.662470 0.156250 0.026101
v 0.815884 0.156250 -0.180951
v 0.758141 0.156250 -0.204869
v 0.686388 0.156250 -0.031641
v 0.710306 0.156250 -0.089384
v 0.734224 0.156250 -0.147126
v 0.744131 0.156250 -0.007723
v 0.768048 0.156250 -0.065466
v 0.791966 0.156250 -0.123208
v 0.500000 0.218750 -0.311794
v 1.074025 0.218750 -0.074025
v 0.500000 0.218750 -0.041196
v 0.662470 0.218750 0.026101
v 0.815884 0.218750 -0.180951
v 0.758141 0.218750 -0.204869
v 0.686388 0.218750 -0.031641
v 0.710306 0.218750 -0.089384
v 0.734224 0.218750 -0.147126
v 0.744131 0.218750 -0.007723
v 0.768048 0.218750 -0.065466
v 0.791966 0.218750 -0.123208
v 1.311794 0.156250 0.500000
v 0.882683 0.156250 0.117317
v 0.949981 0.156250 0.279787
v 1.204869 0.156250 0.241859
v 1.180951 0.156250 0.184116
v 1.007723 0.156250 0.255869
v 1.065466 0.156250 0.231952
v 1.123208 0.156250 0.208034
v 1.031641 0.156250 0.313612
v 1.089384 0.156250 0.289694
v 1.147126 0.156250 0.265776
v 1.311794 0.218750 0.500000
v 0.882683 0.218750 0.117317
v 0.949981 0.218750 0.279787
v 1.204869 0.218750 0.241859
v 1.180951 0.218750 0.184116
v 1.007723 0.218750 0.255869
v 1.065466 0.218750 0.231952
v 1.123208 0.218750 0.208034
v 1.031641 0.218750 0.313612
v 1.089384 0.218750 0.289694
v 1.147126 0.218750 0.265776
v 0.531250 0.218750 -0.500000
v 0.531250 0.781250 -0.500000
v 0.531250 0.218750 -0.062500
v 0.531250 0.781250 -0.062500
v 0.468750 0.218750 -0.500000
v 0.468750 0.781250 -0.500000
v 0.468750 0.218750 -0.062500
v 0.468750 0.781250 -0.062500
v 0.437499 0.875000 0.249998
v 0.437499 0.875000 -0.375002
v 0.437499 0.750000 0.249998
v 0.437499 0.750000 -0.375002
v 0.562499 0.875000 0.249998
v 0.562499 0.875000 -0.375002
v 0.562499 0.750000 0.249998
v 0.562499 0.750000 -0.375002
v 0.437499 0.875000 -0.250002
v 0.437499 0.750000 -0.250002
v 0.562499 0.750000 -0.250002
v 0.562499 0.875000 -0.250002
v 0.935970 0.781250 0.082643
v 1.103394 0.781250 0.486840
v 0.935970 0.218750 0.082643
v 1.103394 0.218750 0.486840
v 1.103393 0.781250 0.513161
v 0.935969 0.781250 0.917358
v 1.103393 0.218750 0.513161
v 0.935969 0.218750 0.917359
v 0.917357 0.781250 0.935970
v 0.513160 0.781250 1.103394
v 0.917357 0.218750 0.935970
v 0.513160 0.218750 1.103394
v 0.486839 0.781250 1.103393
v 0.082641 0.781250 0.935969
v 0.486839 0.218750 1.103393
v 0.082641 0.218750 0.935969
v 0.064030 0.781250 0.917357
v -0.103394 0.781250 0.513160
v 0.064030 0.218750 0.917357
v -0.103394 0.218750 0.513160
v -0.103393 0.781250 0.486839
v 0.064031 0.781250 0.082641
v -0.103393 0.218750 0.486839
v 0.064031 0.218750 0.082641
v 0.082643 0.781250 0.064030
v 0.486840 0.781250 -0.103394
v 0.082643 0.218750 0.064030
v 0.486840 0.218750 -0.103394
v 0.513161 0.781250 -0.103393
v 0.917359 0.781250 0.064031
v 0.513161 0.218750 -0.103393
v 0.917359 0.218750 0.064031
v 0.911554 0.218750 -0.411921
v 0.911555 0.781250 -0.411921
v 0.744130 0.218750 -0.007723
v 0.744131 0.781250 -0.007723
v 0.853812 0.218750 -0.435838
v 0.853812 0.781250 -0.435839
v 0.686388 0.218750 -0.031641
v 0.686388 0.781250 -0.031641
v 1.229204 0.218750 -0.185010
v 1.229204 0.781250 -0.185010
v 0.919844 0.218750 0.124350
v 0.919845 0.781250 0.124350
v 1.185009 0.218750 -0.229204
v 1.185010 0.781250 -0.229204
v 0.875650 0.218750 0.080155
v 0.875650 0.781250 0.080155
v 1.435838 0.218750 0.146188
v 1.435838 0.781250 0.146188
v 1.031641 0.218750 0.313612
v 1.031641 0.781250 0.313612
v 1.411920 0.218750 0.088445
v 1.411921 0.781250 0.088445
v 1.007723 0.218750 0.255869
v 1.007723 0.781250 0.255869
v 1.500000 0.218750 0.531250
v 1.500000 0.781250 0.531250
v 1.062500 0.218750 0.531250
v 1.062500 0.781250 0.531250
v 1.500000 0.218750 0.468750
v 1.500000 0.781250 0.468750
v 1.062500 0.218750 0.468750
v 1.062500 0.781250 0.468750
v 1.411921 0.218750 0.911554
v 1.411921 0.781250 0.911555
v 1.007723 0.218750 0.744130
v 1.007723 0.781250 0.744131
v 1.435838 0.218750 0.853812
v 1.435838 0.781250 0.853812
v 1.031641 0.218750 0.686388
v 1.031641 0.781250 0.686388
v 1.185009 0.218750 1.229204
v 1.185010 0.781250 1.229204
v 0.875650 0.218750 0.919844
v 0.875650 0.781250 0.919845
v 1.229204 0.218750 1.185009
v 1.229204 0.781250 1.185010
v 0.919845 0.218750 0.875650
v 0.919845 0.781250 0.875650
v 0.853812 0.218750 1.435838
v 0.853812 0.781250 1.435838
v 0.686388 0.218750 1.031641
v 0.686388 0.781250 1.031641
v 0.911555 0.218750 1.411920
v 0.911555 0.781250 1.411921
v 0.744131 0.218750 1.007723
v 0.744130 0.781250 1.007723
v 0.468750 0.218750 1.500000
v 0.468750 0.781250 1.500000
v 0.468750 0.218750 1.062500
v 0.468750 0.781250 1.062500
v 0.531250 0.218750 1.500000
v 0.531250 0.781250 1.500000
v 0.531250 0.218750 1.062500
v 0.531250 0.781250 1.062500
v 0.088445 0.218750 1.411920
v 0.088445 0.781250 1.411921
v 0.255870 0.218750 1.007723
v 0.255869 0.781250 1.007723
v 0.146188 0.218750 1.435838
v 0.146188 0.781250 1.435838
v 0.313612 0.218750 1.031641
v 0.313612 0.781250 1.031641
v -0.229204 0.218750 1.185009
v -0.229204 0.781250 1.185010
v 0.080156 0.218750 0.875650
v 0.080155 0.781250 0.875650
v -0.185010 0.218750 1.229204
v -0.185010 0.781250 1.229204
v 0.124350 0.218750 0.919845
v 0.124350 0.781250 0.919845
v -0.435838 0.218750 0.853812
v -0.435838 0.781250 0.853812
v -0.031641 0.218750 0.686388
v -0.031641 0.781250 0.686388
v -0.411920 0.218750 0.911555
v -0.411921 0.781250 0.911554
v -0.007723 0.218750 0.744131
v -0.007723 0.781250 0.744130
v -0.500000 0.218750 0.468750
v -0.500000 0.781250 0.468750
v -0.062500 0.218750 0.468750
v -0.062500 0.781250 0.468750
v -0.500000 0.218750 0.531250
v -0.500000 0.781250 0.531250
v -0.062500 0.218750 0.531250
v -0.062500 0.781250 0.531250
v -0.411920 0.218750 0.088445
v -0.411921 0.781250 0.088445
v -0.007723 0.218750 0.255869
v -0.007723 0.781250 0.255869
v -0.435838 0.218750 0.146188
v -0.435838 0.781250 0.146188
v -0.031641 0.218750 0.313612
v -0.031641 0.781250 0.313612
v -0.185009 0.218750 -0.229204
v -0.185009 0.781250 -0.229204
v 0.124350 0.218750 0.080155
v 0.124350 0.781250 0.080155
v -0.229204 0.218750 -0.185010
v -0.229203 0.781250 -0.185010
v 0.080156 0.218750 0.124350
v 0.080156 0.781250 0.124349
v 0.146188 0.218750 -0.435838
v 0.146188 0.781250 -0.435838
v 0.313612 0.218750 -0.031641
v 0.313612 0.781250 -0.031641
v 0.088445 0.218750 -0.411920
v 0.088446 0.781250 -0.411921
v 0.255870 0.218750 -0.007723
v 0.255870 0.781250 -0.007723
v 0.437499 0.875000 -0.187502
v 0.437499 0.750000 -0.187502
v 0.562499 0.750000 -0.187502
v 0.562499 0.875000 -0.187502
v 0.632583 0.875000 0.279027
v 1.074525 0.875000 -0.162915
v 0.632583 0.750000 0.279027
v 1.074525 0.750000 -0.162915
v 0.720972 0.875000 0.367415
v 1.162914 0.875000 -0.074526
v 0.720972 0.750000 0.367416
v 1.162914 0.750000 -0.074526
v 0.986137 0.875000 -0.074526
v 0.986137 0.750000 -0.074526
v 1.074525 0.750000 0.013862
v 1.074525 0.875000 0.013862
v 0.941943 0.875000 -0.030332
v 0.941943 0.750000 -0.030332
v 1.030331 0.750000 0.058056
v 1.030331 0.875000 0.058056
v 0.750002 0.875000 0.437499
v 1.375002 0.875000 0.437499
v 0.750002 0.750000 0.437499
v 1.375002 0.750000 0.437499
v 0.750002 0.875000 0.562499
v 1.375002 0.875000 0.562499
v 0.750002 0.750000 0.562499
v 1.375002 0.750000 0.562499
v 1.250002 0.875000 0.437499
v 1.250002 0.750000 0.437499
v 1.250002 0.750000 0.562499
v 1.250002 0.875000 0.562499
v 1.187502 0.875000 0.437499
v 1.187502 0.750000 0.437499
v 1.187502 0.750000 0.562499
v 1.187502 0.875000 0.562499
v 0.720973 0.875000 0.632583
v 1.162915 0.875000 1.074525
v 0.720973 0.750000 0.632583
v 1.162915 0.750000 1.074525
v 0.632584 0.875000 0.720972
v 1.074526 0.875000 1.162914
v 0.632584 0.750000 0.720972
v 1.074526 0.750000 1.162914
v 1.074526 0.875000 0.986137
v 1.074526 0.750000 0.986137
v 0.986138 0.750000 1.074525
v 0.986138 0.875000 1.074525
v 1.030332 0.875000 0.941943
v 1.030332 0.750000 0.941943
v 0.941944 0.750000 1.030331
v 0.941944 0.875000 1.030331
v 0.562501 0.875000 0.750002
v 0.562501 0.875000 1.375002
v 0.562501 0.750000 0.750002
v 0.562501 0.750000 1.375002
v 0.437501 0.875000 0.750002
v 0.437501 0.875000 1.375002
v 0.437501 0.750000 0.750002
v 0.437501 0.750000 1.375002
v 0.562501 0.875000 1.250002
v 0.562501 0.750000 1.250002
v 0.437501 0.750000 1.250002
v 0.437501 0.875000 1.250002
v 0.562501 0.875000 1.187502
v 0.562501 0.750000 1.187502
v 0.437501 0.750000 1.187502
v 0.437501 0.875000 1.187502
v 0.367416 0.875000 0.720973
v -0.074525 0.875000 1.162915
v 0.367417 0.750000 0.720973
v -0.074525 0.750000 1.162915
v 0.279028 0.875000 0.632584
v -0.162914 0.875000 1.074526
v 0.279028 0.750000 0.632584
v -0.162914 0.750000 1.074526
v 0.013863 0.875000 1.074526
v 0.013863 0.750000 1.074526
v -0.074525 0.750000 0.986138
v -0.074525 0.875000 0.986138
v 0.058057 0.875000 1.030332
v 0.058057 0.750000 1.030332
v -0.030331 0.750000 0.941944
v -0.030331 0.875000 0.941944
v 0.249998 0.875000 0.562501
v -0.375002 0.875000 0.562501
v 0.249998 0.750000 0.562501
v -0.375002 0.750000 0.562501
v 0.249998 0.875000 0.437501
v -0.375002 0.875000 0.437501
v 0.249998 0.750000 0.437501
v -0.375002 0.750000 0.437501
v -0.250002 0.875000 0.562501
v -0.250002 0.750000 0.562501
v -0.250002 0.750000 0.437501
v -0.250002 0.875000 0.437501
v -0.187502 0.875000 0.562501
v -0.187502 0.750000 0.562501
v -0.187502 0.750000 0.437501
v -0.187502 0.875000 0.437501
v 0.279027 0.875000 0.367416
v -0.162915 0.875000 -0.074525
v 0.279027 0.750000 0.367417
v -0.162915 0.750000 -0.074525
v 0.367416 0.875000 0.279028
v -0.074526 0.875000 -0.162914
v 0.367416 0.750000 0.279028
v -0.074526 0.750000 -0.162914
v -0.074526 0.875000 0.013863
v -0.074526 0.750000 0.013863
v 0.013862 0.750000 -0.074525
v 0.013862 0.875000 -0.074525
v -0.030332 0.875000 0.058057
v -0.030332 0.750000 0.058057
v 0.058056 0.750000 -0.030331
v 0.058056 0.875000 -0.030331
v 0.437499 0.125000 0.249998
v 0.437499 0.125000 -0.375002
v 0.437499 0.250000 0.249998
v 0.437499 0.250000 -0.375002
v 0.562499 0.125000 0.249998
v 0.562499 0.125000 -0.375002
v 0.562499 0.250000 0.249998
v 0.562499 0.250000 -0.375002
v 0.437499 0.125000 -0.250002
v 0.437499 0.250000 -0.250002
v 0.562499 0.250000 -0.250002
v 0.562499 0.125000 -0.250002
v 0.437499 0.125000 -0.187502
v 0.437499 0.250000 -0.187502
v 0.562499 0.250000 -0.187502
v 0.562499 0.125000 -0.187502
v 0.632583 0.125000 0.279027
v 1.074525 0.125000 -0.162915
v 0.632583 0.250000 0.279027
v 1.074525 0.250000 -0.162915
v 0.720972 0.125000 0.367415
v 1.162914 0.125000 -0.074526
v 0.720972 0.250000 0.367416
v 1.162914 0.250000 -0.074526
v 0.986137 0.125000 -0.074526
v 0.986137 0.250000 -0.074526
v 1.074525 0.250000 0.013862
v 1.074525 0.125000 0.013862
v 0.941943 0.125000 -0.030332
v 0.941943 0.250000 -0.030332
v 1.030331 0.250000 0.058056
v 1.030331 0.125000 0.058056
v 0.750002 0.125000 0.437499
v 1.375002 0.125000 0.437499
v 0.750002 0.250000 0.437499
v 1.375002 0.250000 0.437499
v 0.750002 0.125000 0.562499
v 1.375002 0.125000 0.562499
v 0.750002 0.250000 0.562499
v 1.375002 0.250000 0.562499
v 1.250002 0.125000 0.437499
v 1.250002 0.250000 0.437499
v 1.250002 0.250000 0.562499
v 1.250002 0.125000 0.562499
v 1.187502 0.125000 0.437499
v 1.187502 0.250000 0.437499
v 1.187502 0.250000 0.562499
v 1.187502 0.125000 0.562499
v 0.720973 0.125000 0.632583
v 1.162915 0.125000 1.074525
v 0.720973 0.250000 0.632583
v 1.162915 0.250000 1.074525
v 0.632584 0.125000 0.720972
v 1.074526 0.125000 1.162914
v 0.632584 0.250000 0.720972
v 1.074526 0.250000 1.162914
v 1.074526 0.125000 0.986137
v 1.074526 0.250000 0.986137
v 0.986138 0.250000 1.074525
v 0.986138 0.125000 1.074525
v 1.030332 0.125000 0.941943
v 1.030332 0.250000 0.941943
v 0.941944 0.250000 1.030331
v 0.941944 0.125000 1.030331
v 0.562501 0.125000 0.750002
v 0.562501 0.125000 1.375002
v 0.562501 0.250000 0.750002
v 0.562501 0.250000 1.375002
v 0.437501 0.125000 0.750002
v 0.437501 0.125000 1.375002
v 0.437501 0.250000 0.750002
v 0.437501 0.250000 1.375002
v 0.562501 0.125000 1.250002
v 0.562501 0.250000 1.250002
v 0.437501 0.250000 1.250002
v 0.437501 0.125000 1.250002
v 0.562501 0.125000 1.187502
v 0.562501 0.250000 1.187502
v 0.437501 0.250000 1.187502
v 0.437501 0.125000 1.187502
v 0.367416 0.125000 0.720973
v -0.074525 0.125000 1.162915
v 0.367417 0.250000 0.720973
v -0.074525 0.250000 1.162915
v 0.279028 0.125000 0.632584
v -0.162914 0.125000 1.074526
v 0.279028 0.250000 0.632584
v -0.162914 0.250000 1.074526
v 0.013863 0.125000 1.074526
v 0.013863 0.250000 1.074526
v -0.074525 0.250000 0.986138
v -0.074525 0.125000 0.986138
v 0.058057 0.125000 1.030332
v 0.058057 0.250000 1.030332
v -0.030331 0.250000 0.941944
v -0.030331 0.125000 0.941944
v 0.249998 0.125000 0.562501
v -0.375002 0.125000 0.562501
v 0.249998 0.250000 0.562501
v -0.375002 0.250000 0.562501
v 0.249998 0.125000 0.437501
v -0.375002 0.125000 0.437501
v 0.249998 0.250000 0.437501
v -0.375002 0.250000 0.437501
v -0.250002 0.125000 0.562501
v -0.250002 0.250000 0.562501
v -0.250002 0.250000 0.437501
v -0.250002 0.125000 0.437501
v -0.187502 0.125000 0.562501
v -0.187502 0.250000 0.562501
v -0.187502 0.250000 0.437501
v -0.187502 0.125000 0.437501
v 0.279027 0.125000 0.367416
v -0.162915 0.125000 -0.074525
v 0.279027 0.250000 0.367417
v -0.162915 0.250000 -0.074525
v 0.367416 0.125000 0.279028
v -0.074526 0.125000 -0.162914
v 0.367416 0.250000 0.279028
v -0.074526 0.250000 -0.162914
v -0.074526 0.125000 0.013863
v -0.074526 0.250000 0.013863
v 0.013862 0.250000 -0.074525
v 0.013862 0.125000 -0.074525
v -0.030332 0.125000 0.058057
v -0.030332 0.250000 0.058057
v 0.058056 0.250000 -0.030331
v 0.058056 0.125000 -0.030331
vn -0.0000 -0.0000 -1.0000
vn 1.0000 -0.0000 -0.0000
vn -1.0000 -0.0000 -0.0000
vn -0.0000 -0.0000 1.0000
vn -0.0000 1.0000 -0.0000
vn -0.0000 -1.0000 -0.0000
vn 0.3827 -0.0000 -0.9239
vn -0.3827 -0.0000 -0.9239
vn 0.9239 -0.0000 -0.3827
vn -0.9239 -0.0000 -0.3827
vn 0.9239 -0.0000 0.3827
vn -0.9239 -0.0000 0.3827
vn 0.3827 -0.0000 0.9239
vn -0.3827 -0.0000 0.9239
vn -0.7071 -0.0000 -0.7071
vn 0.7071 -0.0000 0.7071
vn 0.7071 -0.0000 -0.7071
vn -0.7071 -0.0000 0.7071
vt 0.375000 1.000000
vt 0.375000 0.000000
vt 0.625000 0.000000
vt 0.625000 1.000000
vt 0.375000 0.625000
vt 0.375000 0.375000
vt 0.625000 0.375000
vt 0.625000 0.625000
vt 0.562500 1.000000
vt 0.562500 0.437500
vt 1.000000 0.437500
vt 1.000000 1.000000
vt -0.000000 0.687500
vt 0.000000 0.562500
vt 0.437500 0.562500
vt 0.437500 0.687500
vt -0.000000 0.812500
vt 0.000000 0.750000
vt 0.437500 0.750000
vt 0.437500 0.812500
vt 0.937500 0.812500
vt 0.500000 0.812500
vt 0.500000 0.750000
vt 0.937500 0.750000
vt 0.499815 0.750000
vt 0.739583 0.750000
vt 0.562685 0.812500
vt 0.322917 0.750000
vt 0.499815 0.812500
vt 0.250000 0.875000
vt 0.312500 0.875000
vt 0.312500 0.937500
vt 0.250000 0.937500
vt 0.218750 1.000000
vt 0.499815 0.875000
vt 0.843750 1.000000
vt 0.562685 0.875000
vt 0.499815 1.000000
vt 0.499815 0.937500
vt 0.562685 1.000000
vt 0.562685 0.937500
vt 0.375000 0.562500
vt 0.250000 0.562500
vt 0.250000 0.500000
vt 0.375000 0.500000
vt 0.500000 0.937500
vt 0.562500 0.937500
vt 0.500000 1.000000
vt 1.000000 0.750000
vt 1.000000 0.812500
vt 0.218750 0.937500
vt 0.843750 0.937500
vt 1.000000 0.375000
vt 0.562500 0.375000
vt 1.000000 0.937500
vt 0.562500 0.875000
vt 1.000000 0.875000
vt 0.625000 0.937500
vt -0.000000 0.875000
vt 0.062500 0.875000
vt 0.062500 0.937500
vt -0.000000 0.937500
vt 0.125000 0.562500
vt 0.000000 0.437500
vt 0.125000 0.437500
vt 0.125000 0.812500
vt 0.125000 0.937500
s 1
usemtl axis
f 42/29/7 44/30/7 47/31/7 45/32/7
f 45/29/8 47/30/8 48/31/8 46/32/8
f 41/29/9 43/30/9 44/31/9 42/32/9
f 46/29/10 48/30/10 43/31/10 41/32/10
usemtl axis_top
f 43/33/11 48/34/11 47/35/11 44/36/11
f 45/34/12 46/35/12 41/36/12 42/33/12
usemtl waterwheel_log
f 451/37/13 449/38/13 450/39/13 452/40/13
f 447/37/14 445/38/14 446/39/14 448/40/14
f 423/37/15 421/38/15 422/39/15 424/40/15
f 443/37/16 441/38/16 442/39/16 444/40/16
f 428/40/17 427/37/17 425/38/17 426/39/17
f 440/40/18 439/37/18 437/38/18 438/39/18
f 431/37/19 429/38/19 430/39/19 432/40/19
f 436/40/20 435/37/20 433/38/20 434/39/20
usemtl waterwheel_plank
f 409/41/11 413/42/11 576/43/11 573/44/11
f 577/41/11 581/42/11 592/43/11 589/44/11
f 673/41/11 677/42/11 688/43/11 685/44/11
f 593/41/11 597/42/11 608/43/11 605/44/11
f 413/45/8 415/46/8 575/47/8 576/48/8
f 657/41/11 661/42/11 672/43/11 669/44/11
f 579/45/21 577/46/21 589/47/21 590/48/21
f 411/45/9 409/46/9 573/47/9 574/48/9
f 592/48/22 581/45/22 583/46/22 591/47/22
f 609/41/11 613/42/11 624/43/11 621/44/11
f 677/45/23 679/46/23 687/47/23 688/48/23
f 595/45/7 593/46/7 605/47/7 606/48/7
f 675/45/24 673/46/24 685/47/24 686/48/24
f 641/41/11 645/42/11 656/43/11 653/44/11
f 625/41/11 629/42/11 640/43/11 637/44/11
f 597/45/10 599/46/10 607/47/10 608/48/10
f 661/45/7 663/46/7 671/47/7 672/48/7
f 575/49/12 415/50/12 411/51/12 574/52/12
f 591/49/12 583/50/12 579/51/12 590/52/12
f 622/48/23 611/45/23 609/46/23 621/47/23
f 670/48/10 659/45/10 657/46/10 669/47/10
f 613/45/24 615/46/24 623/47/24 624/48/24
f 687/49/12 679/50/12 675/51/12 686/52/12
f 645/45/21 647/46/21 655/47/21 656/48/21
f 627/45/8 625/46/8 637/47/8 638/48/8
f 643/45/22 641/46/22 653/47/22 654/48/22
f 607/49/12 599/50/12 595/51/12 606/52/12
f 629/45/9 631/46/9 639/47/9 640/48/9
f 182/53/11 202/54/11 188/55/11
f 160/53/11 181/54/11 166/55/11
f 663/50/12 659/51/12 670/52/12 671/49/12
f 181/56/11 182/53/11 188/55/11 185/57/11
f 203/53/11 50/54/11 209/55/11
f 623/49/12 615/50/12 611/51/12 622/52/12
f 159/56/11 160/53/11 166/55/11 163/57/11
f 202/56/11 203/53/11 209/55/11 206/57/11
f 139/53/11 159/54/11 145/55/11
f 655/49/12 647/50/12 643/51/12 654/52/12
f 631/50/12 627/51/12 638/52/12 639/49/12
f 192/53/12 198/55/12 214/54/12
f 171/53/12 177/55/12 170/54/12
f 52/53/11 51/54/11 58/55/11
f 116/56/11 139/53/11 145/55/11 142/57/11
f 50/56/11 52/53/11 58/55/11 55/57/11
f 117/53/11 116/54/11 123/55/11
f 170/56/12 195/57/12 198/55/12 192/53/12
f 216/53/12 222/55/12 215/54/12
f 149/56/12 174/57/12 177/55/12 171/53/12
f 214/56/12 219/57/12 222/55/12 216/53/12
f 150/53/12 156/55/12 149/54/12
f 73/53/11 72/54/11 79/55/11
f 96/53/11 95/54/11 102/55/11
f 95/56/11 117/53/11 123/55/11 120/57/11
f 51/56/11 73/53/11 79/55/11 76/57/11
f 62/53/12 68/55/12 61/54/12
f 72/56/11 96/53/11 102/55/11 99/57/11
f 127/56/12 153/57/12 156/55/12 150/53/12
f 215/56/12 65/57/12 68/55/12 62/53/12
f 128/53/12 134/55/12 127/54/12
f 85/53/12 91/55/12 84/54/12
f 106/53/12 112/55/12 105/54/12
f 105/56/12 131/57/12 134/55/12 128/53/12
f 61/56/12 88/57/12 91/55/12 85/53/12
f 185/58/11 188/59/11 189/60/11 186/61/11
f 84/56/12 109/57/12 112/55/12 106/53/12
f 163/58/11 166/59/11 167/60/11 164/61/11
f 206/58/11 209/59/11 210/60/11 207/61/11
f 142/58/11 145/59/11 146/60/11 143/61/11
f 199/60/12 198/59/12 195/58/12 196/61/12
f 55/58/11 58/59/11 59/60/11 56/61/11
f 178/60/12 177/59/12 174/58/12 175/61/12
f 223/60/12 222/59/12 219/58/12 220/61/12
f 180/62/11 181/56/11 185/57/11 186/63/11
f 120/58/11 123/59/11 124/60/11 121/61/11
f 202/54/11 201/64/11 189/65/11 188/55/11
f 181/54/11 180/64/11 167/65/11 166/55/11
f 76/58/11 79/59/11 80/60/11 77/61/11
f 201/62/11 202/56/11 206/57/11 207/63/11
f 157/60/12 156/59/12 153/58/12 154/61/12
f 99/58/11 102/59/11 103/60/11 100/61/11
f 138/62/11 159/56/11 163/57/11 164/63/11
f 69/60/12 68/59/12 65/58/12 66/61/12
f 50/54/11 49/64/11 210/65/11 209/55/11
f 159/54/11 138/64/11 146/65/11 145/55/11
f 49/62/11 50/56/11 55/57/11 56/63/11
f 191/62/12 196/63/12 195/57/12 170/56/12
f 135/60/12 134/59/12 131/58/12 132/61/12
f 199/65/12 212/64/12 214/54/12 198/55/12
f 178/65/12 191/64/12 170/54/12 177/55/12
f 92/60/12 91/59/12 88/58/12 89/61/12
f 137/62/11 116/56/11 142/57/11 143/63/11
f 212/62/12 220/63/12 219/57/12 214/56/12
f 113/60/12 112/59/12 109/58/12 110/61/12
f 169/62/12 175/63/12 174/57/12 149/56/12
f 51/54/11 71/64/11 59/65/11 58/55/11
f 116/54/11 137/64/11 124/65/11 123/55/11
f 223/65/12 213/64/12 215/54/12 222/55/12
f 157/65/12 169/64/12 149/54/12 156/55/12
f 71/62/11 51/56/11 76/57/11 77/63/11
f 115/62/11 95/56/11 120/57/11 121/63/11
f 213/62/12 66/63/12 65/57/12 215/56/12
f 72/54/11 94/64/11 80/65/11 79/55/11
f 95/54/11 115/64/11 103/65/11 102/55/11
f 94/62/11 72/56/11 99/57/11 100/63/11
f 148/62/12 154/63/12 153/57/12 127/56/12
f 69/65/12 82/64/12 61/54/12 68/55/12
f 135/65/12 148/64/12 127/54/12 134/55/12
f 82/62/12 89/63/12 88/57/12 61/56/12
f 126/62/12 132/63/12 131/57/12 105/56/12
f 92/65/12 83/64/12 84/54/12 91/55/12
f 113/65/12 126/64/12 105/54/12 112/55/12
f 83/62/12 110/63/12 109/57/12 84/56/12
f 184/66/11 180/62/11 186/63/11 187/67/11
f 201/64/11 183/68/11 190/69/11 189/65/11
f 180/64/11 161/68/11 168/69/11 167/65/11
f 573/70/11 576/71/11 420/72/11 417/73/11
f 585/73/11 589/70/11 592/71/11 588/72/11
f 205/66/11 201/62/11 207/63/11 208/67/11
f 162/66/11 138/62/11 164/63/11 165/67/11
f 187/74/11 190/75/11 183/37/11 184/76/11
f 49/64/11 204/68/11 211/69/11 210/65/11
f 685/70/11 688/71/11 684/72/11 681/73/11
f 165/74/11 168/75/11 161/37/11 162/76/11
f 138/64/11 140/68/11 147/69/11 146/65/11
f 208/74/11 211/75/11 204/37/11 205/76/11
f 194/66/12 197/67/12 196/63/12 191/62/12
f 601/73/11 605/70/11 608/71/11 604/72/11
f 200/69/12 193/68/12 212/64/12 199/65/12
f 420/50/8 576/48/8 575/47/8 419/51/8
f 179/69/12 172/68/12 191/64/12 178/65/12
f 574/48/9 573/47/9 417/51/9 418/50/9
f 54/66/11 49/62/11 56/63/11 57/67/11
f 590/48/21 589/47/21 585/51/21 586/50/21
f 141/66/11 137/62/11 143/63/11 144/67/11
f 588/50/22 592/48/22 591/47/22 587/51/22
f 218/66/12 221/67/12 220/63/12 212/62/12
f 173/66/12 176/67/12 175/63/12 169/62/12
f 193/37/12 200/75/12 197/74/12 194/76/12
f 71/64/11 53/68/11 60/69/11 59/65/11
f 144/74/11 147/75/11 140/37/11 141/76/11
f 224/69/12 217/68/12 213/64/12 223/65/12
f 688/48/23 687/47/23 683/51/23 684/50/23
f 665/73/11 669/70/11 672/71/11 668/72/11
f 172/37/12 179/75/12 176/74/12 173/76/12
f 137/64/11 118/68/11 125/69/11 124/65/11
f 682/50/24 686/48/24 685/47/24 681/51/24
f 57/74/11 60/75/11 53/37/11 54/76/11
f 158/69/12 151/68/12 169/64/12 157/65/12
f 606/48/7 605/47/7 601/51/7 602/50/7
f 217/37/12 224/75/12 221/74/12 218/76/12
f 617/73/11 621/70/11 624/71/11 620/72/11
f 75/66/11 71/62/11 77/63/11 78/67/11
f 119/66/11 115/62/11 121/63/11 122/67/11
f 604/50/10 608/48/10 607/47/10 603/51/10
f 575/49/12 574/52/12 418/77/12 419/78/12
f 64/66/12 67/67/12 66/63/12 213/62/12
f 152/66/12 155/67/12 154/63/12 148/62/12
f 587/78/12 591/49/12 590/52/12 586/77/12
f 94/64/11 74/68/11 81/69/11 80/65/11
f 115/64/11 97/68/11 104/69/11 103/65/11
f 649/73/11 653/70/11 656/71/11 652/72/11
f 98/66/11 94/62/11 100/63/11 101/67/11
f 122/74/11 125/75/11 118/37/11 119/76/11
f 70/69/12 63/68/12 82/64/12 69/65/12
f 633/73/11 637/70/11 640/71/11 636/72/11
f 151/37/12 158/75/12 155/74/12 152/76/12
f 672/48/7 671/47/7 667/51/7 668/50/7
f 78/74/11 81/75/11 74/37/11 75/76/11
f 683/78/12 687/49/12 686/52/12 682/77/12
f 670/48/10 669/47/10 665/51/10 666/50/10
f 136/69/12 129/68/12 148/64/12 135/65/12
f 194/76/13 184/74/13 183/75/13 193/37/13
f 622/48/23 621/47/23 617/51/23 618/50/23
f 63/37/12 70/75/12 67/74/12 64/76/12
f 101/74/11 104/75/11 97/37/11 98/76/11
f 603/78/12 607/49/12 606/52/12 602/77/12
f 624/48/24 623/47/24 619/51/24 620/50/24
f 87/66/12 90/67/12 89/63/12 82/62/12
f 130/66/12 133/67/12 132/63/12 126/62/12
f 173/76/14 162/74/14 161/75/14 172/37/14
f 93/69/12 86/68/12 83/64/12 92/65/12
f 218/76/15 205/74/15 204/75/15 217/37/15
f 656/48/21 655/47/21 651/51/21 652/50/21
f 114/69/12 107/68/12 126/64/12 113/65/12
f 108/66/12 111/67/12 110/63/12 83/62/12
f 654/48/22 653/47/22 649/51/22 650/50/22
f 129/37/12 136/75/12 133/74/12 130/76/12
f 638/48/8 637/47/8 633/51/8 634/50/8
f 640/48/9 639/47/9 635/51/9 636/50/9
f 667/78/12 671/49/12 670/52/12 666/77/12
f 86/37/12 93/75/12 90/74/12 87/76/12
f 107/37/12 114/75/12 111/74/12 108/76/12
f 619/78/12 623/49/12 622/52/12 618/77/12
f 152/76/16 141/74/16 140/75/16 151/37/16
f 194/66/13 191/62/13 180/79/13 184/67/13
f 193/68/13 183/69/13 201/80/13 212/64/13
f 172/68/14 161/69/14 180/80/14 191/64/14
f 63/37/17 64/76/17 54/74/17 53/75/17
f 212/62/15 201/79/15 205/67/15 218/66/15
f 655/49/12 654/52/12 650/77/12 651/78/12
f 173/66/14 169/62/14 138/79/14 162/67/14
f 635/78/12 639/49/12 638/52/12 634/77/12
f 213/64/15 217/68/15 204/69/15 49/80/15
f 151/68/16 140/69/16 138/80/16 169/64/16
f 130/76/18 119/74/18 118/75/18 129/37/18
f 87/76/19 75/74/19 74/75/19 86/37/19
f 64/66/17 213/62/17 49/79/17 54/67/17
f 460/81/11 456/39/11 454/38/11 458/82/11
f 408/81/11 404/39/11 402/38/11 406/82/11
f 108/76/20 98/74/20 97/75/20 107/37/20
f 148/62/16 137/79/16 141/67/16 152/66/16
f 468/81/11 464/39/11 462/38/11 466/82/11
f 572/81/11 568/39/11 566/38/11 570/82/11
f 82/64/17 63/68/17 53/69/17 71/80/17
f 474/82/11 476/81/11 472/39/11 470/38/11
f 148/64/18 129/68/18 118/69/18 137/80/18
f 562/82/11 564/81/11 560/39/11 558/38/11
f 87/66/19 82/62/19 71/79/19 75/67/19
f 484/81/11 480/39/11 478/38/11 482/82/11
f 126/62/18 115/79/18 119/67/18 130/66/18
f 554/82/11 556/81/11 552/39/11 550/38/11
f 83/64/19 86/68/19 74/69/19 94/80/19
f 107/68/20 97/69/20 115/80/20 126/64/20
f 83/62/20 94/79/20 98/67/20 108/66/20
f 492/81/11 488/39/11 486/38/11 490/82/11
f 546/82/11 548/81/11 544/39/11 542/38/11
f 498/82/11 500/81/11 496/39/11 494/38/11
f 538/82/11 540/81/11 536/39/11 534/38/11
f 508/81/11 504/39/11 502/38/11 506/82/11
f 530/82/11 532/81/11 528/39/11 526/38/11
f 514/82/11 516/81/11 512/39/11 510/38/11
f 522/82/11 524/81/11 520/39/11 518/38/11
f 702/52/11 691/51/11 695/50/11 703/49/11
f 719/49/11 718/52/11 707/51/11 711/50/11
f 815/49/11 814/52/11 803/51/11 807/50/11
f 735/49/11 734/52/11 723/51/11 727/50/11
f 798/52/11 787/51/11 791/50/11 799/49/11
f 751/49/11 750/52/11 739/51/11 743/50/11
f 783/49/11 782/52/11 771/51/11 775/50/11
f 766/52/11 755/51/11 759/50/11 767/49/11
f 459/83/16 460/81/16 458/82/16 457/75/16
f 453/75/17 454/82/17 456/81/17 455/83/17
f 401/75/8 402/82/8 404/81/8 403/83/8
f 408/81/9 406/82/9 405/75/9 407/83/9
f 468/81/21 466/82/21 465/75/21 467/83/21
f 461/75/22 462/82/22 464/81/22 463/83/22
f 567/83/15 565/75/15 566/82/15 568/81/15
f 571/83/18 572/81/18 570/82/18 569/75/18
f 476/81/14 474/82/14 473/75/14 475/83/14
f 469/75/19 470/82/19 472/81/19 471/83/19
f 557/75/23 558/82/23 560/81/23 559/83/23
f 564/81/24 562/82/24 561/75/24 563/83/24
f 484/81/7 482/82/7 481/75/7 483/83/7
f 477/75/10 478/82/10 480/81/10 479/83/10
f 551/83/13 549/75/13 550/82/13 552/81/13
f 556/81/20 554/82/20 553/75/20 555/83/20
f 492/81/13 490/82/13 489/75/13 491/83/13
f 703/47/8 695/46/8 693/45/8 704/48/8
f 370/53/11 391/54/11 376/55/11
f 717/47/21 705/46/21 707/45/21 718/48/21
f 701/47/9 689/46/9 691/45/9 702/48/9
f 485/75/20 486/82/20 488/81/20 487/83/20
f 347/53/11 369/54/11 353/55/11
f 720/48/22 719/47/22 711/46/22 709/45/22
f 543/83/7 541/75/7 542/82/7 544/81/7
f 547/83/10 548/81/10 546/82/10 545/75/10
f 815/47/23 807/46/23 805/45/23 816/48/23
f 369/56/11 370/53/11 376/55/11 373/57/11
f 392/53/11 237/54/11 398/55/11
f 499/83/23 500/81/23 498/82/23 497/75/23
f 733/47/7 721/46/7 723/45/7 734/48/7
f 813/47/24 801/46/24 803/45/24 814/48/24
f 493/75/24 494/82/24 496/81/24 495/83/24
f 533/75/14 534/82/14 536/81/14 535/83/14
f 327/56/11 347/53/11 353/55/11 350/57/11
f 391/56/11 392/53/11 398/55/11 395/57/11
f 328/53/11 327/54/11 334/55/11
f 735/47/10 727/46/10 725/45/10 736/48/10
f 539/83/19 540/81/19 538/82/19 537/75/19
f 508/81/15 506/82/15 505/75/15 507/83/15
f 799/47/7 791/46/7 789/45/7 800/48/7
f 501/75/18 502/82/18 504/81/18 503/83/18
f 525/75/21 526/82/21 528/81/21 527/83/21
f 532/81/22 530/82/22 529/75/22 531/83/22
f 750/48/23 749/47/23 737/46/23 739/45/23
f 798/48/10 797/47/10 785/46/10 787/45/10
f 516/81/8 514/82/8 513/75/8 515/83/8
f 239/53/11 238/54/11 245/55/11
f 509/75/9 510/82/9 512/81/9 511/83/9
f 517/75/16 518/82/16 520/81/16 519/83/16
f 523/83/17 524/81/17 522/82/17 521/75/17
f 751/47/24 743/46/24 741/45/24 752/48/24
f 326/56/11 328/53/11 334/55/11 331/57/11
f 237/56/11 239/53/11 245/55/11 242/57/11
f 304/53/11 326/54/11 310/55/11
f 783/47/21 775/46/21 773/45/21 784/48/21
f 765/47/8 753/46/8 755/45/8 766/48/8
f 781/47/22 769/46/22 771/45/22 782/48/22
f 767/47/9 759/46/9 757/45/9 768/48/9
f 260/53/11 281/54/11 266/55/11
f 283/53/11 282/54/11 289/55/11
f 282/56/11 304/53/11 310/55/11 307/57/11
f 238/56/11 260/53/11 266/55/11 263/57/11
f 281/56/11 283/53/11 289/55/11 286/57/11
f 373/58/11 376/59/11 377/60/11 374/61/11
f 350/58/11 353/59/11 354/60/11 351/61/11
f 395/58/11 398/59/11 399/60/11 396/61/11
f 331/58/11 334/59/11 335/60/11 332/61/11
f 242/58/11 245/59/11 246/60/11 243/61/11
f 704/43/12 693/42/12 689/41/12 701/44/12
f 358/53/12 364/55/12 380/54/12
f 720/43/12 709/42/12 705/41/12 717/44/12
f 338/53/12 344/55/12 357/54/12
f 357/56/12 361/57/12 364/55/12 358/53/12
f 816/43/12 805/42/12 801/41/12 813/44/12
f 381/53/12 387/55/12 225/54/12
f 367/62/11 369/56/11 373/57/11 374/63/11
f 307/58/11 310/59/11 311/60/11 308/61/11
f 391/54/11 368/64/11 377/65/11 376/55/11
f 369/54/11 367/64/11 354/65/11 353/55/11
f 736/43/12 725/42/12 721/41/12 733/44/12
f 263/58/11 266/59/11 267/60/11 264/61/11
f 314/56/12 341/57/12 344/55/12 338/53/12
f 380/56/12 384/57/12 387/55/12 381/53/12
f 315/53/12 321/55/12 314/54/12
f 368/62/11 391/56/11 395/57/11 396/63/11
f 286/58/11 289/59/11 290/60/11 287/61/11
f 325/62/11 327/56/11 350/57/11 351/63/11
f 800/43/12 789/42/12 785/41/12 797/44/12
f 237/54/11 390/64/11 399/65/11 398/55/11
f 227/53/12 233/55/12 226/54/12
f 327/54/11 325/64/11 335/65/11 334/55/11
f 752/43/12 741/42/12 737/41/12 749/44/12
f 294/56/12 318/57/12 321/55/12 315/53/12
f 225/56/12 230/57/12 233/55/12 227/53/12
f 295/53/12 301/55/12 294/54/12
f 390/62/11 237/56/11 242/57/11 243/63/11
f 784/43/12 773/42/12 769/41/12 781/44/12
f 768/43/12 757/42/12 753/41/12 765/44/12
f 324/62/11 326/56/11 331/57/11 332/63/11
f 250/53/12 256/55/12 270/54/12
f 271/53/12 277/55/12 293/54/12
f 238/54/11 236/64/11 246/65/11 245/55/11
f 293/56/12 298/57/12 301/55/12 295/53/12
f 226/56/12 253/57/12 256/55/12 250/53/12
f 326/54/11 324/64/11 311/65/11 310/55/11
f 236/62/11 238/56/11 263/57/11 264/63/11
f 270/56/12 274/57/12 277/55/12 271/53/12
f 280/62/11 282/56/11 307/57/11 308/63/11
f 281/54/11 259/64/11 267/65/11 266/55/11
f 282/54/11 280/64/11 290/65/11 289/55/11
f 259/62/11 281/56/11 286/57/11 287/63/11
f 365/60/12 364/59/12 361/58/12 362/61/12
f 345/60/12 344/59/12 341/58/12 342/61/12
f 388/60/12 387/59/12 384/58/12 385/61/12
f 698/77/11 702/52/11 703/49/11 699/78/11
f 715/78/11 714/77/11 718/52/11 719/49/11
f 322/60/12 321/59/12 318/58/12 319/61/12
f 811/78/11 810/77/11 814/52/11 815/49/11
f 234/60/12 233/59/12 230/58/12 231/61/12
f 731/78/11 730/77/11 734/52/11 735/49/11
f 337/62/12 362/63/12 361/57/12 357/56/12
f 302/60/12 301/59/12 298/58/12 299/61/12
f 365/65/12 356/64/12 380/54/12 364/55/12
f 345/65/12 337/64/12 357/54/12 344/55/12
f 257/60/12 256/59/12 253/58/12 254/61/12
f 356/62/12 385/63/12 384/57/12 380/56/12
f 372/66/11 367/62/11 374/63/11 375/67/11
f 795/78/11 794/77/11 798/52/11 799/49/11
f 368/64/11 371/68/11 378/69/11 377/65/11
f 278/60/12 277/59/12 274/58/12 275/61/12
f 313/62/12 342/63/12 341/57/12 314/56/12
f 367/64/11 348/68/11 355/69/11 354/65/11
f 747/78/11 746/77/11 750/52/11 751/49/11
f 388/65/12 379/64/12 225/54/12 387/55/12
f 394/66/11 368/62/11 396/63/11 397/67/11
f 349/66/11 325/62/11 351/63/11 352/67/11
f 322/65/12 313/64/12 314/54/12 321/55/12
f 375/74/11 378/75/11 371/37/11 372/76/11
f 390/64/11 393/68/11 400/69/11 399/65/11
f 379/62/12 231/63/12 230/57/12 225/56/12
f 352/74/11 355/75/11 348/37/11 349/76/11
f 779/78/11 778/77/11 782/52/11 783/49/11
f 292/62/12 319/63/12 318/57/12 294/56/12
f 763/78/11 762/77/11 766/52/11 767/49/11
f 325/64/11 329/68/11 336/69/11 335/65/11
f 397/74/11 400/75/11 393/37/11 394/76/11
f 234/65/12 248/64/12 226/54/12 233/55/12
f 241/66/11 390/62/11 243/63/11 244/67/11
f 302/65/12 292/64/12 294/54/12 301/55/12
f 330/66/11 324/62/11 332/63/11 333/67/11
f 248/62/12 254/63/12 253/57/12 226/56/12
f 236/64/11 240/68/11 247/69/11 246/65/11
f 333/74/11 336/75/11 329/37/11 330/76/11
f 269/62/12 299/63/12 298/57/12 293/56/12
f 257/65/12 249/64/12 270/54/12 256/55/12
f 278/65/12 269/64/12 293/54/12 277/55/12
f 324/64/11 305/68/11 312/69/11 311/65/11
f 249/62/12 275/63/12 274/57/12 270/56/12
f 244/74/11 247/75/11 240/37/11 241/76/11
f 262/66/11 236/62/11 264/63/11 265/67/11
f 306/66/11 280/62/11 308/63/11 309/67/11
f 259/64/11 261/68/11 268/69/11 267/65/11
f 280/64/11 284/68/11 291/69/11 290/65/11
f 285/66/11 259/62/11 287/63/11 288/67/11
f 309/74/11 312/75/11 305/37/11 306/76/11
f 265/74/11 268/75/11 261/37/11 262/76/11
f 700/50/8 699/51/8 703/47/8 704/48/8
f 697/51/9 701/47/9 702/48/9 698/50/9
f 713/51/21 717/47/21 718/48/21 714/50/21
f 288/74/11 291/75/11 284/37/11 285/76/11
f 716/50/22 715/51/22 719/47/22 720/48/22
f 811/51/23 815/47/23 816/48/23 812/50/23
f 810/50/24 809/51/24 813/47/24 814/48/24
f 729/51/7 733/47/7 734/48/7 730/50/7
f 732/50/10 731/51/10 735/47/10 736/48/10
f 795/51/7 799/47/7 800/48/7 796/50/7
f 360/66/12 363/67/12 362/63/12 337/62/12
f 366/69/12 359/68/12 356/64/12 365/65/12
f 457/75/12 453/84/12 455/85/12 459/83/12
f 405/75/12 401/84/12 403/85/12 407/83/12
f 793/51/10 797/47/10 798/48/10 794/50/10
f 346/69/12 339/68/12 337/64/12 345/65/12
f 359/75/13 360/74/13 372/76/13 371/37/13
f 745/51/23 749/47/23 750/48/23 746/50/23
f 465/75/12 461/84/12 463/85/12 467/83/12
f 383/66/12 386/67/12 385/63/12 356/62/12
f 569/75/12 565/84/12 567/85/12 571/83/12
f 340/66/12 343/67/12 342/63/12 313/62/12
f 747/51/24 751/47/24 752/48/24 748/50/24
f 339/75/14 340/74/14 349/76/14 348/37/14
f 359/37/12 366/75/12 363/74/12 360/76/12
f 473/75/12 469/84/12 471/85/12 475/83/12
f 389/69/12 382/68/12 379/64/12 388/65/12
f 382/75/15 383/74/15 394/76/15 393/37/15
f 779/51/21 783/47/21 784/48/21 780/50/21
f 563/83/12 561/75/12 557/84/12 559/85/12
f 339/37/12 346/75/12 343/74/12 340/76/12
f 777/51/22 781/47/22 782/48/22 778/50/22
f 761/51/8 765/47/8 766/48/8 762/50/8
f 323/69/12 316/68/12 313/64/12 322/65/12
f 763/51/9 767/47/9 768/48/9 764/50/9
f 458/82/13 454/35/13 453/86/13 457/75/13
f 382/37/12 389/75/12 386/74/12 383/76/12
f 406/82/7 402/35/7 401/86/7 405/75/7
f 481/75/12 477/84/12 479/85/12 483/83/12
f 466/82/23 462/35/23 461/86/23 465/75/23
f 229/66/12 232/67/12 231/63/12 379/62/12
f 553/75/12 549/84/12 551/85/12 555/83/12
f 317/66/12 320/67/12 319/63/12 292/62/12
f 570/82/14 566/35/14 565/86/14 569/75/14
f 316/75/16 317/74/16 330/76/16 329/37/16
f 372/66/13 360/67/13 337/79/13 367/62/13
f 368/64/13 356/80/13 359/69/13 371/68/13
f 337/80/14 339/69/14 348/68/14 367/64/14
f 235/69/12 228/68/12 248/64/12 234/65/12
f 489/75/12 485/84/12 487/85/12 491/83/12
f 474/82/15 470/35/15 469/86/15 473/75/15
f 316/37/12 323/75/12 320/74/12 317/76/12
f 228/75/17 229/74/17 241/76/17 240/37/17
f 394/66/15 383/67/15 356/79/15 368/62/15
f 545/75/12 541/84/12 543/85/12 547/83/12
f 562/82/21 558/35/21 557/86/21 561/75/21
f 303/69/12 296/68/12 292/64/12 302/65/12
f 228/37/12 235/75/12 232/74/12 229/76/12
f 349/66/14 340/67/14 313/79/14 325/62/14
f 497/75/12 493/84/12 495/85/12 499/83/12
f 252/66/12 255/67/12 254/63/12 248/62/12
f 297/66/12 300/67/12 299/63/12 269/62/12
f 390/64/15 379/80/15 382/69/15 393/68/15
f 482/82/8 478/35/8 477/86/8 481/75/8
f 539/83/12 537/75/12 533/84/12 535/85/12
f 325/64/16 313/80/16 316/69/16 329/68/16
f 296/75/18 297/74/18 306/76/18 305/37/18
f 258/69/12 251/68/12 249/64/12 257/65/12
f 279/69/12 272/68/12 269/64/12 278/65/12
f 554/82/16 550/35/16 549/86/16 553/75/16
f 273/66/12 276/67/12 275/63/12 249/62/12
f 507/83/12 505/75/12 501/84/12 503/85/12
f 296/37/12 303/75/12 300/74/12 297/76/12
f 251/75/19 252/74/19 262/76/19 261/37/19
f 531/83/12 529/75/12 525/84/12 527/85/12
f 241/66/17 229/67/17 379/79/17 390/62/17
f 513/75/12 509/84/12 511/85/12 515/83/12
f 251/37/12 258/75/12 255/74/12 252/76/12
f 523/83/12 521/75/12 517/84/12 519/85/12
f 272/75/20 273/74/20 285/76/20 284/37/20
f 700/72/12 704/71/12 701/70/12 697/73/12
f 490/82/17 486/35/17 485/86/17 489/75/17
f 330/66/16 317/67/16 292/79/16 324/62/16
f 713/73/12 716/72/12 720/71/12 717/70/12
f 272/37/12 279/75/12 276/74/12 273/76/12
f 546/82/9 542/35/9 541/86/9 545/75/9
f 236/64/17 248/80/17 228/69/17 240/68/17
f 292/80/18 296/69/18 305/68/18 324/64/18
f 812/72/12 816/71/12 813/70/12 809/73/12
f 498/82/22 494/35/22 493/86/22 497/75/22
f 262/66/19 252/67/19 248/79/19 236/62/19
f 729/73/12 732/72/12 736/71/12 733/70/12
f 537/75/18 538/82/18 534/35/18 533/86/18
f 306/66/18 297/67/18 269/79/18 280/62/18
f 259/64/19 249/80/19 251/69/19 261/68/19
f 280/64/20 269/80/20 272/69/20 284/68/20
f 506/82/19 502/35/19 501/86/19 505/75/19
f 285/66/20 273/67/20 249/79/20 259/62/20
f 529/75/24 530/82/24 526/35/24 525/86/24
f 514/82/10 510/35/10 509/86/10 513/75/10
f 793/73/12 796/72/12 800/71/12 797/70/12
f 522/82/20 518/35/20 517/86/20 521/75/20
f 745/73/12 748/72/12 752/71/12 749/70/12
f 777/73/12 780/72/12 784/71/12 781/70/12
f 761/73/12 764/72/12 768/71/12 765/70/12
usemtl waterwheel_metal
f 186/87/11 189/88/11 190/89/11 187/90/11
f 164/87/11 167/88/11 168/89/11 165/90/11
f 207/87/11 210/88/11 211/89/11 208/90/11
f 143/87/11 146/88/11 147/89/11 144/90/11
f 200/89/12 199/88/12 196/87/12 197/90/12
f 179/89/12 178/88/12 175/87/12 176/90/12
f 56/87/11 59/88/11 60/89/11 57/90/11
f 224/89/12 223/88/12 220/87/12 221/90/12
f 121/87/11 124/88/11 125/89/11 122/90/11
f 158/89/12 157/88/12 154/87/12 155/90/12
f 77/87/11 80/88/11 81/89/11 78/90/11
f 100/87/11 103/88/11 104/89/11 101/90/11
f 70/89/12 69/88/12 66/87/12 67/90/12
f 136/89/12 135/88/12 132/87/12 133/90/12
f 93/89/12 92/88/12 89/87/12 90/90/12
f 114/89/12 113/88/12 110/87/12 111/90/12
f 417/91/11 420/42/11 414/92/11 410/93/11
f 585/91/11 588/42/11 582/92/11 578/93/11
f 681/91/11 684/42/11 678/92/11 674/93/11
f 414/93/8 420/91/8 419/42/8 416/92/8
f 601/91/11 604/42/11 598/92/11 594/93/11
f 418/42/9 417/91/9 410/93/9 412/92/9
f 586/42/21 585/91/21 578/93/21 580/92/21
f 582/93/22 588/91/22 587/42/22 584/92/22
f 678/93/23 684/91/23 683/42/23 680/92/23
f 665/91/11 668/42/11 662/92/11 658/93/11
f 682/42/24 681/91/24 674/93/24 676/92/24
f 602/42/7 601/91/7 594/93/7 596/92/7
f 416/93/12 419/91/12 418/42/12 412/92/12
f 617/91/11 620/42/11 614/92/11 610/93/11
f 598/93/10 604/91/10 603/42/10 600/92/10
f 587/91/12 586/42/12 580/92/12 584/93/12
f 649/91/11 652/42/11 646/92/11 642/93/11
f 662/93/7 668/91/7 667/42/7 664/92/7
f 683/91/12 682/42/12 676/92/12 680/93/12
f 633/91/11 636/42/11 630/92/11 626/93/11
f 660/92/10 666/42/10 665/91/10 658/93/10
f 618/42/23 617/91/23 610/93/23 612/92/23
f 600/93/12 603/91/12 602/42/12 596/92/12
f 614/93/24 620/91/24 619/42/24 616/92/24
f 646/93/21 652/91/21 651/42/21 648/92/21
f 650/42/22 649/91/22 642/93/22 644/92/22
f 634/42/8 633/91/8 626/93/8 628/92/8
f 667/91/12 666/42/12 660/92/12 664/93/12
f 630/93/9 636/91/9 635/42/9 632/92/9
f 619/91/12 618/42/12 612/92/12 616/93/12
f 651/91/12 650/42/12 644/92/12 648/93/12
f 632/93/12 635/91/12 634/42/12 628/92/12
f 414/45/7 416/94/7 412/95/7 410/90/7
f 578/90/23 582/45/23 584/94/23 580/95/23
f 674/90/21 678/45/21 680/94/21 676/95/21
f 598/45/8 600/94/8 596/95/8 594/90/8
f 658/90/9 662/45/9 664/94/9 660/95/9
f 610/90/22 614/45/22 616/94/22 612/95/22
f 642/90/24 646/45/24 648/94/24 644/95/24
f 630/45/10 632/94/10 628/95/10 626/90/10
f 374/87/11 377/88/11 378/89/11 375/90/11
f 351/87/11 354/88/11 355/89/11 352/90/11
f 396/87/11 399/88/11 400/89/11 397/90/11
f 332/87/11 335/88/11 336/89/11 333/90/11
f 243/87/11 246/88/11 247/89/11 244/90/11
f 308/87/11 311/88/11 312/89/11 309/90/11
f 264/87/11 267/88/11 268/89/11 265/90/11
f 287/87/11 290/88/11 291/89/11 288/90/11
f 366/89/12 365/88/12 362/87/12 363/90/12
f 346/89/12 345/88/12 342/87/12 343/90/12
f 389/89/12 388/88/12 385/87/12 386/90/12
f 323/89/12 322/88/12 319/87/12 320/90/12
f 235/89/12 234/88/12 231/87/12 232/90/12
f 303/89/12 302/88/12 299/87/12 300/90/12
f 258/89/12 257/88/12 254/87/12 255/90/12
f 279/89/12 278/88/12 275/87/12 276/90/12
f 696/93/11 692/92/11 698/42/11 699/91/11
f 708/92/11 714/42/11 715/91/11 712/93/11
f 804/92/11 810/42/11 811/91/11 808/93/11
f 728/93/11 724/92/11 730/42/11 731/91/11
f 788/92/11 794/42/11 795/91/11 792/93/11
f 740/92/11 746/42/11 747/91/11 744/93/11
f 772/92/11 778/42/11 779/91/11 776/93/11
f 760/93/11 756/92/11 762/42/11 763/91/11
f 694/93/8 696/92/8 699/42/8 700/91/8
f 690/93/9 697/91/9 698/42/9 692/92/9
f 706/93/21 713/91/21 714/42/21 708/92/21
f 710/93/22 712/92/22 715/42/22 716/91/22
f 806/93/23 808/92/23 811/42/23 812/91/23
f 804/92/24 802/93/24 809/91/24 810/42/24
f 722/93/7 729/91/7 730/42/7 724/92/7
f 726/93/10 728/92/10 731/42/10 732/91/10
f 790/93/7 792/92/7 795/42/7 796/91/7
f 788/92/10 786/93/10 793/91/10 794/42/10
f 738/93/23 745/91/23 746/42/23 740/92/23
f 742/93/24 744/92/24 747/42/24 748/91/24
f 774/93/21 776/92/21 779/42/21 780/91/21
f 770/93/22 777/91/22 778/42/22 772/92/22
f 754/93/8 761/91/8 762/42/8 756/92/8
f 758/93/9 760/92/9 763/42/9 764/91/9
f 692/95/7 696/94/7 694/45/7 690/90/7
f 694/92/12 700/42/12 697/91/12 690/93/12
f 706/90/23 708/95/23 712/94/23 710/45/23
f 710/92/12 716/42/12 713/91/12 706/93/12
f 802/90/21 804/95/21 808/94/21 806/45/21
f 806/92/12 812/42/12 809/91/12 802/93/12
f 724/95/8 728/94/8 726/45/8 722/90/8
f 726/92/12 732/42/12 729/91/12 722/93/12
f 790/92/12 796/42/12 793/91/12 786/93/12
f 786/90/9 788/95/9 792/94/9 790/45/9
f 742/92/12 748/42/12 745/91/12 738/93/12
f 738/90/22 740/95/22 744/94/22 742/45/22
f 774/92/12 780/42/12 777/91/12 770/93/12
f 770/90/24 772/95/24 776/94/24 774/45/24
f 758/92/12 764/42/12 761/91/12 754/93/12
f 756/95/10 760/94/10 758/45/10 754/90/10
