# Blender 5.1.0
# www.blender.org
mtllib water_wheel.mtl
o Waterwheel_Big_Axle.007
v 0.375000 0.000000 0.625000
v 0.375000 0.000000 0.375000
v 0.375000 1.000000 0.625000
v 0.375000 1.000000 0.375000
v 0.625000 0.000000 0.375000
v 0.625000 0.000000 0.625000
v 0.625000 1.000000 0.375000
v 0.625000 1.000000 0.625000
v 1.311795 0.843750 0.500000
v 1.041196 0.843750 0.500000
v 0.882684 0.843750 0.882683
v 0.973899 0.843750 0.662470
v 1.180951 0.843750 0.815884
v 1.204869 0.843750 0.758141
v 1.031641 0.843750 0.686388
v 1.089384 0.843750 0.710306
v 1.147126 0.843750 0.734223
v 1.007724 0.843750 0.744130
v 1.065466 0.843750 0.768048
v 1.123209 0.843750 0.791966
v 0.882684 0.781250 0.882683
v 0.973899 0.781250 0.662470
v 1.180951 0.781250 0.815884
v 1.204869 0.781250 0.758141
v 1.031641 0.781250 0.686388
v 1.089384 0.781250 0.710306
v 1.147126 0.781250 0.734223
v 1.007724 0.781250 0.744131
v 1.065466 0.781250 0.768048
v 1.123209 0.781250 0.791966
v 1.074025 0.843750 1.074025
v 0.500000 0.843750 1.041196
v 0.720213 0.843750 0.949981
v 0.758142 0.843750 1.204869
v 0.815884 0.843750 1.180951
v 0.744131 0.843750 1.007723
v 0.768049 0.843750 1.065466
v 0.791966 0.843750 1.123208
v 0.686388 0.843750 1.031641
v 0.710306 0.843750 1.089384
v 0.734224 0.843750 1.147126
v 1.074026 0.781250 1.074025
v 0.500000 0.781250 1.311794
v 0.500000 0.781250 1.041196
v 0.720213 0.781250 0.949981
v 0.758142 0.781250 1.204869
v 0.815884 0.781250 1.180951
v 0.744131 0.781250 1.007723
v 0.768049 0.781250 1.065466
v 0.791966 0.781250 1.123208
v 0.686388 0.781250 1.031641
v 0.710306 0.781250 1.089384
v 0.734224 0.781250 1.147126
v 0.500000 0.843750 1.311794
v 0.117317 0.843750 0.882683
v 0.337530 0.843750 0.973899
v 0.184116 0.843750 1.180951
v 0.241859 0.843750 1.204869
v 0.313612 0.843750 1.031641
v 0.289694 0.843750 1.089384
v 0.265776 0.843750 1.147126
v 0.255869 0.843750 1.007723
v 0.231952 0.843750 1.065466
v 0.208034 0.843750 1.123208
v 0.117317 0.781250 0.882683
v 0.337530 0.781250 0.973899
v 0.184116 0.781250 1.180951
v 0.241859 0.781250 1.204869
v 0.313612 0.781250 1.031641
v 0.289694 0.781250 1.089384
v 0.265776 0.781250 1.147126
v 0.255869 0.781250 1.007723
v 0.231952 0.781250 1.065466
v 0.208034 0.781250 1.123208
v -0.074025 0.843750 1.074025
v -0.041196 0.843750 0.500000
v 0.050019 0.843750 0.720213
v -0.204869 0.843750 0.758141
v -0.180951 0.843750 0.815884
v -0.007723 0.843750 0.744131
v -0.065466 0.843750 0.768048
v -0.123208 0.843750 0.791966
v -0.031641 0.843750 0.686388
v -0.089384 0.843750 0.710306
v -0.147126 0.843750 0.734224
v -0.074025 0.781250 1.074025
v -0.041196 0.781250 0.500000
v 0.050019 0.781250 0.720213
v -0.204869 0.781250 0.758141
v -0.180951 0.781250 0.815884
v -0.007723 0.781250 0.744131
v -0.065466 0.781250 0.768048
v -0.123208 0.781250 0.791966
v -0.031641 0.781250 0.686388
v -0.089384 0.781250 0.710306
v -0.147126 0.781250 0.734224
v -0.311794 0.843750 0.500000
v -0.074025 0.843750 -0.074025
v 0.026101 0.843750 0.337529
v -0.180951 0.843750 0.184116
v -0.204869 0.843750 0.241859
v -0.031641 0.843750 0.313612
v -0.089384 0.843750 0.289694
v -0.147126 0.843750 0.265776
v -0.007723 0.843750 0.255869
v -0.065466 0.843750 0.231952
v -0.123208 0.843750 0.208034
v -0.311794 0.781250 0.500000
v 0.117317 0.781250 0.117317
v 0.026101 0.781250 0.337529
v -0.180951 0.781250 0.184116
v -0.204869 0.781250 0.241859
v -0.031641 0.781250 0.313612
v -0.089384 0.781250 0.289694
v -0.147126 0.781250 0.265776
v -0.007723 0.781250 0.255869
v -0.065466 0.781250 0.231952
v -0.123208 0.781250 0.208034
v 0.117316 0.843750 0.117316
v 0.279787 0.843750 0.050019
v 0.241859 0.843750 -0.204869
v 0.184116 0.843750 -0.180951
v 0.255869 0.843750 -0.007724
v 0.231952 0.843750 -0.065466
v 0.208034 0.843750 -0.123209
v 0.313612 0.843750 -0.031641
v 0.289694 0.843750 -0.089384
v 0.265776 0.843750 -0.147126
v -0.074025 0.781250 -0.074025
v 0.500000 0.781250 -0.041196
v 0.279787 0.781250 0.050019
v 0.241859 0.781250 -0.204869
v 0.184116 0.781250 -0.180951
v 0.255869 0.781250 -0.007724
v 0.231952 0.781250 -0.065466
v 0.208034 0.781250 -0.123209
v 0.313612 0.781250 -0.031641
v 0.289694 0.781250 -0.089384
v 0.265776 0.781250 -0.147126
v 0.500000 0.843750 -0.311795
v 0.500000 0.843750 -0.041196
v 0.662470 0.843750 0.026101
v 0.815884 0.843750 -0.180951
v 0.758141 0.843750 -0.204869
v 0.686388 0.843750 -0.031641
v 0.710306 0.843750 -0.089384
v 0.734224 0.843750 -0.147126
v 0.744131 0.843750 -0.007724
v 0.768048 0.843750 -0.065466
v 0.791966 0.843750 -0.123209
v 0.500000 0.781250 -0.311795
v 0.662470 0.781250 0.026101
v 0.815884 0.781250 -0.180951
v 0.758141 0.781250 -0.204869
v 0.686388 0.781250 -0.031641
v 0.710306 0.781250 -0.089384
v 0.734224 0.781250 -0.147126
v 0.744131 0.781250 -0.007724
v 0.768048 0.781250 -0.065466
v 0.791966 0.781250 -0.123209
v 1.074025 0.843750 -0.074025
v 0.882684 0.843750 0.117316
v 0.949981 0.843750 0.279787
v 1.204869 0.843750 0.241858
v 1.180951 0.843750 0.184116
v 1.007723 0.843750 0.255869
v 1.065466 0.843750 0.231951
v 1.123209 0.843750 0.208034
v 1.031641 0.843750 0.313612
v 1.089384 0.843750 0.289694
v 1.147126 0.843750 0.265776
v 1.074025 0.781250 -0.074026
v 1.311794 0.781250 0.500000
v 0.882684 0.781250 0.117316
v 1.041196 0.781250 0.500000
v 0.949981 0.781250 0.279787
v 1.204869 0.781250 0.241858
v 1.180951 0.781250 0.184116
v 1.007724 0.781250 0.255869
v 1.065466 0.781250 0.231951
v 1.123209 0.781250 0.208034
v 1.031641 0.781250 0.313612
v 1.089384 0.781250 0.289694
v 1.147126 0.781250 0.265776
v 1.041196 0.156250 0.500000
v 0.882684 0.156250 0.882684
v 0.973899 0.156250 0.662471
v 1.180951 0.156250 0.815884
v 1.204869 0.156250 0.758141
v 1.031641 0.156250 0.686388
v 1.089384 0.156250 0.710306
v 1.147126 0.156250 0.734224
v 1.007724 0.156250 0.744131
v 1.065466 0.156250 0.768048
v 1.123209 0.156250 0.791966
v 1.074025 0.218750 1.074025
v 1.041196 0.218750 0.500000
v 0.882684 0.218750 0.882684
v 0.973899 0.218750 0.662471
v 1.180951 0.218750 0.815884
v 1.204869 0.218750 0.758141
v 1.031641 0.218750 0.686388
v 1.089384 0.218750 0.710306
v 1.147126 0.218750 0.734224
v 1.007723 0.218750 0.744131
v 1.065466 0.218750 0.768049
v 1.123209 0.218750 0.791966
v 1.074025 0.156250 1.074026
v 0.500000 0.156250 1.311795
v 0.720213 0.156250 0.949981
v 0.758141 0.156250 1.204869
v 0.815884 0.156250 1.180951
v 0.744131 0.156250 1.007724
v 0.768049 0.156250 1.065466
v 0.791966 0.156250 1.123209
v 0.686388 0.156250 1.031641
v 0.710306 0.156250 1.089384
v 0.734224 0.156250 1.147126
v 0.500000 0.218750 1.311795
v 0.720213 0.218750 0.949981
v 0.758141 0.218750 1.204869
v 0.815884 0.218750 1.180951
v 0.744131 0.218750 1.007724
v 0.768049 0.218750 1.065466
v 0.791966 0.218750 1.123209
v 0.686388 0.218750 1.031641
v 0.710306 0.218750 1.089384
v 0.734224 0.218750 1.147126
v -0.074025 0.156250 1.074025
v 0.500000 0.156250 1.041196
v 0.337530 0.156250 0.973899
v 0.184116 0.156250 1.180951
v 0.241859 0.156250 1.204869
v 0.313612 0.156250 1.031641
v 0.289694 0.156250 1.089384
v 0.265776 0.156250 1.147126
v 0.255869 0.156250 1.007724
v 0.231952 0.156250 1.065466
v 0.208034 0.156250 1.123209
v -0.074025 0.218750 1.074025
v 0.500000 0.218750 1.041196
v 0.117317 0.218750 0.882684
v 0.337530 0.218750 0.973899
v 0.184116 0.218750 1.180951
v 0.241859 0.218750 1.204869
v 0.313612 0.218750 1.031641
v 0.289694 0.218750 1.089384
v 0.265776 0.218750 1.147126
v 0.255869 0.218750 1.007724
v 0.231952 0.218750 1.065466
v 0.208034 0.218750 1.123209
v -0.311794 0.156250 0.500000
v 0.117316 0.156250 0.882684
v -0.041196 0.156250 0.500000
v 0.050019 0.156250 0.720213
v -0.204869 0.156250 0.758142
v -0.180951 0.156250 0.815884
v -0.007723 0.156250 0.744131
v -0.065466 0.156250 0.768049
v -0.123208 0.156250 0.791966
v -0.031641 0.156250 0.686388
v -0.089384 0.156250 0.710306
v -0.147126 0.156250 0.734224
v 0.050019 0.218750 0.720213
v -0.204869 0.218750 0.758142
v -0.180951 0.218750 0.815884
v -0.007724 0.218750 0.744131
v -0.065466 0.218750 0.768049
v -0.123208 0.218750 0.791966
v -0.031641 0.218750 0.686388
v -0.089384 0.218750 0.710306
v -0.147126 0.218750 0.734224
v -0.074025 0.156250 -0.074025
v 0.117316 0.156250 0.117317
v 0.026101 0.156250 0.337530
v -0.180951 0.156250 0.184116
v -0.204869 0.156250 0.241859
v -0.031641 0.156250 0.313612
v -0.089384 0.156250 0.289694
v -0.147126 0.156250 0.265777
v -0.007723 0.156250 0.255870
v -0.065466 0.156250 0.231952
v -0.123208 0.156250 0.208034
v -0.311795 0.218750 0.500000
v -0.074025 0.218750 -0.074025
v -0.041196 0.218750 0.500000
v 0.117316 0.218750 0.117317
v 0.026101 0.218750 0.337530
v -0.180951 0.218750 0.184116
v -0.204869 0.218750 0.241859
v -0.031641 0.218750 0.313612
v -0.089384 0.218750 0.289694
v -0.147126 0.218750 0.265777
v -0.007724 0.218750 0.255870
v -0.065466 0.218750 0.231952
v -0.123209 0.218750 0.208034
v 0.500000 0.156250 -0.311794
v 0.279787 0.156250 0.050019
v 0.241858 0.156250 -0.204868
v 0.184116 0.156250 -0.180951
v 0.255869 0.156250 -0.007723
v 0.231951 0.156250 -0.065466
v 0.208034 0.156250 -0.123208
v 0.313612 0.156250 -0.031641
v 0.289694 0.156250 -0.089383
v 0.265776 0.156250 -0.147126
v 0.279787 0.218750 0.050019
v 0.241859 0.218750 -0.204868
v 0.184116 0.218750 -0.180951
v 0.255869 0.218750 -0.007723
v 0.231952 0.218750 -0.065466
v 0.208034 0.218750 -0.123208
v 0.313612 0.218750 -0.031641
v 0.289694 0.218750 -0.089384
v 0.265776 0.218750 -0.147126
v 1.074025 0.156250 -0.074025
v 0.500000 0.156250 -0.041196
v 0.662470 0.156250 0.026101
v 0.815884 0.156250 -0.180951
v 0.758141 0.156250 -0.204869
v 0.686388 0.156250 -0.031641
v 0.710306 0.156250 -0.089384
v 0.734224 0.156250 -0.147126
v 0.744131 0.156250 -0.007723
v 0.768048 0.156250 -0.065466
v 0.791966 0.156250 -0.123208
v 0.500000 0.218750 -0.311794
v 1.074025 0.218750 -0.074025
v 0.500000 0.218750 -0.041196
v 0.662470 0.218750 0.026101
v 0.815884 0.218750 -0.180951
v 0.758141 0.218750 -0.204869
v 0.686388 0.218750 -0.031641
v 0.710306 0.218750 -0.089384
v 0.734224 0.218750 -0.147126
v 0.744131 0.218750 -0.007723
v 0.768048 0.218750 -0.065466
v 0.791966 0.218750 -0.123208
v 1.311794 0.156250 0.500000
v 0.882683 0.156250 0.117317
v 0.949981 0.156250 0.279787
v 1.204869 0.156250 0.241859
v 1.180951 0.156250 0.184116
v 1.007723 0.156250 0.255869
v 1.065466 0.156250 0.231952
v 1.123208 0.156250 0.208034
v 1.031641 0.156250 0.313612
v 1.089384 0.156250 0.289694
v 1.147126 0.156250 0.265776
v 1.311794 0.218750 0.500000
v 0.882683 0.218750 0.117317
v 0.949981 0.218750 0.279787
v 1.204869 0.218750 0.241859
v 1.180951 0.218750 0.184116
v 1.007723 0.218750 0.255869
v 1.065466 0.218750 0.231952
v 1.123208 0.218750 0.208034
v 1.031641 0.218750 0.313612
v 1.089384 0.218750 0.289694
v 1.147126 0.218750 0.265776
v 0.531250 0.218750 -0.500000
v 0.531250 0.781250 -0.500000
v 0.531250 0.218750 -0.062500
v 0.531250 0.781250 -0.062500
v 0.468750 0.218750 -0.500000
v 0.468750 0.781250 -0.500000
v 0.468750 0.218750 -0.062500
v 0.468750 0.781250 -0.062500
v 0.437499 0.875000 0.249998
v 0.437499 0.875000 -0.375002
v 0.437499 0.750000 0.249998
v 0.437499 0.750000 -0.375002
v 0.562499 0.875000 0.249998
v 0.562499 0.875000 -0.375002
v 0.562499 0.750000 0.249998
v 0.562499 0.750000 -0.375002
v 0.437499 0.875000 -0.250002
v 0.437499 0.750000 -0.250002
v 0.562499 0.750000 -0.250002
v 0.562499 0.875000 -0.250002
v 0.935970 0.781250 0.082643
v 1.103394 0.781250 0.486840
v 0.935970 0.218750 0.082643
v 1.103394 0.218750 0.486840
v 1.103393 0.781250 0.513161
v 0.935969 0.781250 0.917358
v 1.103393 0.218750 0.513161
v 0.935969 0.218750 0.917359
v 0.917357 0.781250 0.935970
v 0.513160 0.781250 1.103394
v 0.917357 0.218750 0.935970
v 0.513160 0.218750 1.103394
v 0.486839 0.781250 1.103393
v 0.082641 0.781250 0.935969
v 0.486839 0.218750 1.103393
v 0.082641 0.218750 0.935969
v 0.064030 0.781250 0.917357
v -0.103394 0.781250 0.513160
v 0.064030 0.218750 0.917357
v -0.103394 0.218750 0.513160
v -0.103393 0.781250 0.486839
v 0.064031 0.781250 0.082641
v -0.103393 0.218750 0.486839
v 0.064031 0.218750 0.082641
v 0.082643 0.781250 0.064030
v 0.486840 0.781250 -0.103394
v 0.082643 0.218750 0.064030
v 0.486840 0.218750 -0.103394
v 0.513161 0.781250 -0.103393
v 0.917359 0.781250 0.064031
v 0.513161 0.218750 -0.103393
v 0.917359 0.218750 0.064031
v 0.911554 0.218750 -0.411921
v 0.911555 0.781250 -0.411921
v 0.744130 0.218750 -0.007723
v 0.744131 0.781250 -0.007723
v 0.853812 0.218750 -0.435838
v 0.853812 0.781250 -0.435839
v 0.686388 0.218750 -0.031641
v 0.686388 0.781250 -0.031641
v 1.229204 0.218750 -0.185010
v 1.229204 0.781250 -0.185010
v 0.919844 0.218750 0.124350
v 0.919845 0.781250 0.124350
v 1.185009 0.218750 -0.229204
v 1.185010 0.781250 -0.229204
v 0.875650 0.218750 0.080155
v 0.875650 0.781250 0.080155
v 1.435838 0.218750 0.146188
v 1.435838 0.781250 0.146188
v 1.031641 0.218750 0.313612
v 1.031641 0.781250 0.313612
v 1.411920 0.218750 0.088445
v 1.411921 0.781250 0.088445
v 1.007723 0.218750 0.255869
v 1.007723 0.781250 0.255869
v 1.500000 0.218750 0.531250
v 1.500000 0.781250 0.531250
v 1.062500 0.218750 0.531250
v 1.062500 0.781250 0.531250
v 1.500000 0.218750 0.468750
v 1.500000 0.781250 0.468750
v 1.062500 0.218750 0.468750
v 1.062500 0.781250 0.468750
v 1.411921 0.218750 0.911554
v 1.411921 0.781250 0.911555
v 1.007723 0.218750 0.744130
v 1.007723 0.781250 0.744131
v 1.435838 0.218750 0.853812
v 1.435838 0.781250 0.853812
v 1.031641 0.218750 0.686388
v 1.031641 0.781250 0.686388
v 1.185009 0.218750 1.229204
v 1.185010 0.781250 1.229204
v 0.875650 0.218750 0.919844
v 0.875650 0.781250 0.919845
v 1.229204 0.218750 1.185009
v 1.229204 0.781250 1.185010
v 0.919845 0.218750 0.875650
v 0.919845 0.781250 0.875650
v 0.853812 0.218750 1.435838
v 0.853812 0.781250 1.435838
v 0.686388 0.218750 1.031641
v 0.686388 0.781250 1.031641
v 0.911555 0.218750 1.411920
v 0.911555 0.781250 1.411921
v 0.744131 0.218750 1.007723
v 0.744130 0.781250 1.007723
v 0.468750 0.218750 1.500000
v 0.468750 0.781250 1.500000
v 0.468750 0.218750 1.062500
v 0.468750 0.781250 1.062500
v 0.531250 0.218750 1.500000
v 0.531250 0.781250 1.500000
v 0.531250 0.218750 1.062500
v 0.531250 0.781250 1.062500
v 0.088445 0.218750 1.411920
v 0.088445 0.781250 1.411921
v 0.255870 0.218750 1.007723
v 0.255869 0.781250 1.007723
v 0.146188 0.218750 1.435838
v 0.146188 0.781250 1.435838
v 0.313612 0.218750 1.031641
v 0.313612 0.781250 1.031641
v -0.229204 0.218750 1.185009
v -0.229204 0.781250 1.185010
v 0.080156 0.218750 0.875650
v 0.080155 0.781250 0.875650
v -0.185010 0.218750 1.229204
v -0.185010 0.781250 1.229204
v 0.124350 0.218750 0.919845
v 0.124350 0.781250 0.919845
v -0.435838 0.218750 0.853812
v -0.435838 0.781250 0.853812
v -0.031641 0.218750 0.686388
v -0.031641 0.781250 0.686388
v -0.411920 0.218750 0.911555
v -0.411921 0.781250 0.911554
v -0.007723 0.218750 0.744131
v -0.007723 0.781250 0.744130
v -0.500000 0.218750 0.468750
v -0.500000 0.781250 0.468750
v -0.062500 0.218750 0.468750
v -0.062500 0.781250 0.468750
v -0.500000 0.218750 0.531250
v -0.500000 0.781250 0.531250
v -0.062500 0.218750 0.531250
v -0.062500 0.781250 0.531250
v -0.411920 0.218750 0.088445
v -0.411921 0.781250 0.088445
v -0.007723 0.218750 0.255869
v -0.007723 0.781250 0.255869
v -0.435838 0.218750 0.146188
v -0.435838 0.781250 0.146188
v -0.031641 0.218750 0.313612
v -0.031641 0.781250 0.313612
v -0.185009 0.218750 -0.229204
v -0.185009 0.781250 -0.229204
v 0.124350 0.218750 0.080155
v 0.124350 0.781250 0.080155
v -0.229204 0.218750 -0.185010
v -0.229203 0.781250 -0.185010
v 0.080156 0.218750 0.124350
v 0.080156 0.781250 0.124349
v 0.146188 0.218750 -0.435838
v 0.146188 0.781250 -0.435838
v 0.313612 0.218750 -0.031641
v 0.313612 0.781250 -0.031641
v 0.088445 0.218750 -0.411920
v 0.088446 0.781250 -0.411921
v 0.255870 0.218750 -0.007723
v 0.255870 0.781250 -0.007723
v 0.437499 0.875000 -0.187502
v 0.437499 0.750000 -0.187502
v 0.562499 0.750000 -0.187502
v 0.562499 0.875000 -0.187502
v 0.632583 0.875000 0.279027
v 1.074525 0.875000 -0.162915
v 0.632583 0.750000 0.279027
v 1.074525 0.750000 -0.162915
v 0.720972 0.875000 0.367415
v 1.162914 0.875000 -0.074526
v 0.720972 0.750000 0.367416
v 1.162914 0.750000 -0.074526
v 0.986137 0.875000 -0.074526
v 0.986137 0.750000 -0.074526
v 1.074525 0.750000 0.013862
v 1.074525 0.875000 0.013862
v 0.941943 0.875000 -0.030332
v 0.941943 0.750000 -0.030332
v 1.030331 0.750000 0.058056
v 1.030331 0.875000 0.058056
v 0.750002 0.875000 0.437499
v 1.375002 0.875000 0.437499
v 0.750002 0.750000 0.437499
v 1.375002 0.750000 0.437499
v 0.750002 0.875000 0.562499
v 1.375002 0.875000 0.562499
v 0.750002 0.750000 0.562499
v 1.375002 0.750000 0.562499
v 1.250002 0.875000 0.437499
v 1.250002 0.750000 0.437499
v 1.250002 0.750000 0.562499
v 1.250002 0.875000 0.562499
v 1.187502 0.875000 0.437499
v 1.187502 0.750000 0.437499
v 1.187502 0.750000 0.562499
v 1.187502 0.875000 0.562499
v 0.720973 0.875000 0.632583
v 1.162915 0.875000 1.074525
v 0.720973 0.750000 0.632583
v 1.162915 0.750000 1.074525
v 0.632584 0.875000 0.720972
v 1.074526 0.875000 1.162914
v 0.632584 0.750000 0.720972
v 1.074526 0.750000 1.162914
v 1.074526 0.875000 0.986137
v 1.074526 0.750000 0.986137
v 0.986138 0.750000 1.074525
v 0.986138 0.875000 1.074525
v 1.030332 0.875000 0.941943
v 1.030332 0.750000 0.941943
v 0.941944 0.750000 1.030331
v 0.941944 0.875000 1.030331
v 0.562501 0.875000 0.750002
v 0.562501 0.875000 1.375002
v 0.562501 0.750000 0.750002
v 0.562501 0.750000 1.375002
v 0.437501 0.875000 0.750002
v 0.437501 0.875000 1.375002
v 0.437501 0.750000 0.750002
v 0.437501 0.750000 1.375002
v 0.562501 0.875000 1.250002
v 0.562501 0.750000 1.250002
v 0.437501 0.750000 1.250002
v 0.437501 0.875000 1.250002
v 0.562501 0.875000 1.187502
v 0.562501 0.750000 1.187502
v 0.437501 0.750000 1.187502
v 0.437501 0.875000 1.187502
v 0.367416 0.875000 0.720973
v -0.074525 0.875000 1.162915
v 0.367417 0.750000 0.720973
v -0.074525 0.750000 1.162915
v 0.279028 0.875000 0.632584
v -0.162914 0.875000 1.074526
v 0.279028 0.750000 0.632584
v -0.162914 0.750000 1.074526
v 0.013863 0.875000 1.074526
v 0.013863 0.750000 1.074526
v -0.074525 0.750000 0.986138
v -0.074525 0.875000 0.986138
v 0.058057 0.875000 1.030332
v 0.058057 0.750000 1.030332
v -0.030331 0.750000 0.941944
v -0.030331 0.875000 0.941944
v 0.249998 0.875000 0.562501
v -0.375002 0.875000 0.562501
v 0.249998 0.750000 0.562501
v -0.375002 0.750000 0.562501
v 0.249998 0.875000 0.437501
v -0.375002 0.875000 0.437501
v 0.249998 0.750000 0.437501
v -0.375002 0.750000 0.437501
v -0.250002 0.875000 0.562501
v -0.250002 0.750000 0.562501
v -0.250002 0.750000 0.437501
v -0.250002 0.875000 0.437501
v -0.187502 0.875000 0.562501
v -0.187502 0.750000 0.562501
v -0.187502 0.750000 0.437501
v -0.187502 0.875000 0.437501
v 0.279027 0.875000 0.367416
v -0.162915 0.875000 -0.074525
v 0.279027 0.750000 0.367417
v -0.162915 0.750000 -0.074525
v 0.367416 0.875000 0.279028
v -0.074526 0.875000 -0.162914
v 0.367416 0.750000 0.279028
v -0.074526 0.750000 -0.162914
v -0.074526 0.875000 0.013863
v -0.074526 0.750000 0.013863
v 0.013862 0.750000 -0.074525
v 0.013862 0.875000 -0.074525
v -0.030332 0.875000 0.058057
v -0.030332 0.750000 0.058057
v 0.058056 0.750000 -0.030331
v 0.058056 0.875000 -0.030331
v 0.437499 0.125000 0.249998
v 0.437499 0.125000 -0.375002
v 0.437499 0.250000 0.249998
v 0.437499 0.250000 -0.375002
v 0.562499 0.125000 0.249998
v 0.562499 0.125000 -0.375002
v 0.562499 0.250000 0.249998
v 0.562499 0.250000 -0.375002
v 0.437499 0.125000 -0.250002
v 0.437499 0.250000 -0.250002
v 0.562499 0.250000 -0.250002
v 0.562499 0.125000 -0.250002
v 0.437499 0.125000 -0.187502
v 0.437499 0.250000 -0.187502
v 0.562499 0.250000 -0.187502
v 0.562499 0.125000 -0.187502
v 0.632583 0.125000 0.279027
v 1.074525 0.125000 -0.162915
v 0.632583 0.250000 0.279027
v 1.074525 0.250000 -0.162915
v 0.720972 0.125000 0.367415
v 1.162914 0.125000 -0.074526
v 0.720972 0.250000 0.367416
v 1.162914 0.250000 -0.074526
v 0.986137 0.125000 -0.074526
v 0.986137 0.250000 -0.074526
v 1.074525 0.250000 0.013862
v 1.074525 0.125000 0.013862
v 0.941943 0.125000 -0.030332
v 0.941943 0.250000 -0.030332
v 1.030331 0.250000 0.058056
v 1.030331 0.125000 0.058056
v 0.750002 0.125000 0.437499
v 1.375002 0.125000 0.437499
v 0.750002 0.250000 0.437499
v 1.375002 0.250000 0.437499
v 0.750002 0.125000 0.562499
v 1.375002 0.125000 0.562499
v 0.750002 0.250000 0.562499
v 1.375002 0.250000 0.562499
v 1.250002 0.125000 0.437499
v 1.250002 0.250000 0.437499
v 1.250002 0.250000 0.562499
v 1.250002 0.125000 0.562499
v 1.187502 0.125000 0.437499
v 1.187502 0.250000 0.437499
v 1.187502 0.250000 0.562499
v 1.187502 0.125000 0.562499
v 0.720973 0.125000 0.632583
v 1.162915 0.125000 1.074525
v 0.720973 0.250000 0.632583
v 1.162915 0.250000 1.074525
v 0.632584 0.125000 0.720972
v 1.074526 0.125000 1.162914
v 0.632584 0.250000 0.720972
v 1.074526 0.250000 1.162914
v 1.074526 0.125000 0.986137
v 1.074526 0.250000 0.986137
v 0.986138 0.250000 1.074525
v 0.986138 0.125000 1.074525
v 1.030332 0.125000 0.941943
v 1.030332 0.250000 0.941943
v 0.941944 0.250000 1.030331
v 0.941944 0.125000 1.030331
v 0.562501 0.125000 0.750002
v 0.562501 0.125000 1.375002
v 0.562501 0.250000 0.750002
v 0.562501 0.250000 1.375002
v 0.437501 0.125000 0.750002
v 0.437501 0.125000 1.375002
v 0.437501 0.250000 0.750002
v 0.437501 0.250000 1.375002
v 0.562501 0.125000 1.250002
v 0.562501 0.250000 1.250002
v 0.437501 0.250000 1.250002
v 0.437501 0.125000 1.250002
v 0.562501 0.125000 1.187502
v 0.562501 0.250000 1.187502
v 0.437501 0.250000 1.187502
v 0.437501 0.125000 1.187502
v 0.367416 0.125000 0.720973
v -0.074525 0.125000 1.162915
v 0.367417 0.250000 0.720973
v -0.074525 0.250000 1.162915
v 0.279028 0.125000 0.632584
v -0.162914 0.125000 1.074526
v 0.279028 0.250000 0.632584
v -0.162914 0.250000 1.074526
v 0.013863 0.125000 1.074526
v 0.013863 0.250000 1.074526
v -0.074525 0.250000 0.986138
v -0.074525 0.125000 0.986138
v 0.058057 0.125000 1.030332
v 0.058057 0.250000 1.030332
v -0.030331 0.250000 0.941944
v -0.030331 0.125000 0.941944
v 0.249998 0.125000 0.562501
v -0.375002 0.125000 0.562501
v 0.249998 0.250000 0.562501
v -0.375002 0.250000 0.562501
v 0.249998 0.125000 0.437501
v -0.375002 0.125000 0.437501
v 0.249998 0.250000 0.437501
v -0.375002 0.250000 0.437501
v -0.250002 0.125000 0.562501
v -0.250002 0.250000 0.562501
v -0.250002 0.250000 0.437501
v -0.250002 0.125000 0.437501
v -0.187502 0.125000 0.562501
v -0.187502 0.250000 0.562501
v -0.187502 0.250000 0.437501
v -0.187502 0.125000 0.437501
v 0.279027 0.125000 0.367416
v -0.162915 0.125000 -0.074525
v 0.279027 0.250000 0.367417
v -0.162915 0.250000 -0.074525
v 0.367416 0.125000 0.279028
v -0.074526 0.125000 -0.162914
v 0.367416 0.250000 0.279028
v -0.074526 0.250000 -0.162914
v -0.074526 0.125000 0.013863
v -0.074526 0.250000 0.013863
v 0.013862 0.250000 -0.074525
v 0.013862 0.125000 -0.074525
v -0.030332 0.125000 0.058057
v -0.030332 0.250000 0.058057
v 0.058056 0.250000 -0.030331
v 0.058056 0.125000 -0.030331
v 0.562499 0.875000 0.249998
v 0.562499 0.750000 0.249998
v 0.562499 0.750000 -0.187502
v 0.562499 0.875000 -0.187502
vn 1.0000 -0.0000 -0.0000
vn -0.0000 -0.0000 1.0000
vn -0.0000 -0.0000 -1.0000
vn -1.0000 -0.0000 -0.0000
vn -0.0000 1.0000 -0.0000
vn -0.0000 -1.0000 -0.0000
vn 0.9239 -0.0000 0.3827
vn 0.3827 -0.0000 0.9239
vn 0.9239 -0.0000 -0.3827
vn -0.3827 -0.0000 0.9239
vn 0.3827 -0.0000 -0.9239
vn -0.9239 -0.0000 0.3827
vn -0.3827 -0.0000 -0.9239
vn -0.9239 -0.0000 -0.3827
vn 0.7071 -0.0000 -0.7071
vn -0.7071 -0.0000 0.7071
vn 0.7071 -0.0000 0.7071
vn -0.7071 -0.0000 -0.7071
vt 0.375000 1.000000
vt 0.375000 0.000000
vt 0.625000 0.000000
vt 0.625000 1.000000
vt 0.375000 0.625000
vt 0.375000 0.375000
vt 0.625000 0.375000
vt 0.625000 0.625000
vt 1.000000 1.000000
vt 0.562500 1.000000
vt 0.562500 0.437500
vt 1.000000 0.437500
vt -0.000000 0.687500
vt 0.000000 0.562500
vt 0.437500 0.562500
vt 0.437500 0.687500
vt 0.437500 0.812500
vt -0.000000 0.812500
vt 0.000000 0.750000
vt 0.437500 0.750000
vt 0.937500 0.812500
vt 0.500000 0.812500
vt 0.500000 0.750000
vt 0.937500 0.750000
vt 0.499815 0.750000
vt 0.739583 0.750000
vt 0.562685 0.812500
vt 0.322917 0.750000
vt 0.499815 0.812500
vt 0.250000 0.875000
vt 0.312500 0.875000
vt 0.312500 0.937500
vt 0.250000 0.937500
vt 0.843750 1.000000
vt 0.562685 0.875000
vt 0.218750 1.000000
vt 0.499815 0.875000
vt 0.562685 1.000000
vt 0.562685 0.937500
vt 0.499815 1.000000
vt 0.499815 0.937500
vt 0.375000 0.500000
vt 0.375000 0.562500
vt 0.250000 0.562500
vt 0.250000 0.500000
vt 0.500000 0.937500
vt 0.562500 0.937500
vt 0.500000 1.000000
vt 1.000000 0.812500
vt 1.000000 0.750000
vt 0.843750 0.937500
vt 0.218750 0.937500
vt 1.000000 0.375000
vt 0.562500 0.375000
vt 1.000000 0.937500
vt 0.562500 0.875000
vt 1.000000 0.875000
vt 0.625000 0.937500
vt -0.000000 0.875000
vt 0.062500 0.875000
vt 0.062500 0.937500
vt -0.000000 0.937500
vt 0.125000 0.562500
vt 0.000000 0.437500
vt 0.125000 0.437500
vt 0.125000 0.812500
vt 0.125000 0.937500
s 1
usemtl axis
f 5/1/1 7/2/1 8/3/1 6/4/1
f 6/1/2 8/2/2 3/3/2 1/4/2
f 2/1/3 4/2/3 7/3/3 5/4/3
f 1/1/4 3/2/4 4/3/4 2/4/4
usemtl axis_top
f 3/5/5 8/6/5 7/7/5 4/8/5
f 5/6/6 6/7/6 1/8/6 2/5/6
usemtl waterwheel_log
f 388/9/7 387/10/7 385/11/7 386/12/7
f 391/10/8 389/11/8 390/12/8 392/9/8
f 383/10/9 381/11/9 382/12/9 384/9/9
f 396/9/10 395/10/10 393/11/10 394/12/10
f 411/10/11 409/11/11 410/12/11 412/9/11
f 400/9/12 399/10/12 397/11/12 398/12/12
f 407/10/13 405/11/13 406/12/13 408/9/13
f 403/10/14 401/11/14 402/12/14 404/9/14
usemtl waterwheel_plank
f 569/13/5 573/14/5 584/15/5 581/16/5
f 553/13/5 557/14/5 568/15/5 565/16/5
f 585/13/5 589/14/5 600/15/5 597/16/5
f 537/13/5 541/14/5 552/15/5 549/16/5
f 601/13/5 605/14/5 616/15/5 613/16/5
f 369/13/5 373/14/5 536/15/5 533/16/5
f 617/13/5 621/14/5 632/15/5 629/16/5
f 633/13/5 637/14/5 648/15/5 645/16/5
f 582/17/15 571/18/15 569/19/15 581/20/15
f 573/18/16 575/19/16 583/20/16 584/17/16
f 557/18/2 559/19/2 567/20/2 568/17/2
f 555/18/3 553/19/3 565/20/3 566/17/3
f 587/18/1 585/19/1 597/20/1 598/17/1
f 589/18/4 591/19/4 599/20/4 600/17/4
f 552/17/17 541/18/17 543/19/17 551/20/17
f 539/18/18 537/19/18 549/20/18 550/17/18
f 603/18/17 601/19/17 613/20/17 614/17/17
f 605/18/18 607/19/18 615/20/18 616/17/18
f 777/18/1 778/19/1 779/20/1 780/17/1
f 371/18/4 369/19/4 533/20/4 534/17/4
f 630/17/2 619/18/2 617/19/2 629/20/2
f 621/18/3 623/19/3 631/20/3 632/17/3
f 637/18/15 639/19/15 647/20/15 648/17/15
f 635/18/16 633/19/16 645/20/16 646/17/16
f 583/21/6 575/22/6 571/23/6 582/24/6
f 567/21/6 559/22/6 555/23/6 566/24/6
f 591/22/6 587/23/6 598/24/6 599/21/6
f 551/21/6 543/22/6 539/23/6 550/24/6
f 615/21/6 607/22/6 603/23/6 614/24/6
f 535/21/6 375/22/6 371/23/6 534/24/6
f 623/22/6 619/23/6 630/24/6 631/21/6
f 647/21/6 639/22/6 635/23/6 646/24/6
f 12/25/5 11/26/5 18/27/5
f 33/25/5 32/26/5 39/27/5
f 163/25/5 10/26/5 169/27/5
f 56/25/5 55/26/5 62/27/5
f 142/25/5 162/26/5 148/27/5
f 77/25/5 76/26/5 83/27/5
f 120/25/5 141/26/5 126/27/5
f 99/25/5 119/26/5 105/27/5
f 10/28/5 12/25/5 18/27/5 15/29/5
f 11/28/5 33/25/5 39/27/5 36/29/5
f 162/28/5 163/25/5 169/27/5 166/29/5
f 32/28/5 56/25/5 62/27/5 59/29/5
f 141/28/5 142/25/5 148/27/5 145/29/5
f 55/28/5 77/25/5 83/27/5 80/29/5
f 119/28/5 120/25/5 126/27/5 123/29/5
f 76/28/5 99/25/5 105/27/5 102/29/5
f 22/25/6 28/27/6 21/26/6
f 45/25/6 51/27/6 44/26/6
f 176/25/6 182/27/6 175/26/6
f 66/25/6 72/27/6 65/26/6
f 152/25/6 158/27/6 174/26/6
f 88/25/6 94/27/6 87/26/6
f 131/25/6 137/27/6 130/26/6
f 110/25/6 116/27/6 109/26/6
f 175/28/6 25/29/6 28/27/6 22/25/6
f 21/28/6 48/29/6 51/27/6 45/25/6
f 174/28/6 179/29/6 182/27/6 176/25/6
f 44/28/6 69/29/6 72/27/6 66/25/6
f 130/28/6 155/29/6 158/27/6 152/25/6
f 65/28/6 91/29/6 94/27/6 88/25/6
f 109/28/6 134/29/6 137/27/6 131/25/6
f 87/28/6 113/29/6 116/27/6 110/25/6
f 15/30/5 18/31/5 19/32/5 16/33/5
f 36/30/5 39/31/5 40/32/5 37/33/5
f 166/30/5 169/31/5 170/32/5 167/33/5
f 59/30/5 62/31/5 63/32/5 60/33/5
f 145/30/5 148/31/5 149/32/5 146/33/5
f 80/30/5 83/31/5 84/32/5 81/33/5
f 123/30/5 126/31/5 127/32/5 124/33/5
f 102/30/5 105/31/5 106/32/5 103/33/5
f 29/32/6 28/31/6 25/30/6 26/33/6
f 52/32/6 51/31/6 48/30/6 49/33/6
f 183/32/6 182/31/6 179/30/6 180/33/6
f 73/32/6 72/31/6 69/30/6 70/33/6
f 159/32/6 158/31/6 155/30/6 156/33/6
f 95/32/6 94/31/6 91/30/6 92/33/6
f 138/32/6 137/31/6 134/30/6 135/33/6
f 117/32/6 116/31/6 113/30/6 114/33/6
f 11/26/5 31/34/5 19/35/5 18/27/5
f 31/36/5 11/28/5 36/29/5 37/37/5
f 9/36/5 10/28/5 15/29/5 16/37/5
f 10/26/5 9/34/5 170/35/5 169/27/5
f 32/26/5 54/34/5 40/35/5 39/27/5
f 54/36/5 32/28/5 59/29/5 60/37/5
f 161/36/5 162/28/5 166/29/5 167/37/5
f 162/26/5 161/34/5 149/35/5 148/27/5
f 55/26/5 75/34/5 63/35/5 62/27/5
f 75/36/5 55/28/5 80/29/5 81/37/5
f 140/36/5 141/28/5 145/29/5 146/37/5
f 141/26/5 140/34/5 127/35/5 126/27/5
f 76/26/5 97/34/5 84/35/5 83/27/5
f 97/36/5 76/28/5 102/29/5 103/37/5
f 98/36/5 119/28/5 123/29/5 124/37/5
f 119/26/5 98/34/5 106/35/5 105/27/5
f 29/35/6 42/34/6 21/26/6 28/27/6
f 42/36/6 49/37/6 48/29/6 21/28/6
f 173/36/6 26/37/6 25/29/6 175/28/6
f 183/35/6 173/34/6 175/26/6 182/27/6
f 52/35/6 43/34/6 44/26/6 51/27/6
f 43/36/6 70/37/6 69/29/6 44/28/6
f 172/36/6 180/37/6 179/29/6 174/28/6
f 159/35/6 172/34/6 174/26/6 158/27/6
f 73/35/6 86/34/6 65/26/6 72/27/6
f 86/36/6 92/37/6 91/29/6 65/28/6
f 151/36/6 156/37/6 155/29/6 130/28/6
f 138/35/6 151/34/6 130/26/6 137/27/6
f 95/35/6 108/34/6 87/26/6 94/27/6
f 108/36/6 114/37/6 113/29/6 87/28/6
f 129/36/6 135/37/6 134/29/6 109/28/6
f 117/35/6 129/34/6 109/26/6 116/27/6
f 31/34/5 13/38/5 20/39/5 19/35/5
f 14/40/5 9/36/5 16/37/5 17/41/5
f 35/40/5 31/36/5 37/37/5 38/41/5
f 54/34/5 34/38/5 41/39/5 40/35/5
f 9/34/5 164/38/5 171/39/5 170/35/5
f 577/42/5 581/43/5 584/44/5 580/45/5
f 165/40/5 161/36/5 167/37/5 168/41/5
f 58/40/5 54/36/5 60/37/5 61/41/5
f 561/42/5 565/43/5 568/44/5 564/45/5
f 75/34/5 57/38/5 64/39/5 63/35/5
f 593/42/5 597/43/5 600/44/5 596/45/5
f 161/34/5 143/38/5 150/39/5 149/35/5
f 144/40/5 140/36/5 146/37/5 147/41/5
f 545/42/5 549/43/5 552/44/5 548/45/5
f 79/40/5 75/36/5 81/37/5 82/41/5
f 97/34/5 78/38/5 85/39/5 84/35/5
f 140/34/5 121/38/5 128/39/5 127/35/5
f 609/42/5 613/43/5 616/44/5 612/45/5
f 122/40/5 98/36/5 124/37/5 125/41/5
f 101/40/5 97/36/5 103/37/5 104/41/5
f 98/34/5 100/38/5 107/39/5 106/35/5
f 17/46/5 20/47/5 13/10/5 14/48/5
f 533/43/5 536/44/5 380/45/5 377/42/5
f 38/46/5 41/47/5 34/10/5 35/48/5
f 625/42/5 629/43/5 632/44/5 628/45/5
f 168/46/5 171/47/5 164/10/5 165/48/5
f 645/43/5 648/44/5 644/45/5 641/42/5
f 61/46/5 64/47/5 57/10/5 58/48/5
f 147/46/5 150/47/5 143/10/5 144/48/5
f 82/46/5 85/47/5 78/10/5 79/48/5
f 125/46/5 128/47/5 121/10/5 122/48/5
f 30/39/6 23/38/6 42/34/6 29/35/6
f 24/40/6 27/41/6 26/37/6 173/36/6
f 104/46/5 107/47/5 100/10/5 101/48/5
f 47/40/6 50/41/6 49/37/6 42/36/6
f 53/39/6 46/38/6 43/34/6 52/35/6
f 184/39/6 177/38/6 173/34/6 183/35/6
f 582/17/15 581/20/15 577/23/15 578/22/15
f 178/40/6 181/41/6 180/37/6 172/36/6
f 584/17/16 583/20/16 579/23/16 580/22/16
f 564/22/2 568/17/2 567/20/2 563/23/2
f 68/40/6 71/41/6 70/37/6 43/36/6
f 566/17/3 565/20/3 561/23/3 562/22/3
f 598/17/1 597/20/1 593/23/1 594/22/1
f 74/39/6 67/38/6 86/34/6 73/35/6
f 160/39/6 153/38/6 172/34/6 159/35/6
f 600/17/4 599/20/4 595/23/4 596/22/4
f 548/22/17 552/17/17 551/20/17 547/23/17
f 154/40/6 157/41/6 156/37/6 151/36/6
f 550/17/18 549/20/18 545/23/18 546/22/18
f 90/40/6 93/41/6 92/37/6 86/36/6
f 614/17/17 613/20/17 609/23/17 610/22/17
f 96/39/6 89/38/6 108/34/6 95/35/6
f 139/39/6 132/38/6 151/34/6 138/35/6
f 616/17/18 615/20/18 611/23/18 612/22/18
f 133/40/6 136/41/6 135/37/6 129/36/6
f 112/40/6 115/41/6 114/37/6 108/36/6
f 118/39/6 111/38/6 129/34/6 117/35/6
f 380/22/1 536/17/1 535/20/1 379/23/1
f 23/10/6 30/47/6 27/46/6 24/48/6
f 534/17/4 533/20/4 377/23/4 378/22/4
f 46/10/6 53/47/6 50/46/6 47/48/6
f 630/17/2 629/20/2 625/23/2 626/22/2
f 632/17/3 631/20/3 627/23/3 628/22/3
f 177/10/6 184/47/6 181/46/6 178/48/6
f 648/17/15 647/20/15 643/23/15 644/22/15
f 642/22/16 646/17/16 645/20/16 641/23/16
f 67/10/6 74/47/6 71/46/6 68/48/6
f 153/10/6 160/47/6 157/46/6 154/48/6
f 89/10/6 96/47/6 93/46/6 90/48/6
f 132/10/6 139/47/6 136/46/6 133/48/6
f 111/10/6 118/47/6 115/46/6 112/48/6
f 579/49/6 583/21/6 582/24/6 578/50/6
f 563/49/6 567/21/6 566/24/6 562/50/6
f 595/49/6 599/21/6 598/24/6 594/50/6
f 547/49/6 551/21/6 550/24/6 546/50/6
f 615/21/6 614/24/6 610/50/6 611/49/6
f 535/21/6 534/24/6 378/50/6 379/49/6
f 627/49/6 631/21/6 630/24/6 626/50/6
f 643/49/6 647/21/6 646/24/6 642/50/6
f 23/10/7 24/48/7 14/46/7 13/47/7
f 47/48/8 35/46/8 34/47/8 46/10/8
f 178/48/9 165/46/9 164/47/9 177/10/9
f 68/48/10 58/46/10 57/47/10 67/10/10
f 154/48/11 144/46/11 143/47/11 153/10/11
f 90/48/12 79/46/12 78/47/12 89/10/12
f 133/48/13 122/46/13 121/47/13 132/10/13
f 112/48/14 101/46/14 100/47/14 111/10/14
f 42/34/7 23/38/7 13/39/7 31/51/7
f 47/40/8 42/36/8 31/52/8 35/41/8
f 24/40/7 173/36/7 9/52/7 14/41/7
f 173/34/9 177/38/9 164/39/9 9/51/9
f 43/34/8 46/38/8 34/39/8 54/51/8
f 43/36/10 54/52/10 58/41/10 68/40/10
f 172/36/9 161/52/9 165/41/9 178/40/9
f 153/38/11 143/39/11 161/51/11 172/34/11
f 67/38/10 57/39/10 75/51/10 86/34/10
f 86/36/12 75/52/12 79/41/12 90/40/12
f 154/40/11 151/36/11 140/52/11 144/41/11
f 132/38/13 121/39/13 140/51/13 151/34/13
f 108/34/12 89/38/12 78/39/12 97/51/12
f 108/36/14 97/52/14 101/41/14 112/40/14
f 133/40/13 129/36/13 98/52/13 122/41/13
f 111/38/14 100/39/14 98/51/14 129/34/14
f 452/53/5 448/12/5 446/11/5 450/54/5
f 458/54/5 460/53/5 456/12/5 454/11/5
f 444/53/5 440/12/5 438/11/5 442/54/5
f 468/53/5 464/12/5 462/11/5 466/54/5
f 434/54/5 436/53/5 432/12/5 430/11/5
f 474/54/5 476/53/5 472/12/5 470/11/5
f 428/53/5 424/12/5 422/11/5 426/54/5
f 482/54/5 484/53/5 480/12/5 478/11/5
f 420/53/5 416/12/5 414/11/5 418/54/5
f 490/54/5 492/53/5 488/12/5 486/11/5
f 368/53/5 364/12/5 362/11/5 366/54/5
f 498/54/5 500/53/5 496/12/5 494/11/5
f 532/53/5 528/12/5 526/11/5 530/54/5
f 506/54/5 508/53/5 504/12/5 502/11/5
f 522/54/5 524/53/5 520/12/5 518/11/5
f 514/54/5 516/53/5 512/12/5 510/11/5
f 711/21/5 710/24/5 699/23/5 703/22/5
f 695/21/5 694/24/5 683/23/5 687/22/5
f 726/24/5 715/23/5 719/22/5 727/21/5
f 679/21/5 678/24/5 667/23/5 671/22/5
f 743/21/5 742/24/5 731/23/5 735/22/5
f 662/24/5 651/23/5 655/22/5 663/21/5
f 758/24/5 747/23/5 751/22/5 759/21/5
f 775/21/5 774/24/5 763/23/5 767/22/5
f 445/47/10 446/54/10 448/53/10 447/55/10
f 459/55/15 460/53/15 458/54/15 457/47/15
f 452/53/11 450/54/11 449/47/11 451/55/11
f 453/47/16 454/54/16 456/53/16 455/55/16
f 437/47/2 438/54/2 440/53/2 439/55/2
f 468/53/9 466/54/9 465/47/9 467/55/9
f 444/53/3 442/54/3 441/47/3 443/55/3
f 461/47/12 462/54/12 464/53/12 463/55/12
f 429/47/8 430/54/8 432/53/8 431/55/8
f 476/53/1 474/54/1 473/47/1 475/55/1
f 436/53/13 434/54/13 433/47/13 435/55/13
f 469/47/4 470/54/4 472/53/4 471/55/4
f 421/47/17 422/54/17 424/53/17 423/55/17
f 483/55/7 484/53/7 482/54/7 481/47/7
f 428/53/18 426/54/18 425/47/18 427/55/18
f 477/47/14 478/54/14 480/53/14 479/55/14
f 413/47/7 414/54/7 416/53/7 415/55/7
f 492/53/17 490/54/17 489/47/17 491/55/17
f 419/55/14 420/53/14 418/54/14 417/47/14
f 485/47/18 486/54/18 488/53/18 487/55/18
f 361/47/1 362/54/1 364/53/1 363/55/1
f 499/55/8 500/53/8 498/54/8 497/47/8
f 368/53/4 366/54/4 365/47/4 367/55/4
f 493/47/13 494/54/13 496/53/13 495/55/13
f 527/55/9 525/47/9 526/54/9 528/53/9
f 507/55/2 508/53/2 506/54/2 505/47/2
f 531/55/12 532/53/12 530/54/12 529/47/12
f 503/55/3 501/47/3 502/54/3 504/53/3
f 517/47/15 518/54/15 520/53/15 519/55/15
f 516/53/10 514/54/10 513/47/10 515/55/10
f 524/53/16 522/54/16 521/47/16 523/55/16
f 511/55/11 509/47/11 510/54/11 512/53/11
f 710/17/15 709/20/15 697/19/15 699/18/15
f 711/20/16 703/19/16 701/18/16 712/17/16
f 695/20/2 687/19/2 685/18/2 696/17/2
f 693/20/3 681/19/3 683/18/3 694/17/3
f 725/20/1 713/19/1 715/18/1 726/17/1
f 199/25/5 198/26/5 205/27/5
f 727/20/4 719/19/4 717/18/4 728/17/4
f 680/17/17 679/20/17 671/19/17 669/18/17
f 220/25/5 241/26/5 226/27/5
f 352/25/5 197/26/5 358/27/5
f 677/20/18 665/19/18 667/18/18 678/17/18
f 741/20/17 729/19/17 731/18/17 742/17/17
f 743/20/18 735/19/18 733/18/18 744/17/18
f 663/20/1 655/19/1 653/18/1 664/17/1
f 243/25/5 242/26/5 249/27/5
f 661/20/4 649/19/4 651/18/4 662/17/4
f 330/25/5 351/26/5 336/27/5
f 758/17/2 757/20/2 745/19/2 747/18/2
f 759/20/3 751/19/3 749/18/3 760/17/3
f 775/20/15 767/19/15 765/18/15 776/17/15
f 773/20/16 761/19/16 763/18/16 774/17/16
f 264/25/5 286/26/5 270/27/5
f 307/25/5 329/26/5 313/27/5
f 288/25/5 287/26/5 294/27/5
f 197/28/5 199/25/5 205/27/5 202/29/5
f 198/28/5 220/25/5 226/27/5 223/29/5
f 351/28/5 352/25/5 358/27/5 355/29/5
f 241/28/5 243/25/5 249/27/5 246/29/5
f 329/28/5 330/25/5 336/27/5 333/29/5
f 242/28/5 264/25/5 270/27/5 267/29/5
f 287/28/5 307/25/5 313/27/5 310/29/5
f 286/28/5 288/25/5 294/27/5 291/29/5
f 202/30/5 205/31/5 206/32/5 203/33/5
f 223/30/5 226/31/5 227/32/5 224/33/5
f 355/30/5 358/31/5 359/32/5 356/33/5
f 246/30/5 249/31/5 250/32/5 247/33/5
f 333/30/5 336/31/5 337/32/5 334/33/5
f 267/30/5 270/31/5 271/32/5 268/33/5
f 310/30/5 313/31/5 314/32/5 311/33/5
f 291/30/5 294/31/5 295/32/5 292/33/5
f 712/15/6 701/14/6 697/13/6 709/16/6
f 696/15/6 685/14/6 681/13/6 693/16/6
f 728/15/6 717/14/6 713/13/6 725/16/6
f 187/25/6 193/27/6 186/26/6
f 680/15/6 669/14/6 665/13/6 677/16/6
f 210/25/6 216/27/6 230/26/6
f 341/25/6 347/27/6 185/26/6
f 744/15/6 733/14/6 729/13/6 741/16/6
f 664/15/6 653/14/6 649/13/6 661/16/6
f 231/25/6 237/27/6 253/26/6
f 318/25/6 324/27/6 340/26/6
f 760/15/6 749/14/6 745/13/6 757/16/6
f 776/15/6 765/14/6 761/13/6 773/16/6
f 255/25/6 261/27/6 254/26/6
f 298/25/6 304/27/6 317/26/6
f 275/25/6 281/27/6 274/26/6
f 185/28/6 190/29/6 193/27/6 187/25/6
f 186/28/6 213/29/6 216/27/6 210/25/6
f 340/28/6 344/29/6 347/27/6 341/25/6
f 230/28/6 234/29/6 237/27/6 231/25/6
f 198/26/5 196/34/5 206/35/5 205/27/5
f 196/36/5 198/28/5 223/29/5 224/37/5
f 350/36/5 197/28/5 202/29/5 203/37/5
f 197/26/5 350/34/5 359/35/5 358/27/5
f 317/28/6 321/29/6 324/27/6 318/25/6
f 241/26/5 219/34/5 227/35/5 226/27/5
f 253/28/6 258/29/6 261/27/6 255/25/6
f 219/36/5 241/28/5 246/29/5 247/37/5
f 328/36/5 351/28/5 355/29/5 356/37/5
f 274/28/6 301/29/6 304/27/6 298/25/6
f 254/28/6 278/29/6 281/27/6 275/25/6
f 351/26/5 328/34/5 337/35/5 336/27/5
f 242/26/5 240/34/5 250/35/5 249/27/5
f 240/36/5 242/28/5 267/29/5 268/37/5
f 327/36/5 329/28/5 333/29/5 334/37/5
f 329/26/5 327/34/5 314/35/5 313/27/5
f 286/26/5 284/34/5 271/35/5 270/27/5
f 284/36/5 286/28/5 291/29/5 292/37/5
f 285/36/5 287/28/5 310/29/5 311/37/5
f 287/26/5 285/34/5 295/35/5 294/27/5
f 194/32/6 193/31/6 190/30/6 191/33/6
f 217/32/6 216/31/6 213/30/6 214/33/6
f 348/32/6 347/31/6 344/30/6 345/33/6
f 238/32/6 237/31/6 234/30/6 235/33/6
f 325/32/6 324/31/6 321/30/6 322/33/6
f 262/32/6 261/31/6 258/30/6 259/33/6
f 305/32/6 304/31/6 301/30/6 302/33/6
f 282/32/6 281/31/6 278/30/6 279/33/6
f 707/49/5 706/50/5 710/24/5 711/21/5
f 691/49/5 690/50/5 694/24/5 695/21/5
f 723/49/5 722/50/5 726/24/5 727/21/5
f 675/49/5 674/50/5 678/24/5 679/21/5
f 739/49/5 738/50/5 742/24/5 743/21/5
f 658/50/5 662/24/5 663/21/5 659/49/5
f 755/49/5 754/50/5 758/24/5 759/21/5
f 771/49/5 770/50/5 774/24/5 775/21/5
f 194/35/6 208/34/6 186/26/6 193/27/6
f 208/36/6 214/37/6 213/29/6 186/28/6
f 339/36/6 191/37/6 190/29/6 185/28/6
f 348/35/6 339/34/6 185/26/6 347/27/6
f 217/35/6 209/34/6 230/26/6 216/27/6
f 209/36/6 235/37/6 234/29/6 230/28/6
f 316/36/6 345/37/6 344/29/6 340/28/6
f 325/35/6 316/34/6 340/26/6 324/27/6
f 238/35/6 229/34/6 253/26/6 237/27/6
f 229/36/6 259/37/6 258/29/6 253/28/6
f 297/36/6 322/37/6 321/29/6 317/28/6
f 305/35/6 297/34/6 317/26/6 304/27/6
f 262/35/6 252/34/6 254/26/6 261/27/6
f 196/34/5 200/38/5 207/39/5 206/35/5
f 252/36/6 279/37/6 278/29/6 254/28/6
f 273/36/6 302/37/6 301/29/6 274/28/6
f 201/40/5 350/36/5 203/37/5 204/41/5
f 282/35/6 273/34/6 274/26/6 281/27/6
f 222/40/5 196/36/5 224/37/5 225/41/5
f 219/34/5 221/38/5 228/39/5 227/35/5
f 350/34/5 353/38/5 360/39/5 359/35/5
f 354/40/5 328/36/5 356/37/5 357/41/5
f 245/40/5 219/36/5 247/37/5 248/41/5
f 240/34/5 244/38/5 251/39/5 250/35/5
f 328/34/5 331/38/5 338/39/5 337/35/5
f 332/40/5 327/36/5 334/37/5 335/41/5
f 266/40/5 240/36/5 268/37/5 269/41/5
f 284/34/5 265/38/5 272/39/5 271/35/5
f 327/34/5 308/38/5 315/39/5 314/35/5
f 309/40/5 285/36/5 311/37/5 312/41/5
f 290/40/5 284/36/5 292/37/5 293/41/5
f 285/34/5 289/38/5 296/39/5 295/35/5
f 204/46/5 207/47/5 200/10/5 201/48/5
f 225/46/5 228/47/5 221/10/5 222/48/5
f 357/46/5 360/47/5 353/10/5 354/48/5
f 248/46/5 251/47/5 244/10/5 245/48/5
f 335/46/5 338/47/5 331/10/5 332/48/5
f 269/46/5 272/47/5 265/10/5 266/48/5
f 312/46/5 315/47/5 308/10/5 309/48/5
f 293/46/5 296/47/5 289/10/5 290/48/5
f 705/23/15 709/20/15 710/17/15 706/22/15
f 707/23/16 711/20/16 712/17/16 708/22/16
f 692/22/2 691/23/2 695/20/2 696/17/2
f 689/23/3 693/20/3 694/17/3 690/22/3
f 721/23/1 725/20/1 726/17/1 722/22/1
f 723/23/4 727/20/4 728/17/4 724/22/4
f 676/22/17 675/23/17 679/20/17 680/17/17
f 673/23/18 677/20/18 678/17/18 674/22/18
f 737/23/17 741/20/17 742/17/17 738/22/17
f 739/23/18 743/20/18 744/17/18 740/22/18
f 660/22/1 659/23/1 663/20/1 664/17/1
f 657/23/4 661/20/4 662/17/4 658/22/4
f 753/23/2 757/20/2 758/17/2 754/22/2
f 755/23/3 759/20/3 760/17/3 756/22/3
f 771/23/15 775/20/15 776/17/15 772/22/15
f 770/22/16 769/23/16 773/20/16 774/17/16
f 195/39/6 188/38/6 208/34/6 194/35/6
f 189/40/6 192/41/6 191/37/6 339/36/6
f 212/40/6 215/41/6 214/37/6 208/36/6
f 218/39/6 211/38/6 209/34/6 217/35/6
f 349/39/6 342/38/6 339/34/6 348/35/6
f 343/40/6 346/41/6 345/37/6 316/36/6
f 449/47/6 445/56/6 447/57/6 451/55/6
f 457/47/6 453/56/6 455/57/6 459/55/6
f 233/40/6 236/41/6 235/37/6 209/36/6
f 441/47/6 437/56/6 439/57/6 443/55/6
f 467/55/6 465/47/6 461/56/6 463/57/6
f 239/39/6 232/38/6 229/34/6 238/35/6
f 188/47/7 189/46/7 201/48/7 200/10/7
f 326/39/6 319/38/6 316/34/6 325/35/6
f 433/47/6 429/56/6 431/57/6 435/55/6
f 473/47/6 469/56/6 471/57/6 475/55/6
f 211/47/8 212/46/8 222/48/8 221/10/8
f 320/40/6 323/41/6 322/37/6 297/36/6
f 342/47/9 343/46/9 354/48/9 353/10/9
f 257/40/6 260/41/6 259/37/6 229/36/6
f 425/47/6 421/56/6 423/57/6 427/55/6
f 483/55/6 481/47/6 477/56/6 479/57/6
f 263/39/6 256/38/6 252/34/6 262/35/6
f 306/39/6 299/38/6 297/34/6 305/35/6
f 232/47/10 233/46/10 245/48/10 244/10/10
f 300/40/6 303/41/6 302/37/6 273/36/6
f 417/47/6 413/56/6 415/57/6 419/55/6
f 491/55/6 489/47/6 485/56/6 487/57/6
f 277/40/6 280/41/6 279/37/6 252/36/6
f 283/39/6 276/38/6 273/34/6 282/35/6
f 188/10/6 195/47/6 192/46/6 189/48/6
f 211/10/6 218/47/6 215/46/6 212/48/6
f 319/47/11 320/46/11 332/48/11 331/10/11
f 365/47/6 361/56/6 363/57/6 367/55/6
f 499/55/6 497/47/6 493/56/6 495/57/6
f 342/10/6 349/47/6 346/46/6 343/48/6
f 529/47/6 525/56/6 527/57/6 531/55/6
f 505/47/6 501/56/6 503/57/6 507/55/6
f 256/47/12 257/46/12 266/48/12 265/10/12
f 523/55/6 521/47/6 517/56/6 519/57/6
f 513/47/6 509/56/6 511/57/6 515/55/6
f 232/10/6 239/47/6 236/46/6 233/48/6
f 299/47/13 300/46/13 309/48/13 308/10/13
f 276/47/14 277/46/14 290/48/14 289/10/14
f 319/10/6 326/47/6 323/46/6 320/48/6
f 256/10/6 263/47/6 260/46/6 257/48/6
f 299/10/6 306/47/6 303/46/6 300/48/6
f 276/10/6 283/47/6 280/46/6 277/48/6
f 450/54/7 446/7/7 445/58/7 449/47/7
f 458/54/17 454/7/17 453/58/17 457/47/17
f 442/54/1 438/7/1 437/58/1 441/47/1
f 466/54/8 462/7/8 461/58/8 465/47/8
f 434/54/9 430/7/9 429/58/9 433/47/9
f 474/54/2 470/7/2 469/58/2 473/47/2
f 196/34/7 208/51/7 188/39/7 200/38/7
f 222/40/8 212/41/8 208/52/8 196/36/8
f 201/40/7 189/41/7 339/52/7 350/36/7
f 350/34/9 339/51/9 342/39/9 353/38/9
f 219/34/8 209/51/8 211/39/8 221/38/8
f 426/54/15 422/7/15 421/58/15 425/47/15
f 482/54/10 478/7/10 477/58/10 481/47/10
f 245/40/10 233/41/10 209/52/10 219/36/10
f 354/40/9 343/41/9 316/52/9 328/36/9
f 418/54/11 414/7/11 413/58/11 417/47/11
f 328/34/11 316/51/11 319/39/11 331/38/11
f 489/47/16 490/54/16 486/7/16 485/58/16
f 240/34/10 229/51/10 232/39/10 244/38/10
f 266/40/12 257/41/12 229/52/12 240/36/12
f 332/40/11 320/41/11 297/52/11 327/36/11
f 366/54/3 362/7/3 361/58/3 365/47/3
f 497/47/12 498/54/12 494/7/12 493/58/12
f 297/51/13 299/39/13 308/38/13 327/34/13
f 252/51/12 256/39/12 265/38/12 284/34/12
f 530/54/13 526/7/13 525/58/13 529/47/13
f 506/54/4 502/7/4 501/58/4 505/47/4
f 290/40/14 277/41/14 252/52/14 284/36/14
f 309/40/13 300/41/13 273/52/13 285/36/13
f 522/54/18 518/7/18 517/58/18 521/47/18
f 514/54/14 510/7/14 509/58/14 513/47/14
f 285/34/14 273/51/14 276/39/14 289/38/14
f 705/42/6 708/45/6 712/44/6 709/43/6
f 689/42/6 692/45/6 696/44/6 693/43/6
f 721/42/6 724/45/6 728/44/6 725/43/6
f 673/42/6 676/45/6 680/44/6 677/43/6
f 737/42/6 740/45/6 744/44/6 741/43/6
f 660/45/6 664/44/6 661/43/6 657/42/6
f 753/42/6 756/45/6 760/44/6 757/43/6
f 772/45/6 776/44/6 773/43/6 769/42/6
usemtl waterwheel_metal
f 16/59/5 19/60/5 20/61/5 17/62/5
f 37/59/5 40/60/5 41/61/5 38/62/5
f 167/59/5 170/60/5 171/61/5 168/62/5
f 60/59/5 63/60/5 64/61/5 61/62/5
f 146/59/5 149/60/5 150/61/5 147/62/5
f 81/59/5 84/60/5 85/61/5 82/62/5
f 124/59/5 127/60/5 128/61/5 125/62/5
f 103/59/5 106/60/5 107/61/5 104/62/5
f 30/61/6 29/60/6 26/59/6 27/62/6
f 53/61/6 52/60/6 49/59/6 50/62/6
f 184/61/6 183/60/6 180/59/6 181/62/6
f 74/61/6 73/60/6 70/59/6 71/62/6
f 160/61/6 159/60/6 156/59/6 157/62/6
f 96/61/6 95/60/6 92/59/6 93/62/6
f 139/61/6 138/60/6 135/59/6 136/62/6
f 118/61/6 117/60/6 114/59/6 115/62/6
f 577/63/5 580/14/5 574/64/5 570/65/5
f 561/63/5 564/14/5 558/64/5 554/65/5
f 593/63/5 596/14/5 590/64/5 586/65/5
f 545/63/5 548/14/5 542/64/5 538/65/5
f 609/63/5 612/14/5 606/64/5 602/65/5
f 377/63/5 380/14/5 374/64/5 370/65/5
f 625/63/5 628/14/5 622/64/5 618/65/5
f 641/63/5 644/14/5 638/64/5 634/65/5
f 578/14/15 577/63/15 570/65/15 572/64/15
f 574/65/16 580/63/16 579/14/16 576/64/16
f 558/65/2 564/63/2 563/14/2 560/64/2
f 562/14/3 561/63/3 554/65/3 556/64/3
f 594/14/1 593/63/1 586/65/1 588/64/1
f 590/65/4 596/63/4 595/14/4 592/64/4
f 542/65/17 548/63/17 547/14/17 544/64/17
f 546/14/18 545/63/18 538/65/18 540/64/18
f 610/14/17 609/63/17 602/65/17 604/64/17
f 606/65/18 612/63/18 611/14/18 608/64/18
f 374/65/1 380/63/1 379/14/1 376/64/1
f 378/14/4 377/63/4 370/65/4 372/64/4
f 620/64/2 626/14/2 625/63/2 618/65/2
f 622/65/3 628/63/3 627/14/3 624/64/3
f 638/65/15 644/63/15 643/14/15 640/64/15
f 642/14/16 641/63/16 634/65/16 636/64/16
f 579/63/6 578/14/6 572/64/6 576/65/6
f 560/65/6 563/63/6 562/14/6 556/64/6
f 592/65/6 595/63/6 594/14/6 588/64/6
f 547/63/6 546/14/6 540/64/6 544/65/6
f 611/63/6 610/14/6 604/64/6 608/65/6
f 376/65/6 379/63/6 378/14/6 372/64/6
f 627/63/6 626/14/6 620/64/6 624/65/6
f 643/63/6 642/14/6 636/64/6 640/65/6
f 570/62/17 574/18/17 576/66/17 572/67/17
f 558/18/1 560/66/1 556/67/1 554/62/1
f 590/18/2 592/66/2 588/67/2 586/62/2
f 538/62/15 542/18/15 544/66/15 540/67/15
f 602/62/16 606/18/16 608/66/16 604/67/16
f 374/18/3 376/66/3 372/67/3 370/62/3
f 618/62/4 622/18/4 624/66/4 620/67/4
f 634/62/18 638/18/18 640/66/18 636/67/18
f 203/59/5 206/60/5 207/61/5 204/62/5
f 224/59/5 227/60/5 228/61/5 225/62/5
f 356/59/5 359/60/5 360/61/5 357/62/5
f 247/59/5 250/60/5 251/61/5 248/62/5
f 334/59/5 337/60/5 338/61/5 335/62/5
f 268/59/5 271/60/5 272/61/5 269/62/5
f 311/59/5 314/60/5 315/61/5 312/62/5
f 292/59/5 295/60/5 296/61/5 293/62/5
f 195/61/6 194/60/6 191/59/6 192/62/6
f 218/61/6 217/60/6 214/59/6 215/62/6
f 349/61/6 348/60/6 345/59/6 346/62/6
f 239/61/6 238/60/6 235/59/6 236/62/6
f 326/61/6 325/60/6 322/59/6 323/62/6
f 263/61/6 262/60/6 259/59/6 260/62/6
f 306/61/6 305/60/6 302/59/6 303/62/6
f 283/61/6 282/60/6 279/59/6 280/62/6
f 700/64/5 706/14/5 707/63/5 704/65/5
f 688/65/5 684/64/5 690/14/5 691/63/5
f 720/65/5 716/64/5 722/14/5 723/63/5
f 668/64/5 674/14/5 675/63/5 672/65/5
f 732/64/5 738/14/5 739/63/5 736/65/5
f 656/65/5 652/64/5 658/14/5 659/63/5
f 748/64/5 754/14/5 755/63/5 752/65/5
f 764/64/5 770/14/5 771/63/5 768/65/5
f 698/65/15 705/63/15 706/14/15 700/64/15
f 702/65/16 704/64/16 707/14/16 708/63/16
f 686/65/2 688/64/2 691/14/2 692/63/2
f 682/65/3 689/63/3 690/14/3 684/64/3
f 714/65/1 721/63/1 722/14/1 716/64/1
f 718/65/4 720/64/4 723/14/4 724/63/4
f 670/65/17 672/64/17 675/14/17 676/63/17
f 666/65/18 673/63/18 674/14/18 668/64/18
f 730/65/17 737/63/17 738/14/17 732/64/17
f 734/65/18 736/64/18 739/14/18 740/63/18
f 654/65/1 656/64/1 659/14/1 660/63/1
f 650/65/4 657/63/4 658/14/4 652/64/4
f 748/64/2 746/65/2 753/63/2 754/14/2
f 750/65/3 752/64/3 755/14/3 756/63/3
f 766/65/15 768/64/15 771/14/15 772/63/15
f 764/64/16 762/65/16 769/63/16 770/14/16
f 698/62/17 700/67/17 704/66/17 702/18/17
f 702/64/6 708/14/6 705/63/6 698/65/6
f 684/67/1 688/66/1 686/18/1 682/62/1
f 686/64/6 692/14/6 689/63/6 682/65/6
f 716/67/2 720/66/2 718/18/2 714/62/2
f 718/64/6 724/14/6 721/63/6 714/65/6
f 666/62/15 668/67/15 672/66/15 670/18/15
f 670/64/6 676/14/6 673/63/6 666/65/6
f 734/64/6 740/14/6 737/63/6 730/65/6
f 730/62/16 732/67/16 736/66/16 734/18/16
f 654/64/6 660/14/6 657/63/6 650/65/6
f 652/67/3 656/66/3 654/18/3 650/62/3
f 750/64/6 756/14/6 753/63/6 746/65/6
f 746/62/4 748/67/4 752/66/4 750/18/4
f 766/64/6 772/14/6 769/63/6 762/65/6
f 762/62/18 764/67/18 768/66/18 766/18/18
