# Blender 5.1.0
# www.blender.org
mtllib conveyor_casing.mtl
o Cube.002
v 0.965990 0.875000 -0.625000
v 0.965990 0.125000 -0.625000
v 0.034010 0.875000 -0.624999
v 0.034010 0.125000 -0.624999
v 0.000000 0.875000 -0.000000
v 0.062500 0.875000 -0.000000
v 0.937500 0.875000 -0.000000
v 1.000000 0.875000 -0.000000
v 0.062500 0.875000 -0.556218
v 0.937500 0.875000 -0.556218
v 1.625000 0.875000 0.965990
v 1.625000 0.125000 0.965990
v 1.624999 0.875000 0.034010
v 1.624999 0.125000 0.034010
v 1.000000 0.875000 0.062500
v 1.000000 0.875000 0.937500
v 1.000000 0.875000 1.000000
v 1.556218 0.875000 0.062500
v 1.556218 0.875000 0.937500
v 0.034010 0.875000 1.625000
v 0.034010 0.125000 1.625000
v 0.965990 0.875000 1.624999
v 0.965990 0.125000 1.624999
v 0.937500 0.875000 1.000000
v 0.062500 0.875000 1.000000
v 0.000000 0.875000 1.000000
v 0.937500 0.875000 1.556218
v 0.062500 0.875000 1.556218
v -0.625000 0.875000 0.034010
v -0.625000 0.125000 0.034010
v -0.624999 0.875000 0.965990
v -0.624999 0.125000 0.965990
v 0.000000 0.875000 0.937500
v 0.000000 0.875000 0.062500
v -0.556218 0.875000 0.937500
v -0.556218 0.875000 0.062500
v 0.125000 1.000000 0.875000
v 0.125000 1.000000 0.125000
v 0.875000 1.000000 0.875000
v 0.875000 1.000000 0.125000
v 0.000000 1.000000 1.000000
v 0.000000 1.000000 -0.000000
v 1.000000 1.000000 -0.000000
v 1.000000 1.000000 1.000000
v 0.125000 0.937500 0.875000
v 0.125000 0.937500 0.125000
v 0.875000 0.937500 0.125000
v 0.875000 0.937500 0.875000
v 0.914213 0.125000 1.499999
v -0.500000 0.125000 0.085787
v 1.500000 0.125000 0.914213
v 0.085787 0.125000 1.500000
v -0.499999 0.112500 0.914213
v 0.085787 0.112500 -0.499999
v 1.499999 0.112500 0.085787
v 0.914213 0.112500 1.499999
v -0.500000 0.112500 0.085787
v 0.914213 0.112500 -0.500000
v 1.500000 0.112500 0.914213
v 0.085787 0.112500 1.500000
v 0.250000 0.000000 0.750000
v 0.250000 0.000000 0.250000
v 0.750000 0.000000 0.750000
v 0.750000 0.000000 0.250000
v 0.125000 0.112500 0.125000
v 0.125000 0.000000 0.125000
v 0.125000 0.000000 0.875000
v 0.875000 0.000000 0.125000
v 0.875000 0.000000 0.875000
v 0.250000 0.062500 0.250000
v 0.250000 0.062500 0.750000
v 0.750000 0.062500 0.250000
v 0.750000 0.062500 0.750000
v -0.499999 0.125000 0.914213
v 0.085787 0.125000 -0.499999
v 1.499999 0.125000 0.085787
v 0.914213 0.125000 -0.500000
v 0.655330 0.112500 0.875000
v 0.344670 0.112500 0.875000
v 0.125000 0.112500 0.875000
v 0.875000 0.112500 0.125000
v 0.875000 0.112500 0.875000
v 0.125000 0.112500 0.655330
v 0.125000 0.112500 0.344670
v 0.655330 0.112500 0.125000
v 0.344670 0.112500 0.125000
v 0.875000 0.112500 0.655330
v 0.875000 0.112500 0.344670
vn -0.0000 -1.0000 -0.0000
vn -0.0000 1.0000 -0.0000
vn -0.0000 -0.0000 -1.0000
vn 1.0000 -0.0000 -0.0000
vn -0.0000 -0.0000 1.0000
vn -1.0000 -0.0000 -0.0000
vn 0.7071 -0.0000 -0.7071
vn -0.7071 -0.0000 0.7071
vn -0.7071 -0.0000 -0.7071
vn 0.7071 -0.0000 0.7071
vt 0.017005 0.687500
vt 0.042893 0.625000
vt 0.457107 0.625000
vt 0.482995 0.687500
vt 0.031250 0.965610
vt 0.468750 0.965609
vt 0.482995 1.000000
vt 0.017005 1.000000
vt 0.031250 0.687500
vt 0.468750 0.687500
vt 0.517005 1.000000
vt 0.750000 0.791054
vt 0.982995 1.000000
vt 0.982995 0.750000
vt 0.517005 0.750000
vt 0.517005 0.375000
vt 0.982995 0.375000
vt 0.772097 0.768957
vt 0.968750 0.965610
vt 0.531250 0.965609
vt 0.727903 0.768956
vt 0.000000 0.500000
vt 0.000000 0.000000
vt 0.062500 0.062500
vt 0.062500 0.437500
vt 0.500000 0.000000
vt 0.500000 0.500000
vt 0.437500 0.437500
vt 0.437500 0.062500
vt 0.437500 0.593750
vt 0.062500 0.593750
vt 0.062500 0.562500
vt 0.437500 0.562500
vt 0.500548 0.594068
vt 0.000689 0.594068
vt 0.000689 0.531586
vt 0.031930 0.531586
vt 0.500548 0.594192
vt 0.000689 0.594192
vt 0.000689 0.531710
vt 0.031930 0.531710
vt 0.500548 0.593821
vt 0.000689 0.593821
vt 0.000689 0.531338
vt 0.031930 0.531338
vt 0.469307 0.531338
vt 0.500548 0.531338
vt 0.469307 0.531586
vt 0.500548 0.531586
vt 0.031930 0.531462
vt 0.469307 0.531462
vt 0.500548 0.531462
vt 0.500548 0.593944
vt 0.000000 0.625000
vt 0.000000 0.593750
vt 0.312500 0.603516
vt 0.312500 0.615234
vt 0.312500 0.615234
vt 0.312500 0.603516
vt 0.312500 0.603516
vt 0.937500 0.312500
vt 0.937500 0.062500
vt 0.968750 0.062500
vt 0.968750 0.312500
vt 0.562500 0.062500
vt 0.562500 0.312500
vt 0.500000 0.375000
vt 0.812500 0.062500
vt 0.875000 0.000000
vt 0.812500 0.312500
vt 0.875000 0.375000
vt 0.000012 0.593750
vt 0.033074 0.593750
vt 0.033074 0.625000
vt 0.000012 0.625000
vt 0.000012 0.593750
vt 0.033074 0.593750
vt 0.033074 0.625000
vt 0.000012 0.625000
vt 0.033074 0.625000
vt 0.000012 0.625000
vt 0.000012 0.593750
vt 0.033074 0.593750
vt 0.033075 0.625000
vt 0.000013 0.625000
vt 0.000012 0.625000
vt 0.033074 0.593750
vt 0.033074 0.625000
vt 0.000013 0.625000
vt 0.000012 0.593750
vt 0.469307 0.531709
vt 0.500548 0.531709
vt 0.000689 0.593944
vt 0.000689 0.531462
vt 0.234835 0.609375
vt 0.312500 0.615234
vt 0.234746 0.609348
vt 0.033074 0.593750
vt 0.033074 0.625000
vt 0.000012 0.625000
vt 0.033075 0.625000
vt 0.000012 0.593750
vt 0.232783 0.608751
vt 0.312505 0.603516
vt 0.312500 0.603516
vt 0.234107 0.609596
vt 0.312500 0.615234
vt 0.931250 0.265165
vt 0.931250 0.375000
vt 0.931250 0.000000
vt 0.931250 0.109835
vt 0.931250 0.265165
vt 0.931250 0.000000
vt 0.931250 0.109835
vt 0.931250 0.265165
vt 0.931250 0.375000
vt 0.931250 0.109835
vt 0.931250 0.109835
s 0
usemtl casing
f 4/1/1 75/2/1 50/3/1 30/4/1
f 9/5/2 10/6/2 1/7/2 3/8/2
f 9/5/2 6/9/2 7/10/2 10/6/2
f 11/11/2 17/12/2 22/13/2
f 3/14/3 1/15/3 2/16/3 4/17/3
f 14/1/1 76/2/1 77/3/1 2/4/1
f 18/5/2 15/9/2 16/10/2 19/6/2
f 18/5/2 19/6/2 11/7/2 13/8/2
f 13/13/2 8/12/2 15/18/2 18/19/2
f 13/14/4 11/15/4 12/16/4 14/17/4
f 27/5/2 28/6/2 20/7/2 22/8/2
f 22/14/5 20/15/5 21/16/5 23/17/5
f 32/1/1 74/2/1 52/3/1 21/4/1
f 26/12/2 33/18/2 35/19/2 31/13/2
f 26/12/2 20/11/2 28/20/2 25/21/2
f 35/5/2 36/6/2 29/7/2 31/8/2
f 35/5/2 33/9/2 34/10/2 36/6/2
f 31/14/6 29/15/6 30/16/6 32/17/6
f 3/13/2 5/12/2 6/18/2 9/19/2
f 5/12/2 29/11/2 36/20/2 34/21/2
f 42/22/2 41/23/2 37/24/2 38/25/2
f 44/26/2 43/27/2 40/28/2 39/29/2
f 37/24/2 41/23/2 44/26/2 39/29/2
f 37/30/3 39/31/3 48/32/3 45/33/3
f 41/34/6 42/35/6 5/36/6 34/37/6
f 42/38/3 43/39/3 8/40/3 7/41/3
f 43/27/2 42/22/2 38/25/2 40/28/2
f 44/42/5 41/43/5 26/44/5 25/45/5
f 47/28/2 46/25/2 45/24/2 48/29/2
f 40/30/5 38/31/5 46/32/5 47/33/5
f 39/30/6 40/31/6 47/32/6 48/33/6
f 38/30/4 37/31/4 45/32/4 46/33/4
f 25/45/5 24/46/5 17/47/5 44/42/5
f 34/37/6 33/48/6 26/49/6 41/34/6
f 2/17/7 1/14/7 13/15/7 14/16/7
f 10/20/2 7/21/2 8/12/2 1/11/2
f 14/4/1 12/1/1 51/2/1 76/3/1
f 16/50/4 15/51/4 8/52/4 43/53/4
f 23/4/1 21/1/1 52/2/1 49/3/1
f 21/17/8 20/14/8 31/15/8 32/16/8
f 32/4/1 30/1/1 50/2/1 74/3/1
f 3/15/9 4/16/9 30/17/9 29/14/9
f 29/11/2 5/12/2 3/13/2
f 31/13/2 20/11/2 26/12/2
f 4/4/1 2/1/1 77/2/1 75/3/1
f 54/54/1 58/55/1 85/56/1 86/57/1
f 55/55/1 59/54/1 87/58/1 88/59/1
f 56/55/1 60/54/1 79/58/1 78/60/1
f 53/55/1 57/54/1 84/58/1 83/60/1
f 63/61/3 61/62/3 71/63/3 73/64/3
f 62/65/1 61/66/1 67/67/1 66/26/1
f 64/68/1 62/65/1 66/26/1 68/69/1
f 63/70/1 64/68/1 68/69/1 69/71/1
f 61/66/1 63/70/1 69/71/1 67/67/1
f 70/65/1 72/68/1 73/70/1 71/66/1
f 62/61/5 64/62/5 72/63/5 70/64/5
f 64/61/6 63/62/6 73/63/6 72/64/6
f 61/61/4 62/62/4 70/63/4 71/64/4
f 50/72/6 57/73/6 53/74/6 74/75/6
f 57/76/9 50/77/9 75/78/9 54/79/9
f 54/80/3 75/81/3 77/82/3 58/83/3
f 58/72/7 77/77/7 76/84/7 55/85/7
f 51/74/4 59/86/4 55/82/4 76/73/4
f 51/87/10 49/88/10 56/89/10 59/90/10
f 1/11/2 8/12/2 13/13/2
f 27/5/2 24/9/2 25/10/2 28/6/2
f 12/17/10 11/14/10 22/15/10 23/16/10
f 23/1/1 49/2/1 51/3/1 12/4/1
f 17/12/2 11/11/2 19/20/2 16/21/2
f 22/13/2 17/12/2 24/18/2 27/19/2
f 7/41/3 6/91/3 5/92/3 42/38/3
f 43/53/4 44/93/4 17/94/4 16/50/4
f 54/54/1 86/57/1 65/95/1 57/55/1
f 53/54/1 83/96/1 80/97/1 60/55/1
f 74/82/8 53/98/8 60/99/8 52/100/8
f 52/101/5 60/81/5 56/82/5 49/73/5
f 59/102/1 82/103/1 87/104/1
f 57/55/1 65/95/1 84/105/1
f 58/54/1 81/106/1 85/107/1
f 67/69/6 84/108/6 65/109/6 66/71/6
f 66/69/3 65/110/3 86/111/3 85/112/3
f 68/69/4 81/113/4 88/114/4 87/115/4
f 69/69/5 79/115/5 80/109/5 67/71/5
f 55/55/1 88/59/1 81/106/1 58/54/1
f 56/54/1 78/96/1 82/103/1 59/102/1
f 60/55/1 80/97/1 79/105/1
f 85/112/3 81/116/3 68/71/3 66/69/3
f 87/115/4 82/116/4 69/71/4 68/69/4
f 79/115/5 69/69/5 82/113/5 78/117/5
f 84/108/6 67/69/6 80/110/6 83/118/6
