# Blender 5.1.0
# www.blender.org
mtllib waterwheel_large.mtl
o waterwheel_large
v 0.375000 0.000000 0.625000
v 0.375000 0.000000 0.375000
v 0.375000 1.000000 0.625000
v 0.375000 1.000000 0.375000
v 0.625000 0.000000 0.375000
v 0.625000 0.000000 0.625000
v 0.625000 1.000000 0.375000
v 0.625000 1.000000 0.625000
v 0.062500 0.937500 0.937500
v 0.062500 0.937500 0.062500
v 0.062500 0.062500 0.937500
v 0.062500 0.062500 0.062500
v 0.937500 0.937500 0.937500
v 0.937500 0.937500 0.062500
v 0.937500 0.062500 0.937500
v 0.937500 0.062500 0.062500
v 0.500000 0.937500 -1.000000
v 1.069544 0.937500 -1.000000
v -0.069544 0.937500 -1.000000
v -0.069544 0.062500 -1.000000
v 0.500000 0.062500 -1.000000
v 1.069544 0.062500 -1.000000
v 1.560660 0.937500 -0.560660
v 1.963388 0.937500 -0.157932
v 1.157932 0.937500 -0.963388
v 1.157932 0.062500 -0.963388
v 1.560660 0.062500 -0.560660
v 1.963388 0.062500 -0.157932
v 2.000000 0.937500 0.500000
v 2.000000 0.937500 1.069544
v 2.000000 0.937500 -0.069543
v 2.000000 0.062500 -0.069543
v 2.000000 0.062500 0.500000
v 2.000000 0.062500 1.069544
v 1.560660 0.937500 1.560660
v 1.157932 0.937500 1.963388
v 1.963388 0.937500 1.157932
v 1.963388 0.062500 1.157932
v 1.560660 0.062500 1.560660
v 1.157932 0.062500 1.963388
v 0.500000 0.937500 2.000000
v -0.069544 0.937500 2.000000
v 1.069543 0.937500 2.000000
v 1.069543 0.062500 2.000000
v 0.500000 0.062500 2.000000
v -0.069544 0.062500 2.000000
v -0.560660 0.937500 1.560660
v -0.963388 0.937500 1.157932
v -0.157932 0.937500 1.963388
v -0.157932 0.062500 1.963388
v -0.560660 0.062500 1.560660
v -0.963388 0.062500 1.157932
v -1.000000 0.937500 0.500000
v -1.000000 0.937500 -0.069544
v -1.000000 0.937500 1.069543
v -1.000000 0.062500 1.069543
v -1.000000 0.062500 0.500000
v -1.000000 0.062500 -0.069544
v -0.560660 0.937500 -0.560660
v -0.157932 0.937500 -0.963388
v -0.963388 0.937500 -0.157932
v -0.963388 0.062500 -0.157932
v -0.560660 0.062500 -0.560660
v -0.157932 0.062500 -0.963388
v 0.187500 0.750000 0.812500
v 0.187500 0.750000 0.187500
v -0.062500 1.000000 0.750000
v -0.062500 1.000000 0.250000
v -0.062500 0.750000 0.250000
v -0.062500 0.750000 0.750000
v 0.187500 0.750000 0.250000
v 0.187500 0.750000 0.750000
v 0.187500 1.000000 0.250000
v 0.187500 1.000000 0.750000
v -0.062500 1.000000 -0.875000
v -0.062500 0.750000 -0.062500
v -0.062500 0.750000 -0.875000
v 0.187500 1.000000 -0.875000
v 0.187500 0.750000 -0.875000
v -0.062500 1.000000 -0.812500
v -0.062500 0.750000 -0.812500
v 0.187500 0.750000 -0.812500
v 0.187500 1.000000 -0.812500
v -0.062500 1.000000 1.812500
v -0.062500 0.750000 1.812500
v -0.062500 0.750000 1.062500
v 0.187500 0.750000 1.062500
v 0.125000 1.000000 1.000000
v 0.187500 1.000000 1.812500
v 0.187500 0.750000 1.812500
v -0.062500 1.000000 1.875000
v -0.062500 0.750000 1.875000
v 0.187500 0.750000 1.875000
v 0.187500 1.000000 1.875000
v 1.875000 1.000000 0.187500
v -0.875000 1.000000 0.187500
v 1.875000 0.750000 0.187500
v -0.875000 0.750000 0.187500
v 1.875000 1.000000 -0.062500
v -0.875000 1.000000 -0.062500
v 1.875000 0.750000 -0.062500
v -0.875000 0.750000 -0.062500
v -0.812500 1.000000 -0.062500
v -0.812500 1.000000 0.187500
v -0.812500 0.750000 0.187500
v -0.812500 0.750000 -0.062500
v 1.812500 1.000000 0.187500
v 1.812500 0.750000 0.187500
v 1.812500 1.000000 -0.062500
v 1.812500 0.750000 -0.062500
v 0.875000 1.000000 0.125000
v 0.875000 1.000000 0.875000
v 0.812500 0.750000 0.187500
v 0.812500 0.750000 0.812500
v 1.062500 1.000000 0.250000
v 1.062500 1.000000 0.750000
v 1.062500 0.750000 0.750000
v 1.062500 0.750000 0.250000
v 0.812500 0.750000 0.750000
v 0.812500 0.750000 0.250000
v 0.812500 1.000000 0.750000
v 0.812500 1.000000 0.250000
v 1.062500 1.000000 1.875000
v 1.062500 0.750000 1.062500
v 1.062500 0.750000 1.875000
v 0.875000 1.000000 1.000000
v 0.812500 1.000000 1.875000
v 0.812500 0.750000 1.062500
v 0.812500 0.750000 1.875000
v 1.062500 1.000000 1.812500
v 1.062500 0.750000 1.812500
v 0.812500 0.750000 1.812500
v 0.812500 1.000000 1.812500
v 1.062501 1.000000 -0.812500
v 1.062501 0.750000 -0.812500
v 0.812500 0.750000 -0.062500
v 0.875000 1.000000 -0.000000
v 0.812501 1.000000 -0.812500
v 0.812501 0.750000 -0.812500
v 1.062501 1.000000 -0.875000
v 1.062501 0.750000 -0.875000
v 0.812501 0.750000 -0.875000
v 0.812501 1.000000 -0.875000
v 0.000000 1.000000 0.875000
v 0.125000 1.000000 0.875000
v 1.000000 1.000000 1.000000
v -0.812500 0.750000 1.062500
v -0.812500 1.000000 1.062500
v -0.812500 0.750000 0.812500
v -0.812500 1.000000 0.812500
v 1.812500 0.750000 1.062500
v 1.812500 0.750000 0.812500
v 1.812500 1.000000 0.812500
v 1.812500 1.000000 1.062500
v 1.875000 0.750000 1.062500
v -0.875000 0.750000 1.062500
v 1.875000 1.000000 1.062500
v -0.875000 1.000000 1.062500
v 1.875000 0.750000 0.812500
v -0.875000 0.750000 0.812500
v 1.875000 1.000000 0.812500
v -0.875000 1.000000 0.812500
v 0.000000 1.000000 -0.000000
v 0.125000 1.000000 -0.000000
v 0.125000 1.000000 0.125000
v 1.062500 0.750000 -0.062500
v 1.000000 1.000000 0.125000
v 0.187500 0.750000 -0.062500
v 1.062500 0.750000 0.187500
v 1.000000 1.000000 -0.000000
v 0.000000 1.000000 0.125000
v -0.062500 0.750000 0.187500
v -0.062500 0.750000 0.812500
v 0.000000 1.000000 1.000000
v 1.000000 1.000000 0.875000
v 1.062500 0.750000 0.812500
v -0.062500 1.000000 0.187500
v 0.187500 1.000000 0.187500
v 0.187500 1.000000 -0.062500
v -0.062500 1.000000 -0.062500
v 1.062500 1.000000 -0.062500
v 1.062500 1.000000 0.187500
v 0.812500 1.000000 0.187500
v 0.812500 1.000000 -0.062500
v -0.062500 1.000000 1.062500
v -0.062500 1.000000 0.812500
v 0.187500 1.000000 0.812500
v 1.062500 1.000000 1.062500
v 1.062500 1.000000 0.812500
v 0.187500 1.000000 1.062500
v 0.812500 1.000000 0.812500
v 0.812500 1.000000 1.062500
v 0.187500 0.250000 0.812500
v 0.187500 0.250000 0.187500
v -0.062500 0.000000 0.750000
v -0.062500 0.000000 0.250000
v -0.062500 0.250000 0.250000
v -0.062500 0.250000 0.750000
v 0.187500 0.250000 0.250000
v 0.187500 0.250000 0.750000
v 0.187500 0.000000 0.250000
v 0.187500 0.000000 0.750000
v -0.062500 -0.000000 -0.875000
v -0.062500 0.250000 -0.062500
v -0.062500 0.250000 -0.875000
v 0.187500 -0.000000 -0.875000
v 0.187500 0.250000 -0.875000
v -0.062500 -0.000000 -0.812500
v -0.062500 0.250000 -0.812500
v 0.187500 0.250000 -0.812500
v 0.187500 -0.000000 -0.812500
v -0.062500 0.000000 1.812500
v -0.062500 0.250000 1.812500
v -0.062500 0.250000 1.062500
v 0.187500 0.250000 1.062500
v 0.125000 0.000000 1.000000
v 0.187500 0.000000 1.812500
v 0.187500 0.250000 1.812500
v -0.062500 0.000000 1.875000
v -0.062500 0.250000 1.875000
v 0.187500 0.250000 1.875000
v 0.187500 0.000000 1.875000
v 1.875000 0.000000 0.187500
v -0.875000 0.000000 0.187500
v 1.875000 0.250000 0.187500
v -0.875000 0.250000 0.187500
v 1.875000 -0.000000 -0.062500
v -0.875000 -0.000000 -0.062500
v 1.875000 0.250000 -0.062500
v -0.875000 0.250000 -0.062500
v -0.812500 -0.000000 -0.062500
v -0.812500 0.000000 0.187500
v -0.812500 0.250000 0.187500
v -0.812500 0.250000 -0.062500
v 1.812500 0.000000 0.187500
v 1.812500 0.250000 0.187500
v 1.812500 -0.000000 -0.062500
v 1.812500 0.250000 -0.062500
v 0.875000 0.000000 0.125000
v 0.875000 0.000000 0.875000
v 0.812500 0.250000 0.187500
v 0.812500 0.250000 0.812500
v 1.062500 0.000000 0.250000
v 1.062500 0.000000 0.750000
v 1.062500 0.250000 0.750000
v 1.062500 0.250000 0.250000
v 0.812500 0.250000 0.750000
v 0.812500 0.250000 0.250000
v 0.812500 0.000000 0.750000
v 0.812500 0.000000 0.250000
v 1.062500 0.000000 1.875000
v 1.062500 0.250000 1.062500
v 1.062500 0.250000 1.875000
v 0.875000 0.000000 1.000000
v 0.812500 0.000000 1.875000
v 0.812500 0.250000 1.062500
v 0.812500 0.250000 1.875000
v 1.062500 0.000000 1.812500
v 1.062500 0.250000 1.812500
v 0.812500 0.250000 1.812500
v 0.812500 0.000000 1.812500
v 1.062501 -0.000000 -0.812500
v 1.062501 0.250000 -0.812500
v 0.812500 0.250000 -0.062500
v 0.875000 0.000000 0.000000
v 0.812501 -0.000000 -0.812500
v 0.812501 0.250000 -0.812500
v 1.062501 -0.000000 -0.875000
v 1.062501 0.250000 -0.875000
v 0.812501 0.250000 -0.875000
v 0.812501 -0.000000 -0.875000
v 0.000000 0.000000 0.875000
v 0.125000 0.000000 0.875000
v 1.000000 0.000000 1.000000
v -0.812500 0.250000 1.062500
v -0.812500 0.000000 1.062500
v -0.812500 0.250000 0.812500
v -0.812500 0.000000 0.812500
v 1.812500 0.250000 1.062500
v 1.812500 0.250000 0.812500
v 1.812500 0.000000 0.812500
v 1.812500 0.000000 1.062500
v 1.875000 0.250000 1.062500
v -0.875000 0.250000 1.062500
v 1.875000 0.000000 1.062500
v -0.875000 0.000000 1.062500
v 1.875000 0.250000 0.812500
v -0.875000 0.250000 0.812500
v 1.875000 0.000000 0.812500
v -0.875000 0.000000 0.812500
v 0.000000 0.000000 0.000000
v 0.125000 0.000000 0.000000
v 0.125000 0.000000 0.125000
v 1.062500 0.250000 -0.062500
v 1.000000 0.000000 0.125000
v 0.187500 0.250000 -0.062500
v 1.062500 0.250000 0.187500
v 1.000000 0.000000 0.000000
v 0.000000 0.000000 0.125000
v -0.062500 0.250000 0.187500
v -0.062500 0.250000 0.812500
v 0.000000 0.000000 1.000000
v 1.000000 0.000000 0.875000
v 1.062500 0.250000 0.812500
v -0.062500 0.000000 0.187500
v 0.187500 0.000000 0.187500
v 0.187500 -0.000000 -0.062500
v -0.062500 -0.000000 -0.062500
v 1.062500 -0.000000 -0.062500
v 1.062500 0.000000 0.187500
v 0.812500 0.000000 0.187500
v 0.812500 -0.000000 -0.062500
v -0.062500 0.000000 1.062500
v -0.062500 0.000000 0.812500
v 0.187500 0.000000 0.812500
v 1.062500 0.000000 1.062500
v 1.062500 0.000000 0.812500
v 0.187500 0.000000 1.062500
v 0.812500 0.000000 0.812500
v 0.812500 0.000000 1.062500
v 1.298342 1.093750 -1.672348
v 0.939576 0.906250 -0.806211
v 1.298342 0.906250 -1.672348
v 1.011329 1.093750 -0.979439
v 1.471569 1.093750 -1.600595
v 1.112803 0.906250 -0.734458
v 1.471569 0.906250 -1.600595
v 2.024699 1.093750 -1.157282
v 2.024699 0.906250 -1.157282
v 2.157282 1.093750 -1.024699
v 2.157282 0.906250 -1.024699
v 1.847923 1.093750 -0.980505
v 1.847923 0.906250 -0.980505
v 1.980505 0.906250 -0.847923
v 1.980505 1.093750 -0.847923
v 1.202671 1.093750 -1.441378
v 1.202671 0.906250 -1.441378
v 1.178753 0.906250 -1.383636
v 1.375898 0.906250 -1.369625
v 1.351981 0.906250 -1.311882
v 1.375898 1.093750 -1.369625
v 0.939576 1.093750 -0.806211
v 1.112803 1.093750 -0.734458
v 1.178753 1.093750 -1.383636
v 1.351981 1.093750 -1.311882
v 1.083082 1.093750 -1.152666
v 1.083082 0.906250 -1.152666
v 1.011329 0.906250 -0.979438
v 1.256310 0.906250 -1.080913
v 1.184556 0.906250 -0.907685
v 1.256310 1.093750 -1.080913
v 1.184556 1.093750 -0.907685
v 1.102896 1.093750 -0.873860
v 1.045154 1.093750 -0.897778
v 1.126814 1.093750 -0.931603
v 1.069072 1.093750 -0.955521
v 1.198567 1.093750 -1.104830
v 1.140825 1.093750 -1.128748
v 1.222485 1.093750 -1.162573
v 1.164742 1.093750 -1.186491
v 1.298342 -0.093750 -1.672348
v 0.939576 0.093750 -0.806211
v 1.298342 0.093750 -1.672348
v 1.011329 -0.093750 -0.979439
v 1.471569 -0.093750 -1.600595
v 1.112803 0.093750 -0.734458
v 1.471569 0.093750 -1.600595
v 2.024699 -0.093750 -1.157282
v 2.024699 0.093750 -1.157282
v 2.157282 -0.093750 -1.024699
v 2.157282 0.093750 -1.024699
v 1.847923 -0.093750 -0.980505
v 1.847923 0.093750 -0.980505
v 1.980505 0.093750 -0.847923
v 1.980505 -0.093750 -0.847923
v 1.202671 -0.093750 -1.441378
v 1.202671 0.093750 -1.441378
v 1.178753 0.093750 -1.383636
v 1.375898 0.093750 -1.369625
v 1.351981 0.093750 -1.311882
v 1.375898 -0.093750 -1.369625
v 0.939576 -0.093750 -0.806211
v 1.112803 -0.093750 -0.734458
v 1.178753 -0.093750 -1.383636
v 1.351981 -0.093750 -1.311882
v 1.083082 -0.093750 -1.152666
v 1.083082 0.093750 -1.152666
v 1.011329 0.093750 -0.979438
v 1.256310 0.093750 -1.080913
v 1.184556 0.093750 -0.907685
v 1.256310 -0.093750 -1.080913
v 1.184557 -0.093750 -0.907685
v 1.102896 -0.093750 -0.873860
v 1.045154 -0.093750 -0.897778
v 1.126814 -0.093750 -0.931603
v 1.069072 -0.093750 -0.955521
v 1.198567 -0.093750 -1.104830
v 1.140825 -0.093750 -1.128748
v 1.222485 -0.093750 -1.162573
v 1.164743 -0.093750 -1.186491
v 2.600595 1.093750 -0.471569
v 1.734458 0.906250 -0.112803
v 2.600595 0.906250 -0.471569
v 1.907686 1.093750 -0.184557
v 2.672348 1.093750 -0.298342
v 1.806211 0.906250 0.060424
v 2.672348 0.906250 -0.298342
v 2.750000 1.093750 0.406250
v 2.750000 0.906250 0.406250
v 2.750000 1.093750 0.593750
v 2.750000 0.906250 0.593750
v 2.500000 1.093750 0.406250
v 2.500000 0.906250 0.406250
v 2.500001 0.906250 0.593750
v 2.500001 1.093750 0.593750
v 2.369625 1.093750 -0.375898
v 2.369625 0.906250 -0.375898
v 2.311882 0.906250 -0.351981
v 2.441378 0.906250 -0.202671
v 2.383636 0.906250 -0.178753
v 2.441378 1.093750 -0.202671
v 1.734458 1.093750 -0.112804
v 1.806211 1.093750 0.060424
v 2.311883 1.093750 -0.351981
v 2.383636 1.093750 -0.178753
v 2.080913 1.093750 -0.256310
v 2.080913 0.906250 -0.256310
v 1.907685 0.906250 -0.184557
v 2.152666 0.906250 -0.083082
v 1.979438 0.906250 -0.011329
v 2.152666 1.093750 -0.083082
v 1.979438 1.093750 -0.011329
v 1.897778 1.093750 -0.045154
v 1.873861 1.093750 -0.102897
v 1.955521 1.093750 -0.069072
v 1.931603 1.093750 -0.126814
v 2.128748 1.093750 -0.140825
v 2.104831 1.093750 -0.198567
v 2.186491 1.093750 -0.164742
v 2.162573 1.093750 -0.222485
v 2.600595 -0.093750 -0.471569
v 1.734458 0.093750 -0.112803
v 2.600595 0.093750 -0.471569
v 1.907685 -0.093750 -0.184557
v 2.672348 -0.093750 -0.298342
v 1.806211 0.093750 0.060424
v 2.672348 0.093750 -0.298342
v 2.750000 -0.093750 0.406250
v 2.750000 0.093750 0.406250
v 2.750000 -0.093750 0.593750
v 2.750000 0.093750 0.593750
v 2.500000 -0.093750 0.406250
v 2.500000 0.093750 0.406250
v 2.500001 0.093750 0.593750
v 2.500001 -0.093750 0.593750
v 2.369625 -0.093750 -0.375898
v 2.369625 0.093750 -0.375898
v 2.311882 0.093750 -0.351981
v 2.441378 0.093750 -0.202671
v 2.383636 0.093750 -0.178753
v 2.441378 -0.093750 -0.202671
v 1.734458 -0.093750 -0.112803
v 1.806211 -0.093750 0.060424
v 2.311883 -0.093750 -0.351981
v 2.383636 -0.093750 -0.178753
v 2.080913 -0.093750 -0.256310
v 2.080913 0.093750 -0.256310
v 1.907685 0.093750 -0.184557
v 2.152666 0.093750 -0.083082
v 1.979438 0.093750 -0.011329
v 2.152666 -0.093750 -0.083082
v 1.979438 -0.093750 -0.011329
v 1.897778 -0.093750 -0.045154
v 1.873861 -0.093750 -0.102896
v 1.955521 -0.093750 -0.069072
v 1.931603 -0.093750 -0.126814
v 2.128748 -0.093750 -0.140825
v 2.104831 -0.093750 -0.198567
v 2.186491 -0.093750 -0.164742
v 2.162573 -0.093750 -0.222485
v 2.672348 1.093750 1.298342
v 1.806211 0.906250 0.939576
v 2.672348 0.906250 1.298342
v 1.979439 1.093750 1.011329
v 2.600595 1.093750 1.471569
v 1.734458 0.906250 1.112803
v 2.600595 0.906250 1.471569
v 2.157282 1.093750 2.024699
v 2.157282 0.906250 2.024699
v 2.024699 1.093750 2.157282
v 2.024699 0.906250 2.157282
v 1.980505 1.093750 1.847922
v 1.980505 0.906250 1.847922
v 1.847923 0.906250 1.980505
v 1.847923 1.093750 1.980505
v 2.441378 1.093750 1.202671
v 2.441378 0.906250 1.202671
v 2.383636 0.906250 1.178753
v 2.369625 0.906250 1.375898
v 2.311882 0.906250 1.351980
v 2.369625 1.093750 1.375898
v 1.806211 1.093750 0.939576
v 1.734458 1.093750 1.112803
v 2.383636 1.093750 1.178753
v 2.311882 1.093750 1.351980
v 2.152666 1.093750 1.083082
v 2.152666 0.906250 1.083082
v 1.979438 0.906250 1.011329
v 2.080913 0.906250 1.256310
v 1.907685 0.906250 1.184556
v 2.080913 1.093750 1.256310
v 1.907685 1.093750 1.184556
v 1.873861 1.093750 1.102896
v 1.897779 1.093750 1.045154
v 1.931603 1.093750 1.126814
v 1.955521 1.093750 1.069072
v 2.104831 1.093750 1.198567
v 2.128748 1.093750 1.140825
v 2.162573 1.093750 1.222485
v 2.186491 1.093750 1.164742
v 2.672348 -0.093750 1.298342
v 1.806211 0.093750 0.939576
v 2.672348 0.093750 1.298342
v 1.979438 -0.093750 1.011329
v 2.600595 -0.093750 1.471569
v 1.734458 0.093750 1.112803
v 2.600595 0.093750 1.471569
v 2.157282 -0.093750 2.024699
v 2.157282 0.093750 2.024699
v 2.024699 -0.093750 2.157282
v 2.024699 0.093750 2.157282
v 1.980505 -0.093750 1.847923
v 1.980505 0.093750 1.847923
v 1.847923 0.093750 1.980505
v 1.847923 -0.093750 1.980505
v 2.441378 -0.093750 1.202671
v 2.441378 0.093750 1.202671
v 2.383636 0.093750 1.178753
v 2.369625 0.093750 1.375898
v 2.311882 0.093750 1.351981
v 2.369625 -0.093750 1.375898
v 1.806211 -0.093750 0.939576
v 1.734458 -0.093750 1.112803
v 2.383636 -0.093750 1.178753
v 2.311882 -0.093750 1.351980
v 2.152666 -0.093750 1.083082
v 2.152666 0.093750 1.083082
v 1.979438 0.093750 1.011329
v 2.080913 0.093750 1.256310
v 1.907685 0.093750 1.184556
v 2.080913 -0.093750 1.256310
v 1.907685 -0.093750 1.184556
v 1.873860 -0.093750 1.102896
v 1.897778 -0.093750 1.045154
v 1.931603 -0.093750 1.126814
v 1.955521 -0.093750 1.069072
v 2.104830 -0.093750 1.198567
v 2.128748 -0.093750 1.140825
v 2.162573 -0.093750 1.222485
v 2.186491 -0.093750 1.164742
v 1.471570 1.093750 2.600595
v 1.112804 0.906250 1.734458
v 1.471570 0.906250 2.600595
v 1.184557 1.093750 1.907686
v 1.298342 1.093750 2.672348
v 0.939576 0.906250 1.806211
v 1.298342 0.906250 2.672348
v 0.593750 1.093750 2.750000
v 0.593750 0.906250 2.750000
v 0.406250 1.093750 2.750001
v 0.406250 0.906250 2.750000
v 0.593750 1.093750 2.500000
v 0.593750 0.906250 2.500000
v 0.406250 0.906250 2.500001
v 0.406250 1.093750 2.500001
v 1.375898 1.093750 2.369626
v 1.375898 0.906250 2.369625
v 1.351981 0.906250 2.311882
v 1.202671 0.906250 2.441378
v 1.178753 0.906250 2.383636
v 1.202671 1.093750 2.441378
v 1.112804 1.093750 1.734458
v 0.939576 1.093750 1.806211
v 1.351981 1.093750 2.311883
v 1.178753 1.093750 2.383636
v 1.256310 1.093750 2.080913
v 1.256310 0.906250 2.080913
v 1.184557 0.906250 1.907685
v 1.083082 0.906250 2.152666
v 1.011329 0.906250 1.979438
v 1.083082 1.093750 2.152666
v 1.011329 1.093750 1.979438
v 1.045154 1.093750 1.897778
v 1.102897 1.093750 1.873861
v 1.069072 1.093750 1.955521
v 1.126814 1.093750 1.931603
v 1.140825 1.093750 2.128748
v 1.198567 1.093750 2.104831
v 1.164743 1.093749 2.186491
v 1.222485 1.093750 2.162573
v 1.471569 -0.093750 2.600595
v 1.112803 0.093750 1.734458
v 1.471569 0.093750 2.600595
v 1.184557 -0.093750 1.907686
v 1.298342 -0.093750 2.672348
v 0.939576 0.093750 1.806211
v 1.298342 0.093750 2.672348
v 0.593750 -0.093750 2.750000
v 0.593750 0.093750 2.750000
v 0.406250 -0.093750 2.750000
v 0.406250 0.093750 2.750000
v 0.593750 -0.093750 2.500000
v 0.593750 0.093750 2.500000
v 0.406250 0.093750 2.500000
v 0.406250 -0.093750 2.500000
v 1.375898 -0.093750 2.369625
v 1.375898 0.093750 2.369625
v 1.351981 0.093750 2.311882
v 1.202671 0.093750 2.441378
v 1.178753 0.093750 2.383636
v 1.202671 -0.093750 2.441378
v 1.112803 -0.093750 1.734458
v 0.939576 -0.093750 1.806211
v 1.351981 -0.093750 2.311883
v 1.178753 -0.093750 2.383636
v 1.256310 -0.093750 2.080913
v 1.256310 0.093750 2.080913
v 1.184557 0.093750 1.907685
v 1.083082 0.093750 2.152666
v 1.011329 0.093750 1.979438
v 1.083082 -0.093750 2.152666
v 1.011329 -0.093750 1.979438
v 1.045154 -0.093750 1.897778
v 1.102896 -0.093750 1.873861
v 1.069072 -0.093750 1.955521
v 1.126814 -0.093750 1.931603
v 1.140825 -0.093750 2.128748
v 1.198567 -0.093750 2.104830
v 1.164743 -0.093750 2.186491
v 1.222485 -0.093750 2.162573
v -0.298342 1.093750 2.672348
v 0.060424 0.906250 1.806211
v -0.298342 0.906250 2.672348
v -0.011329 1.093750 1.979439
v -0.471569 1.093750 2.600595
v -0.112803 0.906250 1.734458
v -0.471569 0.906250 2.600595
v -1.024699 1.093750 2.157282
v -1.024699 0.906250 2.157282
v -1.157281 1.093750 2.024700
v -1.157281 0.906250 2.024699
v -0.847922 1.093750 1.980505
v -0.847922 0.906250 1.980505
v -0.980505 0.906250 1.847923
v -0.980505 1.093750 1.847923
v -0.202671 1.093750 2.441379
v -0.202671 0.906250 2.441378
v -0.178753 0.906250 2.383636
v -0.375898 0.906250 2.369625
v -0.351980 0.906250 2.311883
v -0.375898 1.093750 2.369625
v 0.060424 1.093750 1.806211
v -0.112803 1.093750 1.734458
v -0.178753 1.093750 2.383636
v -0.351981 1.093750 2.311883
v -0.083082 1.093750 2.152666
v -0.083082 0.906250 2.152666
v -0.011329 0.906250 1.979439
v -0.256310 0.906250 2.080913
v -0.184556 0.906250 1.907685
v -0.256310 1.093750 2.080913
v -0.184556 1.093750 1.907685
v -0.102896 1.093750 1.873861
v -0.045154 1.093750 1.897779
v -0.126814 1.093750 1.931603
v -0.069072 1.093750 1.955521
v -0.198567 1.093750 2.104831
v -0.140825 1.093750 2.128748
v -0.222485 1.093750 2.162573
v -0.164742 1.093750 2.186491
v -0.298342 -0.093750 2.672348
v 0.060424 0.093750 1.806211
v -0.298342 0.093750 2.672348
v -0.011329 -0.093750 1.979439
v -0.471569 -0.093750 2.600595
v -0.112803 0.093750 1.734458
v -0.471569 0.093750 2.600595
v -1.024699 -0.093750 2.157282
v -1.024699 0.093750 2.157282
v -1.157282 -0.093750 2.024699
v -1.157282 0.093750 2.024699
v -0.847923 -0.093750 1.980505
v -0.847923 0.093750 1.980505
v -0.980505 0.093750 1.847923
v -0.980505 -0.093750 1.847923
v -0.202671 -0.093750 2.441378
v -0.202671 0.093750 2.441378
v -0.178753 0.093750 2.383636
v -0.375898 0.093750 2.369625
v -0.351981 0.093750 2.311882
v -0.375898 -0.093750 2.369625
v 0.060424 -0.093750 1.806211
v -0.112803 -0.093750 1.734458
v -0.178753 -0.093750 2.383636
v -0.351981 -0.093750 2.311882
v -0.083082 -0.093750 2.152666
v -0.083082 0.093750 2.152666
v -0.011329 0.093750 1.979438
v -0.256310 0.093750 2.080913
v -0.184557 0.093750 1.907685
v -0.256310 -0.093750 2.080913
v -0.184557 -0.093750 1.907685
v -0.102896 -0.093750 1.873861
v -0.045154 -0.093750 1.897778
v -0.126814 -0.093750 1.931603
v -0.069072 -0.093750 1.955521
v -0.198567 -0.093750 2.104830
v -0.140825 -0.093750 2.128748
v -0.222485 -0.093750 2.162573
v -0.164742 -0.093750 2.186491
v -1.600595 1.093750 1.471570
v -0.734458 0.906250 1.112804
v -1.600595 0.906250 1.471570
v -0.907685 1.093750 1.184557
v -1.672348 1.093750 1.298342
v -0.806211 0.906250 0.939576
v -1.672348 0.906250 1.298342
v -1.750000 1.093750 0.593750
v -1.750000 0.906250 0.593750
v -1.750000 1.093750 0.406250
v -1.750000 0.906250 0.406250
v -1.500000 1.093750 0.593750
v -1.500000 0.906250 0.593750
v -1.500000 0.906250 0.406250
v -1.500000 1.093750 0.406250
v -1.369625 1.093750 1.375899
v -1.369625 0.906250 1.375899
v -1.311882 0.906250 1.351981
v -1.441378 0.906250 1.202671
v -1.383636 0.906250 1.178754
v -1.441378 1.093750 1.202671
v -0.734458 1.093750 1.112804
v -0.806211 1.093750 0.939576
v -1.311882 1.093750 1.351981
v -1.383636 1.093750 1.178754
v -1.080913 1.093750 1.256310
v -1.080913 0.906250 1.256310
v -0.907685 0.906250 1.184557
v -1.152666 0.906250 1.083083
v -0.979438 0.906250 1.011330
v -1.152666 1.093750 1.083083
v -0.979438 1.093750 1.011330
v -0.897778 1.093750 1.045154
v -0.873861 1.093750 1.102897
v -0.955521 1.093750 1.069072
v -0.931603 1.093750 1.126815
v -1.128748 1.093750 1.140825
v -1.104831 1.093750 1.198568
v -1.186491 1.093750 1.164743
v -1.162573 1.093750 1.222485
v -1.600595 -0.093750 1.471570
v -0.734458 0.093750 1.112804
v -1.600595 0.093750 1.471569
v -0.907685 -0.093750 1.184557
v -1.672348 -0.093750 1.298342
v -0.806211 0.093750 0.939576
v -1.672348 0.093750 1.298342
v -1.750000 -0.093750 0.593750
v -1.750000 0.093750 0.593750
v -1.750000 -0.093750 0.406250
v -1.750001 0.093750 0.406250
v -1.500000 -0.093750 0.593750
v -1.500000 0.093750 0.593750
v -1.500001 0.093750 0.406250
v -1.500001 -0.093750 0.406250
v -1.369625 -0.093750 1.375899
v -1.369625 0.093750 1.375898
v -1.311882 0.093750 1.351981
v -1.441378 0.093750 1.202671
v -1.383636 0.093750 1.178753
v -1.441378 -0.093750 1.202671
v -0.734458 -0.093750 1.112804
v -0.806211 -0.093750 0.939576
v -1.311883 -0.093750 1.351981
v -1.383636 -0.093750 1.178753
v -1.080913 -0.093750 1.256310
v -1.080913 0.093750 1.256310
v -0.907685 0.093750 1.184557
v -1.152666 0.093750 1.083082
v -0.979438 0.093750 1.011329
v -1.152666 -0.093750 1.083082
v -0.979438 -0.093750 1.011329
v -0.897778 -0.093750 1.045154
v -0.873861 -0.093750 1.102897
v -0.955521 -0.093750 1.069072
v -0.931603 -0.093750 1.126814
v -1.128748 -0.093750 1.140825
v -1.104831 -0.093750 1.198568
v -1.186491 -0.093750 1.164743
v -1.162573 -0.093750 1.222485
v -1.672348 1.093750 -0.298341
v -0.806211 0.906250 0.060424
v -1.672348 0.906250 -0.298341
v -0.979439 1.093750 -0.011329
v -1.600595 1.093750 -0.471569
v -0.734458 0.906250 -0.112803
v -1.600595 0.906250 -0.471569
v -1.157282 1.093750 -1.024699
v -1.157282 0.906250 -1.024699
v -1.024700 1.093750 -1.157281
v -1.024700 0.906250 -1.157281
v -0.980505 1.093750 -0.847922
v -0.980505 0.906250 -0.847922
v -0.847923 0.906250 -0.980505
v -0.847923 1.093750 -0.980505
v -1.441378 1.093750 -0.202670
v -1.441379 0.906250 -0.202671
v -1.383636 0.906250 -0.178753
v -1.369625 0.906250 -0.375898
v -1.311883 0.906250 -0.351980
v -1.369625 1.093750 -0.375898
v -0.806211 1.093750 0.060424
v -0.734458 1.093750 -0.112803
v -1.383636 1.093750 -0.178753
v -1.311882 1.093750 -0.351980
v -1.152666 1.093750 -0.083082
v -1.152666 0.906250 -0.083082
v -0.979439 0.906250 -0.011329
v -1.080913 0.906250 -0.256309
v -0.907686 0.906250 -0.184556
v -1.080913 1.093750 -0.256309
v -0.907685 1.093750 -0.184556
v -0.873861 1.093750 -0.102896
v -0.897779 1.093750 -0.045154
v -0.931603 1.093750 -0.126814
v -0.955521 1.093750 -0.069071
v -1.104831 1.093750 -0.198567
v -1.128748 1.093750 -0.140824
v -1.162573 1.093750 -0.222485
v -1.186491 1.093750 -0.164742
v -1.672348 -0.093750 -0.298342
v -0.806211 0.093750 0.060424
v -1.672348 0.093750 -0.298341
v -0.979439 -0.093750 -0.011329
v -1.600595 -0.093750 -0.471569
v -0.734458 0.093750 -0.112803
v -1.600595 0.093750 -0.471569
v -1.157282 -0.093750 -1.024699
v -1.157282 0.093750 -1.024699
v -1.024699 -0.093750 -1.157281
v -1.024699 0.093750 -1.157281
v -0.980505 -0.093750 -0.847922
v -0.980505 0.093750 -0.847922
v -0.847923 0.093750 -0.980505
v -0.847923 -0.093750 -0.980505
v -1.441379 -0.093750 -0.202671
v -1.441378 0.093750 -0.202671
v -1.383636 0.093750 -0.178753
v -1.369625 0.093750 -0.375898
v -1.311882 0.093750 -0.351980
v -1.369625 -0.093750 -0.375898
v -0.806211 -0.093750 0.060424
v -0.734458 -0.093750 -0.112803
v -1.383636 -0.093750 -0.178753
v -1.311883 -0.093750 -0.351980
v -1.152666 -0.093750 -0.083082
v -1.152666 0.093750 -0.083082
v -0.979438 0.093750 -0.011329
v -1.080913 0.093750 -0.256310
v -0.907685 0.093750 -0.184556
v -1.080913 -0.093750 -0.256310
v -0.907685 -0.093750 -0.184556
v -0.873861 -0.093750 -0.102896
v -0.897779 -0.093750 -0.045154
v -0.931603 -0.093750 -0.126814
v -0.955521 -0.093750 -0.069072
v -1.104831 -0.093750 -0.198567
v -1.128748 -0.093750 -0.140825
v -1.162573 -0.093750 -0.222485
v -1.186491 -0.093750 -0.164742
v -0.471570 1.093750 -1.600595
v -0.112804 0.906250 -0.734458
v -0.471570 0.906250 -1.600595
v -0.184557 1.093750 -0.907685
v -0.298343 1.093750 -1.672348
v 0.060423 0.906250 -0.806211
v -0.298343 0.906250 -1.672348
v 0.406249 1.093750 -1.750000
v 0.406249 0.906250 -1.750000
v 0.593749 1.093750 -1.750000
v 0.593749 0.906250 -1.750000
v 0.406249 1.093750 -1.500000
v 0.406249 0.906250 -1.500000
v 0.593749 0.906250 -1.500001
v 0.593749 1.093750 -1.500000
v -0.375899 1.093750 -1.369625
v -0.375899 0.906250 -1.369625
v -0.351981 0.906250 -1.311882
v -0.202672 0.906250 -1.441378
v -0.178754 0.906250 -1.383636
v -0.202672 1.093750 -1.441378
v -0.112804 1.093750 -0.734458
v 0.060423 1.093750 -0.806211
v -0.351981 1.093750 -1.311882
v -0.178754 1.093750 -1.383636
v -0.256310 1.093750 -1.080913
v -0.256310 0.906250 -1.080913
v -0.184557 0.906250 -0.907685
v -0.083083 0.906250 -1.152666
v -0.011330 0.906250 -0.979438
v -0.083083 1.093750 -1.152666
v -0.011330 1.093750 -0.979438
v -0.045154 1.093750 -0.897778
v -0.102897 1.093750 -0.873860
v -0.069072 1.093750 -0.955521
v -0.126815 1.093750 -0.931603
v -0.140825 1.093750 -1.128748
v -0.198568 1.093750 -1.104831
v -0.164743 1.093750 -1.186491
v -0.222486 1.093750 -1.162573
v -0.471570 -0.093750 -1.600595
v -0.112804 0.093750 -0.734458
v -0.471570 0.093750 -1.600595
v -0.184557 -0.093750 -0.907685
v -0.298342 -0.093750 -1.672348
v 0.060424 0.093750 -0.806211
v -0.298342 0.093750 -1.672348
v 0.406250 -0.093750 -1.750000
v 0.406249 0.093750 -1.750000
v 0.593750 -0.093750 -1.750000
v 0.593749 0.093750 -1.750000
v 0.406250 -0.093750 -1.500000
v 0.406250 0.093750 -1.500000
v 0.593749 0.093750 -1.500001
v 0.593750 -0.093750 -1.500001
v -0.375899 -0.093750 -1.369625
v -0.375899 0.093750 -1.369625
v -0.351981 0.093750 -1.311882
v -0.202671 0.093750 -1.441378
v -0.178754 0.093750 -1.383636
v -0.202671 -0.093750 -1.441378
v -0.112804 -0.093750 -0.734458
v 0.060424 -0.093750 -0.806211
v -0.351981 -0.093750 -1.311882
v -0.178754 -0.093750 -1.383636
v -0.256310 -0.093750 -1.080913
v -0.256310 0.093750 -1.080913
v -0.184557 0.093750 -0.907685
v -0.083083 0.093750 -1.152666
v -0.011330 0.093750 -0.979438
v -0.083083 -0.093750 -1.152666
v -0.011330 -0.093750 -0.979438
v -0.045154 -0.093750 -0.897778
v -0.102897 -0.093750 -0.873860
v -0.069072 -0.093750 -0.955521
v -0.126815 -0.093750 -0.931603
v -0.140825 -0.093750 -1.128748
v -0.198568 -0.093750 -1.104831
v -0.164743 -0.093750 -1.186491
v -0.222485 -0.093750 -1.162573
v 1.069544 0.062499 1.875000
v 1.069543 -0.062500 -0.875000
v 1.069544 0.937500 -0.875000
v 1.069544 0.062500 -0.875000
v 1.069544 1.062500 -0.875000
v 1.875000 0.937500 -0.069544
v 1.472272 0.062500 -0.472272
v 1.875000 0.062500 -0.069544
v -0.875000 0.062500 -0.069544
v 1.472272 0.937500 -0.472272
v 2.002602 1.062500 -1.002602
v 2.625000 1.062500 -0.380204
v 1.875000 1.062500 -0.069544
v 1.875000 0.062500 0.500000
v -0.472272 0.062500 -0.472272
v 1.875000 -0.062500 1.069543
v 1.875000 0.937500 1.069544
v 1.875000 0.062500 1.069544
v 1.875000 0.937500 0.500000
v 2.625000 1.062499 1.380204
v 1.875000 1.062500 0.500000
v -1.002602 0.937500 -1.002602
v 1.069544 0.062500 1.875000
v 1.069544 -0.062500 1.875000
v 1.472272 0.062500 1.472272
v -1.625000 0.937500 -0.380204
v 1.472271 0.937500 1.472272
v 1.069544 0.937500 1.875000
v 1.472272 1.062500 1.472272
v 0.500000 0.062500 1.875000
v -0.069544 0.937500 1.875000
v -0.069544 0.062500 1.875000
v -0.069544 0.937499 1.875000
v 0.500000 0.937500 1.875000
v 0.500000 0.937500 1.875000
v 0.500000 1.062500 2.625000
v -0.380204 1.062499 2.625000
v 0.500000 0.937499 2.625000
v -0.472272 0.062500 1.472272
v -0.875000 0.062500 1.069544
v 1.069544 0.937499 1.875000
v 1.472272 0.937500 1.472272
v -0.875000 0.937500 1.069544
v 2.002601 0.937500 2.002602
v -0.472272 0.937500 1.472272
v -1.002601 1.062499 2.002602
v 1.875000 0.937500 1.069544
v -0.875000 0.062500 -0.069543
v 2.625000 0.937500 0.500000
v -0.875000 0.937500 -0.069544
v -0.875000 0.062500 0.500000
v -0.875000 0.937500 0.500000
v -1.624999 1.062500 0.500000
v -1.625000 1.062500 -0.380204
v -0.472272 0.062500 -0.472272
v -0.069544 0.937500 -0.875000
v -0.069544 0.062500 -0.875000
v 1.380204 0.937500 -1.625000
v -0.472272 0.937500 -0.472272
v -0.472272 1.062500 -0.472272
v 1.380204 0.062499 2.625000
v 1.875000 0.062500 1.069544
v 2.625000 0.062500 0.500000
v 1.472272 0.062500 -0.472272
v 2.625000 0.062500 -0.380204
v 1.380204 0.062500 -1.625000
v 0.500000 -0.062500 2.625000
v -0.472272 -0.062500 -0.472272
v 1.380204 -0.062501 2.625000
v 2.625000 -0.062500 0.500000
v 1.875000 -0.062500 -0.069544
v 0.500000 -0.062500 -0.875000
v -0.069543 0.062500 -0.875000
v -0.069544 0.937500 -0.875000
v 0.500000 0.062500 -0.875000
v 1.069544 0.937500 -0.875000
v 1.069544 0.062500 -0.875000
v 0.500000 0.937500 -0.875000
v 0.500000 0.062500 -1.625000
v 0.500000 -0.062500 -1.625000
v 1.380203 -0.062500 -1.625000
v 1.069544 0.937500 -0.875000
v 0.500000 0.062500 -0.875000
v 1.069544 0.062500 -0.875000
v 0.500000 0.937500 -1.625000
v 0.500000 0.937500 -0.875000
v 0.500000 1.062500 -1.625000
v 1.380204 1.062500 -1.625000
v 0.500000 1.062500 -0.875000
v 2.002602 0.062500 -1.002602
v 2.002602 -0.062500 -1.002602
v 2.625000 -0.062500 -0.380204
v 1.472272 -0.062500 -0.472272
v 1.875000 0.937500 -0.069544
v 1.875000 0.062500 -0.069544
v 2.002601 0.937500 -1.002602
v 2.625000 0.937500 -0.380204
v 1.472272 0.937500 -0.472272
v 1.472272 1.062500 -0.472272
v 2.624999 0.062500 1.380204
v 1.875000 0.062500 0.500000
v 2.625000 -0.062500 1.380203
v 1.875000 -0.062500 0.500000
v 2.625000 0.937499 1.380203
v 1.875000 0.937500 0.500000
v 2.625000 1.062500 0.500000
v 1.875000 1.062500 1.069544
v 2.002601 0.062500 2.002601
v 2.002601 -0.062500 2.002601
v 1.472272 -0.062500 1.472271
v 1.472272 0.062500 1.472272
v 1.380204 0.937499 2.625000
v 2.002602 1.062500 2.002602
v 1.380204 1.062499 2.625000
v 1.069544 1.062499 1.875000
v 0.500000 0.062499 2.624999
v -0.380204 0.062499 2.624999
v 0.500000 0.062500 1.875000
v -0.380204 -0.062501 2.624999
v 0.500000 -0.062500 1.875000
v -0.069544 -0.062500 1.875000
v -0.069544 0.062500 1.875000
v -0.380204 0.937499 2.625000
v 0.500000 1.062500 1.875000
v -0.069544 1.062499 1.875000
v -1.002602 0.062500 2.002601
v -1.625000 0.062500 1.380204
v -0.472272 0.062500 1.472272
v -0.875000 0.062500 1.069544
v -1.002602 -0.062501 2.002601
v -1.625000 -0.062500 1.380203
v -0.472272 -0.062500 1.472272
v -0.875000 -0.062500 1.069544
v -0.875000 0.937500 1.069544
v -1.002602 0.937499 2.002602
v -1.625000 0.937499 1.380204
v -0.472272 0.937500 1.472272
v -1.625000 1.062500 1.380204
v -0.472272 1.062500 1.472272
v -0.875000 1.062500 1.069544
v -1.624999 0.062500 0.500000
v -1.625000 0.062500 -0.380203
v -1.624999 -0.062500 0.500000
v -1.625000 -0.062500 -0.380204
v -0.875000 -0.062500 0.500000
v -0.875000 -0.062500 -0.069544
v -0.875000 0.937500 -0.069544
v -0.875000 0.062500 0.500000
v -1.624999 0.937500 0.500000
v -0.875000 0.937500 0.500000
v -0.875000 1.062500 0.500000
v -0.875000 1.062500 -0.069544
v -1.002601 0.062500 -1.002602
v -0.380204 0.062500 -1.624999
v -1.002602 -0.062500 -1.002602
v -0.380204 -0.062500 -1.625000
v -0.069544 -0.062500 -0.875000
v -0.069544 0.937500 -0.875000
v -0.069544 0.062500 -0.875000
v -0.380204 0.937500 -1.625000
v -0.472272 0.937500 -0.472272
v -1.002602 1.062500 -1.002602
v -0.380204 1.062500 -1.625000
v -0.069544 1.062500 -0.875000
v -1.937501 0.968750 0.437500
v -1.000000 0.968750 0.437500
v -1.937500 0.031250 0.437500
v -1.000000 0.031250 0.437500
v -1.937501 0.968750 0.562500
v -1.000000 0.968750 0.562500
v -1.937501 0.031250 0.562500
v -1.000000 0.031250 0.562500
v -1.728039 0.968750 -0.490534
v -0.861902 0.968750 -0.131768
v -1.728039 0.031250 -0.490533
v -0.861901 0.031250 -0.131768
v -1.775875 0.968750 -0.375049
v -0.909737 0.968750 -0.016283
v -1.775875 0.031250 -0.375048
v -0.909737 0.031250 -0.016283
v -1.179379 0.968750 -1.267767
v -0.516466 0.968750 -0.604855
v -1.179379 0.031250 -1.267767
v -0.516466 0.031250 -0.604854
v -1.267767 0.968750 -1.179379
v -0.604854 0.968750 -0.516466
v -1.267768 0.031250 -1.179379
v -0.604854 0.031250 -0.516466
v -0.375048 0.968750 -1.775875
v -0.016282 0.968750 -0.909737
v -0.375048 0.031250 -1.775874
v -0.016282 0.031250 -0.909737
v -0.490533 0.968750 -1.728039
v -0.131768 0.968750 -0.861902
v -0.490534 0.031250 -1.728039
v -0.131768 0.031250 -0.861902
v 0.562500 0.968750 -1.937500
v 0.562500 0.968750 -1.000000
v 0.562500 0.031250 -1.937500
v 0.562500 0.031250 -1.000000
v 0.437500 0.968750 -1.937500
v 0.437500 0.968750 -1.000000
v 0.437500 0.031250 -1.937501
v 0.437500 0.031250 -1.000000
v 1.490534 0.968750 -1.728039
v 1.131768 0.968750 -0.861901
v 1.490534 0.031250 -1.728039
v 1.131768 0.031250 -0.861901
v 1.375049 0.968750 -1.775874
v 1.016283 0.968750 -0.909737
v 1.375049 0.031250 -1.775875
v 1.016283 0.031250 -0.909737
v 2.267767 0.968750 -1.179378
v 1.604855 0.968750 -0.516466
v 2.267767 0.031250 -1.179378
v 1.604854 0.031250 -0.516466
v 2.179379 0.968750 -1.267767
v 1.516466 0.968750 -0.604854
v 2.179379 0.031250 -1.267767
v 1.516466 0.031250 -0.604854
v 2.775874 0.968750 -0.375048
v 1.909737 0.968750 -0.016282
v 2.775874 0.031250 -0.375048
v 1.909737 0.031250 -0.016282
v 2.728039 0.968750 -0.490533
v 1.861902 0.968750 -0.131767
v 2.728039 0.031250 -0.490533
v 1.861902 0.031250 -0.131767
v 2.937500 0.968750 0.562501
v 2.000000 0.968750 0.562501
v 2.937500 0.031250 0.562500
v 2.000000 0.031250 0.562500
v 2.937500 0.968750 0.437501
v 2.000000 0.968750 0.437500
v 2.937500 0.031250 0.437500
v 2.000000 0.031250 0.437500
v 2.728038 0.968750 1.490534
v 1.861901 0.968750 1.131768
v 2.728038 0.031250 1.490534
v 1.861901 0.031250 1.131768
v 2.775874 0.968750 1.375049
v 1.909737 0.968750 1.016283
v 2.775874 0.031250 1.375049
v 1.909737 0.031250 1.016283
v 2.179378 0.968750 2.267767
v 1.516466 0.968750 1.604855
v 2.179378 0.031250 2.267767
v 1.516466 0.031250 1.604855
v 2.267766 0.968750 2.179379
v 1.604854 0.968750 1.516466
v 2.267767 0.031250 2.179379
v 1.604854 0.031250 1.516466
v 1.375048 0.968750 2.775874
v 1.016282 0.968750 1.909737
v 1.375048 0.031250 2.775874
v 1.016282 0.031250 1.909737
v 1.490533 0.968750 2.728039
v 1.131767 0.968750 1.861902
v 1.490533 0.031250 2.728039
v 1.131767 0.031250 1.861902
v 0.437499 0.968750 2.937500
v 0.437499 0.968750 2.000000
v 0.437499 0.031250 2.937500
v 0.437499 0.031250 2.000000
v 0.562499 0.968750 2.937500
v 0.562499 0.968750 2.000000
v 0.562499 0.031250 2.937500
v 0.562499 0.031250 2.000000
v -0.490534 0.968750 2.728038
v -0.131768 0.968750 1.861901
v -0.490534 0.031250 2.728038
v -0.131768 0.031250 1.861901
v -0.375049 0.968750 2.775874
v -0.016283 0.968750 1.909737
v -0.375049 0.031250 2.775874
v -0.016283 0.031250 1.909737
v -1.267768 0.968750 2.179378
v -0.604855 0.968750 1.516465
v -1.267767 0.031250 2.179378
v -0.604855 0.031250 1.516466
v -1.179379 0.968750 2.267766
v -0.516466 0.968750 1.604854
v -1.179379 0.031250 2.267766
v -0.516466 0.031250 1.604854
v -1.775874 0.968750 1.375047
v -0.909737 0.968750 1.016282
v -1.775874 0.031250 1.375047
v -0.909737 0.031250 1.016282
v -1.728039 0.968750 1.490532
v -0.861902 0.968750 1.131767
v -1.728039 0.031250 1.490533
v -0.861902 0.031250 1.131767
vn 1.0000 -0.0000 -0.0000
vn -0.0000 -0.0000 -1.0000
vn -0.0000 -0.0000 1.0000
vn -1.0000 -0.0000 -0.0000
vn -0.0000 1.0000 -0.0000
vn -0.0000 -1.0000 -0.0000
vn -0.7071 -0.0000 0.7071
vn -0.7071 -0.0000 -0.7071
vn 0.7071 -0.0000 0.7071
vn 0.7071 -0.0000 -0.7071
vn -0.9239 -0.0000 0.3827
vn -0.9239 -0.0000 -0.3827
vn -0.3827 -0.0000 0.9239
vn -0.3827 -0.0000 -0.9239
vn 0.3827 -0.0000 0.9239
vn 0.3827 -0.0000 -0.9239
vn 0.9239 -0.0000 0.3827
vn 0.9239 -0.0000 -0.3827
vt 0.375000 1.000000
vt 0.375000 0.000000
vt 0.625000 0.000000
vt 0.625000 1.000000
vt 0.375000 0.375000
vt 0.625000 0.375000
vt 0.625000 0.625000
vt 0.375000 0.625000
vt 0.062500 0.937500
vt 0.062500 0.062500
vt 0.937500 0.062500
vt 0.937500 0.937500
vt 0.000000 0.093750
vt 0.000000 0.968750
vt 0.562500 0.968750
vt 0.562500 0.093750
vt 0.937500 0.500000
vt 0.937500 0.750000
vt 0.437500 0.750000
vt 0.437500 0.500000
vt 0.187500 0.750000
vt 0.812500 0.750000
vt 0.812500 1.000000
vt 0.187500 1.000000
vt 0.437500 0.000000
vt 0.937500 0.000000
vt 0.937500 0.250000
vt 0.437500 0.250000
vt 0.812500 0.562500
vt 0.562500 0.562500
vt 0.562500 0.500000
vt 0.812500 0.500000
vt 0.625000 0.562500
vt 0.375000 0.562500
vt 0.375000 0.500000
vt 0.625000 0.500000
vt 0.187500 0.500000
vt 0.437500 1.000000
vt 0.937500 1.000000
vt 0.187500 0.000000
vt 0.812500 0.000000
vt 0.812500 0.250000
vt 0.187500 0.250000
vt 0.500000 0.562500
vt 0.250000 0.562500
vt 0.250000 0.500000
vt 0.500000 0.500000
vt 0.875000 0.500000
vt 0.875000 0.562500
vt 0.812113 1.000000
vt 0.749710 0.937500
vt 0.624903 0.937500
vt 0.562500 1.000000
vt 0.562500 0.750000
vt 0.624903 0.812500
vt 0.750000 1.000000
vt 0.687500 0.937500
vt 0.562500 0.937500
vt 0.500000 1.000000
vt 0.750000 0.750000
vt 0.687500 0.812500
vt 0.125000 0.250000
vt 0.062500 0.250000
vt 0.062500 0.000000
vt 0.125000 0.000000
vt 0.750000 0.312500
vt 0.125000 0.312500
vt 0.125000 0.062500
vt 0.750000 0.062500
vt 0.062500 0.500000
vt 0.000000 0.500000
vt 0.000000 0.250000
vt 0.437500 0.562500
vt 0.187500 0.562500
vt 0.687500 0.500000
vt 0.687500 0.562500
vt 0.812113 0.500000
vt 0.812113 0.250000
vt 0.562500 0.250000
vt 0.750000 0.500000
vt 0.750000 0.250000
vt 0.500000 0.250000
vt 0.812113 0.750000
vt 0.749710 0.812500
vt 0.562500 0.812500
vt 0.500000 0.750000
vt 0.057468 0.250000
vt 0.057468 0.000000
vt 0.812113 0.000000
vt 0.000000 1.000000
vt 0.000000 0.750000
vt 0.057468 1.000000
vt 0.057468 0.750000
vt 0.057468 0.500000
vt 0.750000 0.000000
vt 0.000000 0.000000
vt 0.750000 0.562500
vt 0.250000 0.062500
vt 0.000000 0.062500
vt 0.000000 -0.000000
vt 0.250000 -0.000000
vt 0.250000 0.812500
vt 0.250000 0.750000
vt 0.500000 0.812500
vt 0.875000 0.375000
vt 0.875000 0.250000
vt 0.312500 0.250000
vt 0.312500 0.375000
vt 0.125000 0.375000
vt 0.687500 0.375000
vt 0.687500 0.250000
vt 1.000000 0.062500
vt 1.000000 -0.000000
vt 0.000000 0.812500
vt 0.500000 0.062500
vt 0.500000 -0.000000
vt 0.375000 0.812500
vt 0.500000 0.875000
vt 0.500000 0.937500
vt 0.750000 0.812500
vt 1.000000 0.750000
vt 1.000000 0.812500
vt 0.375000 0.187500
vt 0.562500 0.187500
vt 0.562500 0.000000
vt 0.375000 0.312500
vt 0.562500 0.312500
vt 0.562500 0.875000
vt 0.750000 0.187500
vt 0.312500 0.937500
vt 0.250000 0.937500
vt 0.312500 0.750000
vt 0.750000 0.875000
vt 0.750000 0.937500
vt 0.875000 1.000000
vt 0.125000 1.000000
vt 1.000000 1.000000
vt 0.812500 0.875000
vt 0.812500 0.937500
vt 1.000000 0.000000
vt 1.000000 0.187500
vt 1.000000 0.312500
vt 1.000000 0.500000
vt 0.062500 0.312500
vt 1.000000 0.437500
vt 0.062500 0.437500
vt 0.062500 1.000000
vt 0.625000 0.312500
vt 0.437500 0.312500
vt 0.625000 0.250000
vt 0.250000 0.312500
vt 0.250000 0.250000
vt 0.812500 0.812500
vt 0.625000 0.812500
vt 0.625000 0.750000
vt 0.000000 0.875000
vt 0.875000 0.875000
vt 0.125000 0.875000
vt 1.000000 0.875000
vt 1.000000 0.625000
vt 0.062500 0.625000
vt 0.062500 0.750000
vt -0.000000 1.000000
vt 0.125000 0.562500
vt 0.062500 0.562500
vt 0.125000 0.500000
vt 0.187500 0.625000
vt 0.187500 0.687500
vt 0.125000 0.687500
vt 0.125000 0.625000
vt -0.000000 0.437500
vt 0.187500 0.437500
vt -0.000000 0.687500
vt 0.000000 0.437500
vt 0.187500 0.875000
s 1
usemtl axis
f 5/1/1 7/2/1 8/3/1 6/4/1
f 2/1/2 4/2/2 7/3/2 5/4/2
f 6/1/3 8/2/3 3/3/3 1/4/3
f 1/1/4 3/2/4 4/3/4 2/4/4
usemtl axis_top
f 8/5/5 7/6/5 4/7/5 3/8/5
f 5/5/6 6/6/6 1/7/6 2/8/6
usemtl waterwheel_stripped_log
f 9/9/5 13/10/5 14/11/5 10/12/5
f 15/9/6 11/10/6 12/11/6 16/12/6
usemtl waterwheel_log
f 13/9/1 15/10/1 16/11/1 14/12/1
f 14/9/2 16/10/2 12/11/2 10/12/2
f 9/9/3 11/10/3 15/11/3 13/12/3
f 11/9/4 9/10/4 10/11/4 12/12/4
f 966/13/4 968/14/4 974/15/4 979/16/4
f 966/16/7 970/13/7 967/14/7 968/15/7
f 977/16/4 979/13/4 974/14/4 978/15/4
f 963/13/7 964/14/7 967/15/7 970/16/7
f 977/13/8 978/14/8 985/15/8 987/16/8
f 1036/16/3 1038/13/3 1035/14/3 1037/15/3
f 983/15/8 988/16/8 987/13/8 985/14/8
f 1034/13/3 1033/14/3 1035/15/3 1038/16/3
f 988/13/2 983/14/2 990/15/2 995/16/2
f 1016/16/9 1019/13/9 1015/14/9 1017/15/9
f 991/16/2 995/13/2 990/14/2 992/15/2
f 1010/13/9 1008/14/9 1015/15/9 1019/16/9
f 991/13/10 992/14/10 999/15/10 1005/16/10
f 1008/15/1 1010/16/1 1012/13/1 1011/14/1
f 1000/15/10 1003/16/10 1005/13/10 999/14/10
f 1003/13/1 1000/14/1 1011/15/1 1012/16/1
f 32/14/1 31/13/1 29/16/1 33/15/1
f 27/14/10 23/13/10 24/16/10 28/15/10
f 29/13/1 30/16/1 34/15/1 33/14/1
f 26/14/10 25/13/10 23/16/10 27/15/10
f 37/13/9 35/16/9 39/15/9 38/14/9
f 21/14/2 17/13/2 18/16/2 22/15/2
f 35/13/9 36/16/9 40/15/9 39/14/9
f 20/14/2 19/13/2 17/16/2 21/15/2
f 44/14/3 43/13/3 41/16/3 45/15/3
f 63/14/8 59/13/8 60/16/8 64/15/8
f 45/14/3 41/13/3 42/16/3 46/15/3
f 62/14/8 61/13/8 59/16/8 63/15/8
f 50/14/7 49/13/7 47/16/7 51/15/7
f 53/13/4 54/16/4 58/15/4 57/14/4
f 51/14/7 47/13/7 48/16/7 52/15/7
f 55/13/4 53/16/4 57/15/4 56/14/4
usemtl waterwheel_plank
f 122/17/4 120/18/4 119/19/4 121/20/4
f 183/21/3 178/22/3 66/23/3 113/24/3
f 187/21/2 191/22/2 114/23/2 65/24/2
f 74/17/1 72/18/1 71/19/1 73/20/1
f 116/25/5 115/26/5 122/27/5 121/28/5
f 183/29/4 113/30/4 120/31/4 122/32/4
f 121/33/4 119/34/4 114/35/4 191/36/4
f 183/21/5 184/37/5 179/32/5 178/22/5
f 187/21/5 190/37/5 192/32/5 191/22/5
f 178/36/1 73/33/1 71/34/1 66/35/1
f 187/29/1 65/30/1 72/31/1 74/32/1
f 67/26/5 74/27/5 73/28/5 68/25/5
f 120/38/6 118/19/6 117/18/6 119/39/6
f 113/40/6 66/41/6 168/42/6 136/43/6
f 182/44/5 183/45/5 122/46/5 115/47/5
f 189/48/5 116/49/5 121/33/5 191/36/5
f 65/40/6 114/41/6 128/42/6 87/43/6
f 72/38/6 70/19/6 69/18/6 71/39/6
f 68/49/5 73/33/5 178/36/5 177/48/5
f 186/44/5 187/45/5 74/46/5 67/47/5
f 182/50/5 167/51/5 111/52/5 183/53/5
f 184/54/5 183/53/5 111/52/5 137/55/5
f 191/56/5 112/57/5 175/58/5 189/59/5
f 192/60/5 126/61/5 112/57/5 191/56/5
f 118/17/1 115/18/1 116/19/1 117/20/1
f 120/62/6 113/63/6 169/64/6 118/65/6
f 179/60/5 164/61/5 165/57/5 178/56/5
f 119/63/6 117/64/6 176/65/6 114/62/6
f 178/56/5 165/57/5 171/58/5 177/59/5
f 187/53/5 145/52/5 88/55/5 190/54/5
f 136/66/2 168/67/2 179/68/2 184/69/2
f 186/50/5 144/51/5 145/52/5 187/53/5
f 87/40/3 128/41/3 192/42/3 190/43/3
f 71/63/6 69/70/6 172/71/6 66/72/6
f 65/63/6 173/70/6 70/71/6 72/72/6
f 69/20/4 70/17/4 67/18/4 68/19/4
f 169/37/1 182/20/1 115/73/1 118/74/1
f 117/20/1 116/75/1 189/76/1 176/73/1
f 166/77/6 169/78/6 113/79/6 136/31/6
f 69/20/4 68/75/4 177/76/4 172/73/4
f 173/37/4 186/20/4 67/73/4 70/74/4
f 128/80/6 114/81/6 176/82/6 124/47/6
f 181/83/5 170/84/5 167/51/5 182/50/5
f 184/54/5 137/55/5 170/84/5 181/83/5
f 168/80/6 66/81/6 172/82/6 76/47/6
f 189/59/5 175/58/5 146/85/5 188/86/5
f 188/86/5 146/85/5 126/61/5 192/60/5
f 173/78/6 65/79/6 87/31/6 86/77/6
f 180/86/5 163/85/5 164/61/5 179/60/5
f 177/59/5 171/58/5 163/85/5 180/86/5
f 185/83/5 190/54/5 88/55/5 174/84/5
f 185/83/5 174/84/5 144/51/5 186/50/5
f 245/18/5 246/19/5 248/38/5 247/39/5
f 296/42/5 194/41/5 241/40/5 264/43/5
f 256/42/5 242/41/5 193/40/5 215/43/5
f 197/18/5 198/19/5 200/38/5 199/39/5
f 248/62/5 246/65/5 297/64/5 241/63/5
f 304/65/5 245/64/5 247/63/5 242/62/5
f 300/71/5 197/70/5 199/63/5 194/72/5
f 198/71/5 301/70/5 193/63/5 200/72/5
f 247/19/4 248/18/4 250/17/4 249/20/4
f 194/23/3 306/22/3 311/21/3 241/24/3
f 242/23/2 319/22/2 315/21/2 193/24/2
f 199/19/1 200/18/1 202/17/1 201/20/1
f 294/77/5 264/31/5 241/79/5 297/78/5
f 248/31/4 241/30/4 311/29/4 250/32/4
f 242/35/4 247/34/4 249/33/4 319/36/4
f 256/80/5 252/47/5 304/82/5 242/81/5
f 194/35/1 199/34/1 201/33/1 306/36/1
f 296/80/5 204/47/5 300/82/5 194/81/5
f 200/31/1 193/30/1 315/29/1 202/32/1
f 169/78/3 108/87/3 107/88/3 182/89/3
f 176/43/2 189/40/2 153/26/2 152/27/2
f 215/31/5 193/79/5 301/78/5 214/77/5
f 138/60/4 139/56/4 136/90/4 184/91/4
f 192/60/4 128/56/4 132/90/4 133/91/4
f 179/60/1 168/56/1 82/90/1 83/91/1
f 89/60/1 90/56/1 87/90/1 190/91/1
f 172/43/3 177/40/3 104/26/3 105/27/3
f 173/78/2 149/87/2 150/88/2 186/89/2
f 107/92/5 109/93/5 181/83/5 182/50/5
f 189/24/5 188/21/5 154/18/5 153/39/5
f 134/80/5 138/60/5 184/91/5 181/71/5
f 244/19/1 243/18/1 246/17/1 245/20/1
f 188/80/5 192/60/5 133/91/5 130/71/5
f 180/80/5 179/60/5 83/91/5 80/71/5
f 307/68/2 296/67/2 264/66/2 312/69/2
f 320/42/3 256/41/3 215/40/3 318/43/3
f 84/80/5 89/60/5 190/91/5 185/71/5
f 108/87/6 169/78/6 166/77/6 110/94/6
f 177/24/5 180/21/5 103/18/5 104/39/5
f 196/19/4 195/18/4 198/17/4 197/20/4
f 124/37/6 176/43/6 152/27/6 151/17/6
f 186/50/5 150/92/5 148/93/5 185/83/5
f 139/95/6 135/81/6 166/72/6 136/96/6
f 132/96/6 128/95/6 124/81/6 131/72/6
f 168/95/6 76/81/6 81/72/6 82/96/6
f 243/73/1 310/20/1 297/37/1 246/74/1
f 317/76/1 244/75/1 245/20/1 304/73/1
f 87/96/6 90/95/6 85/81/6 86/72/6
f 76/37/6 172/43/6 105/27/6 106/17/6
f 147/94/6 149/87/6 173/78/6 86/77/6
f 110/94/2 166/77/2 181/83/2 109/93/2
f 244/25/6 249/28/6 250/27/6 243/26/6
f 305/76/4 196/75/4 197/20/4 300/73/4
f 135/81/1 134/80/1 181/71/1 166/72/1
f 195/73/4 314/20/4 301/37/4 198/74/4
f 154/18/3 188/21/3 124/37/3 151/17/3
f 311/21/6 306/22/6 307/32/6 312/37/6
f 315/21/6 319/22/6 320/32/6 318/37/6
f 124/81/1 188/80/1 130/71/1 131/72/1
f 201/28/6 202/27/6 195/26/6 196/25/6
f 76/81/4 180/80/4 80/71/4 81/72/4
f 180/21/2 76/37/2 106/17/2 103/18/2
f 86/72/4 85/81/4 84/80/4 185/71/4
f 147/94/3 86/77/3 185/83/3 148/93/3
f 250/46/6 311/45/6 310/44/6 243/47/6
f 317/48/6 319/36/6 249/33/6 244/49/6
f 306/36/6 201/33/6 196/49/6 305/48/6
f 202/46/6 315/45/6 314/44/6 195/47/6
f 239/52/6 295/51/6 310/50/6 311/53/6
f 312/54/6 265/55/6 239/52/6 311/53/6
f 303/58/6 240/57/6 319/56/6 317/59/6
f 240/57/6 254/61/6 320/60/6 319/56/6
f 293/57/6 292/61/6 307/60/6 306/56/6
f 299/58/6 293/57/6 306/56/6 305/59/6
f 216/55/6 273/52/6 315/53/6 318/54/6
f 273/52/6 272/51/6 314/50/6 315/53/6
f 295/51/6 298/84/6 309/83/6 310/50/6
f 298/84/6 265/55/6 312/54/6 309/83/6
f 274/85/6 303/58/6 317/59/6 316/86/6
f 320/60/6 254/61/6 274/85/6 316/86/6
f 292/61/6 291/85/6 308/86/6 307/60/6
f 291/85/6 299/58/6 305/59/6 308/86/6
f 313/83/6 302/84/6 216/55/6 318/54/6
f 272/51/6 302/84/6 313/83/6 314/50/6
f 294/77/5 297/78/5 236/87/5 238/94/5
f 280/27/5 304/43/5 252/37/5 279/17/5
f 294/72/5 263/81/5 267/95/5 264/96/5
f 260/96/5 259/72/5 252/81/5 256/95/5
f 209/72/5 204/81/5 296/95/5 210/96/5
f 215/96/5 214/72/5 213/81/5 218/95/5
f 233/27/5 300/43/5 204/37/5 234/17/5
f 275/94/5 214/77/5 301/78/5 277/87/5
f 297/78/3 310/89/3 235/88/3 236/87/3
f 281/26/2 317/40/2 304/43/2 280/27/2
f 264/90/4 267/56/4 266/60/4 312/91/4
f 260/90/4 256/56/4 320/60/4 261/91/4
f 210/90/1 296/56/1 307/60/1 211/91/1
f 215/90/1 218/56/1 217/60/1 318/91/1
f 232/26/3 305/40/3 300/43/3 233/27/3
f 301/78/2 314/89/2 278/88/2 277/87/2
f 422/97/11 402/80/11 406/32/11 423/29/11
f 502/97/12 482/80/12 486/32/12 503/29/12
f 342/97/13 322/80/13 326/32/13 343/29/13
f 97/98/3 95/99/3 107/100/3 108/101/3
f 152/98/2 153/99/2 161/100/2 159/101/2
f 582/97/14 562/80/14 566/32/14 583/29/14
f 138/102/4 143/103/4 142/86/4 139/104/4
f 902/97/15 882/80/15 886/32/15 903/29/15
f 83/103/1 82/86/1 79/104/1 78/102/1
f 662/97/16 642/80/16 646/32/16 663/29/16
f 1065/105/4 981/106/4 973/107/4 1054/108/4
f 133/103/4 132/86/4 129/104/4 127/102/4
f 309/83/2 294/77/2 238/94/2 237/93/2
f 1058/109/7 1054/110/7 973/111/7 1059/62/7
f 1065/109/4 1007/110/4 1067/111/4 981/62/4
f 823/29/17 822/97/17 802/80/17 806/32/17
f 309/71/1 262/80/1 263/81/1 294/72/1
f 1058/105/7 1059/106/7 965/107/7 1042/108/7
f 282/18/3 279/17/3 252/37/3 316/21/3
f 1007/108/8 1002/105/8 989/106/8 1067/107/8
f 742/97/18 722/80/18 726/32/18 743/29/18
f 94/103/1 93/86/1 90/104/1 89/102/1
f 95/112/5 99/69/5 109/95/5 107/113/5
f 1042/110/3 965/111/3 1049/62/3 1046/109/3
f 258/71/1 316/80/1 252/81/1 259/72/1
f 153/112/5 154/69/5 157/95/5 161/113/5
f 1001/110/8 1075/111/8 989/62/8 1002/109/8
f 105/98/3 104/99/3 96/100/3 98/101/3
f 1046/105/3 1049/106/3 1124/107/3 1118/108/3
f 160/98/2 162/99/2 150/100/2 149/101/2
f 140/91/5 143/103/5 138/102/5 134/114/5
f 208/71/4 308/80/4 204/81/4 209/72/4
f 994/105/2 1084/106/2 1075/107/2 1001/108/2
f 1118/110/9 1124/111/9 1020/62/9 1121/109/9
f 234/17/2 204/37/2 308/21/2 231/18/2
f 214/72/4 313/71/4 212/80/4 213/81/4
f 994/109/2 993/110/2 1085/111/2 1084/62/2
f 130/91/5 133/103/5 127/102/5 123/114/5
f 80/91/5 83/103/5 78/102/5 75/114/5
f 313/83/3 214/77/3 275/94/3 276/93/3
f 1121/105/9 1020/106/9 1112/107/9 1107/108/9
f 101/115/6 97/98/6 108/101/6 110/116/6
f 1097/105/10 1099/106/10 1085/107/10 993/108/10
f 1110/109/1 1107/110/1 1112/111/1 1111/62/1
f 151/115/6 152/98/6 159/101/6 155/116/6
f 1097/109/10 1094/110/10 1100/111/10 1099/62/10
f 1110/105/1 1111/106/1 1100/107/1 1094/108/1
f 422/1/5 423/117/5 433/118/5 434/119/5
f 91/91/5 94/103/5 89/102/5 84/114/5
f 142/86/6 141/60/6 135/120/6 139/104/6
f 309/83/6 237/93/6 235/92/6 310/50/6
f 502/1/5 503/117/5 513/118/5 514/119/5
f 104/112/5 103/69/5 100/95/5 96/113/5
f 282/18/6 316/21/6 317/24/6 281/39/6
f 342/1/5 343/117/5 353/118/5 354/119/5
f 312/91/6 266/60/6 262/80/6 309/71/6
f 162/112/5 158/69/5 148/95/5 150/113/5
f 132/86/6 131/60/6 125/120/6 129/104/6
f 82/86/6 81/60/6 77/120/6 79/104/6
f 261/91/6 320/60/6 316/80/6 258/71/6
f 582/1/5 583/117/5 593/118/5 594/119/5
f 211/91/6 307/60/6 308/80/6 208/71/6
f 902/1/5 903/117/5 913/118/5 914/119/5
f 99/69/2 101/115/2 110/116/2 109/95/2
f 93/86/6 92/60/6 85/120/6 90/104/6
f 318/91/6 217/60/6 212/80/6 313/71/6
f 154/69/3 151/115/3 155/116/3 157/95/3
f 231/18/6 308/21/6 305/24/6 232/39/6
f 106/115/6 105/98/6 98/101/6 102/116/6
f 141/60/1 140/121/1 134/122/1 135/120/1
f 314/50/6 313/83/6 276/93/6 278/92/6
f 662/1/5 663/117/5 673/118/5 674/119/5
f 156/115/6 160/98/6 149/101/6 147/116/6
f 406/123/15 430/124/15 432/125/15 423/2/15
f 430/31/6 406/35/6 402/126/6 428/127/6
f 422/2/14 404/125/14 428/124/14 402/123/14
f 822/1/5 823/117/5 833/118/5 834/119/5
f 502/2/16 484/125/16 508/124/16 482/123/16
f 510/31/6 486/35/6 482/126/6 508/127/6
f 742/1/5 743/117/5 753/118/5 754/119/5
f 503/2/13 486/123/13 510/124/13 512/125/13
f 326/123/17 350/124/17 352/125/17 343/2/17
f 131/60/1 130/121/1 123/122/1 125/120/1
f 326/35/6 322/126/6 348/127/6 350/31/6
f 342/2/12 324/125/12 348/124/12 322/123/12
f 81/60/4 80/121/4 75/122/4 77/120/4
f 564/125/18 588/124/18 562/123/18 582/2/18
f 590/31/6 566/35/6 562/126/6 588/127/6
f 566/123/11 590/124/11 592/125/11 583/2/11
f 886/123/18 910/124/18 912/125/18 903/2/18
f 92/60/4 91/121/4 84/122/4 85/120/4
f 910/31/6 886/35/6 882/126/6 908/127/6
f 884/125/11 908/124/11 882/123/11 902/2/11
f 103/69/2 106/115/2 102/116/2 100/95/2
f 158/69/3 156/115/3 147/116/3 148/95/3
f 662/2/17 644/125/17 668/124/17 642/123/17
f 670/31/6 646/35/6 642/126/6 668/127/6
f 646/123/12 670/124/12 672/125/12 663/2/12
f 806/123/16 830/124/16 832/125/16 823/2/16
f 806/35/6 802/126/6 828/127/6 830/31/6
f 433/118/5 423/117/5 432/85/5 435/128/5
f 822/2/13 804/125/13 828/124/13 802/123/13
f 404/53/5 422/1/5 434/119/5 436/58/5
f 724/125/15 748/124/15 722/123/15 742/2/15
f 726/35/6 722/126/6 748/127/6 750/31/6
f 726/123/14 750/124/14 752/125/14 743/2/14
f 484/53/5 502/1/5 514/119/5 516/58/5
f 513/118/5 503/117/5 512/85/5 515/128/5
f 353/118/5 343/117/5 352/85/5 355/128/5
f 324/53/5 342/1/5 354/119/5 356/58/5
f 564/53/5 582/1/5 594/119/5 596/58/5
f 593/118/5 583/117/5 592/85/5 595/128/5
f 913/118/5 903/117/5 912/85/5 915/128/5
f 884/53/5 902/1/5 914/119/5 916/58/5
f 644/53/5 662/1/5 674/119/5 676/58/5
f 673/118/5 663/117/5 672/85/5 675/128/5
f 833/118/5 823/117/5 832/85/5 835/128/5
f 804/53/5 822/1/5 834/119/5 836/58/5
f 724/53/5 742/1/5 754/119/5 756/58/5
f 753/118/5 743/117/5 752/85/5 755/128/5
f 236/101/5 225/98/5 229/115/5 238/116/5
f 287/101/5 280/98/5 279/115/5 283/116/5
f 263/120/5 269/60/5 270/86/5 267/104/5
f 253/120/5 259/60/5 260/86/5 257/104/5
f 205/120/5 209/60/5 210/86/5 207/104/5
f 213/120/5 220/60/5 221/86/5 218/104/5
f 226/101/5 233/98/5 234/115/5 230/116/5
f 277/101/5 288/98/5 284/115/5 275/116/5
f 235/100/3 223/99/3 225/98/3 236/101/3
f 289/100/2 281/99/2 280/98/2 287/101/2
f 267/104/4 270/86/4 271/103/4 266/102/4
f 207/104/1 210/86/1 211/103/1 206/102/1
f 257/104/4 260/86/4 261/103/4 255/102/4
f 430/124/15 429/129/15 431/95/15 432/125/15
f 430/31/6 428/127/6 427/66/6 429/80/6
f 436/130/5 435/131/5 437/103/5 438/132/5
f 218/104/1 221/86/1 222/103/1 217/102/1
f 404/125/14 426/95/14 427/129/14 428/124/14
f 431/120/5 437/133/5 435/128/5 432/85/5
f 404/53/5 436/58/5 438/134/5 426/56/5
f 484/125/16 506/95/16 507/129/16 508/124/16
f 510/31/6 508/127/6 507/66/6 509/80/6
f 516/130/5 515/131/5 517/103/5 518/132/5
f 512/125/13 510/124/13 509/129/13 511/95/13
f 484/53/5 516/58/5 518/134/5 506/56/5
f 517/133/5 515/128/5 512/85/5 511/120/5
f 224/100/3 232/99/3 233/98/3 226/101/3
f 350/124/17 349/129/17 351/95/17 352/125/17
f 350/31/6 348/127/6 347/66/6 349/80/6
f 356/130/5 355/131/5 357/103/5 358/132/5
f 351/120/5 357/133/5 355/128/5 352/85/5
f 324/125/12 346/95/12 347/129/12 348/124/12
f 278/100/2 290/99/2 288/98/2 277/101/2
f 324/53/5 356/58/5 358/134/5 346/56/5
f 564/125/18 586/95/18 587/129/18 588/124/18
f 590/31/6 588/127/6 587/66/6 589/80/6
f 596/130/5 595/131/5 597/103/5 598/132/5
f 564/53/5 596/58/5 598/134/5 586/56/5
f 592/125/11 590/124/11 589/129/11 591/95/11
f 591/120/5 597/133/5 595/128/5 592/85/5
f 912/125/18 910/124/18 909/129/18 911/95/18
f 910/31/6 908/127/6 907/66/6 909/80/6
f 916/130/5 915/131/5 917/103/5 918/132/5
f 917/133/5 915/128/5 912/85/5 911/120/5
f 884/125/11 906/95/11 907/129/11 908/124/11
f 884/53/5 916/58/5 918/134/5 906/56/5
f 644/125/17 666/95/17 667/129/17 668/124/17
f 670/31/6 668/127/6 667/66/6 669/80/6
f 676/130/5 675/131/5 677/103/5 678/132/5
f 666/56/5 644/53/5 676/58/5 678/134/5
f 670/124/12 669/129/12 671/95/12 672/125/12
f 671/120/5 677/133/5 675/128/5 672/85/5
f 830/124/16 829/129/16 831/95/16 832/125/16
f 830/31/6 828/127/6 827/66/6 829/80/6
f 836/130/5 835/131/5 837/103/5 838/132/5
f 804/125/13 826/95/13 827/129/13 828/124/13
f 831/120/5 837/133/5 835/128/5 832/85/5
f 804/53/5 836/58/5 838/134/5 826/56/5
f 724/125/15 746/95/15 747/129/15 748/124/15
f 750/31/6 748/127/6 747/66/6 749/80/6
f 756/130/5 755/131/5 757/103/5 758/132/5
f 752/125/14 750/124/14 749/129/14 751/95/14
f 724/53/5 756/58/5 758/134/5 746/56/5
f 751/120/5 757/133/5 755/128/5 752/85/5
f 238/116/2 229/115/2 227/69/2 237/95/2
f 446/32/11 442/80/11 462/97/11 463/29/11
f 283/116/3 279/115/3 282/69/3 285/95/3
f 526/32/12 522/80/12 542/97/12 543/29/12
f 262/122/1 268/121/1 269/60/1 263/120/1
f 383/29/13 366/32/13 362/80/13 382/97/13
f 251/122/1 258/121/1 259/60/1 253/120/1
f 623/29/14 606/32/14 602/80/14 622/97/14
f 203/122/4 208/121/4 209/60/4 205/120/4
f 926/32/15 922/80/15 942/97/15 943/29/15
f 212/122/4 219/121/4 220/60/4 213/120/4
f 703/29/16 686/32/16 682/80/16 702/97/16
f 1055/110/4 1031/111/4 1063/62/4 1061/109/4
f 1024/105/7 1053/106/7 1031/107/7 1055/108/7
f 468/127/5 442/126/5 446/35/5 470/31/5
f 1061/105/4 1063/106/4 976/107/4 1022/108/4
f 230/116/2 234/115/2 231/69/2 228/95/2
f 846/32/17 842/80/17 862/97/17 863/29/17
f 1044/110/7 962/111/7 1053/62/7 1024/109/7
f 550/31/5 548/127/5 522/126/5 526/35/5
f 1022/110/8 976/111/8 1070/62/8 1071/109/8
f 275/116/3 284/115/3 286/69/3 276/95/3
f 783/29/18 766/32/18 762/80/18 782/97/18
f 388/127/5 362/126/5 366/35/5 390/31/5
f 237/95/6 227/69/6 223/112/6 235/113/6
f 1043/105/3 1032/106/3 962/107/3 1044/108/3
f 285/95/6 282/69/6 281/112/6 289/113/6
f 1071/105/8 1070/106/8 984/107/8 961/108/8
f 1119/110/3 1117/111/3 1032/62/3 1043/109/3
f 266/102/6 271/103/6 268/91/6 262/114/6
f 630/31/5 628/127/5 602/126/5 606/35/5
f 961/110/2 984/111/2 1080/62/2 1078/109/2
f 950/31/5 948/127/5 922/126/5 926/35/5
f 975/105/9 1028/106/9 1117/107/9 1119/108/9
f 1078/105/2 1080/106/2 1081/107/2 1082/108/2
f 255/102/6 261/103/6 258/91/6 251/114/6
f 206/102/6 211/103/6 208/91/6 203/114/6
f 969/110/9 1106/111/9 1028/62/9 975/109/9
f 1088/109/10 1082/110/10 1081/111/10 1092/62/10
f 708/127/5 682/126/5 686/35/5 710/31/5
f 1108/105/1 1105/106/1 1106/107/1 969/108/1
f 870/31/5 868/127/5 842/126/5 846/35/5
f 1088/105/10 1092/106/10 1093/107/10 1089/108/10
f 1089/110/1 1093/111/1 1105/62/1 1108/109/1
f 217/102/6 222/103/6 219/91/6 212/114/6
f 788/127/5 762/126/5 766/35/5 790/31/5
f 228/95/6 231/69/6 232/112/6 224/113/6
f 276/95/6 286/69/6 290/112/6 278/113/6
f 472/125/15 470/124/15 446/123/15 463/2/15
f 442/123/14 468/124/14 444/125/14 462/2/14
f 522/123/16 548/124/16 524/125/16 542/2/16
f 552/125/13 550/124/13 526/123/13 543/2/13
f 392/125/17 390/124/17 366/123/17 383/2/17
f 1009/135/6 1065/106/6 1054/107/6 1057/90/6
f 1066/135/5 972/90/5 973/107/5 981/106/5
f 382/2/12 362/123/12 388/124/12 364/125/12
f 1054/111/6 1058/62/6 1056/136/6 1057/137/6
f 971/136/5 1059/62/5 973/111/5 972/137/5
f 1007/111/6 1065/62/6 1009/136/6 1064/137/6
f 1066/136/5 981/62/5 1067/111/5 980/137/5
f 1056/135/6 1058/106/6 1042/107/6 1018/90/6
f 971/135/5 1048/90/5 965/107/5 1059/106/5
f 1004/135/6 1002/106/6 1007/107/6 1064/90/6
f 1073/135/5 980/90/5 1067/107/5 989/106/5
f 622/2/18 602/123/18 628/124/18 604/125/18
f 632/125/11 630/124/11 606/123/11 623/2/11
f 1042/111/6 1046/62/6 1045/136/6 1018/137/6
f 1047/136/5 1049/62/5 965/111/5 1048/137/5
f 952/125/18 950/124/18 926/123/18 943/2/18
f 942/2/11 922/123/11 948/124/11 924/125/11
f 1001/111/6 1002/62/6 1004/136/6 1072/137/6
f 1073/136/5 989/62/5 1075/111/5 1074/137/5
f 1045/135/6 1046/106/6 1118/107/6 1120/90/6
f 1047/135/5 1123/90/5 1124/107/5 1049/106/5
f 702/2/17 682/123/17 708/124/17 684/125/17
f 712/125/12 710/124/12 686/123/12 703/2/12
f 998/135/6 994/106/6 1001/107/6 1072/90/6
f 996/135/5 1074/90/5 1075/107/5 1084/106/5
f 863/2/16 872/125/16 870/124/16 846/123/16
f 862/2/13 842/123/13 868/124/13 844/125/13
f 473/118/6 463/117/6 462/1/6 474/119/6
f 1118/111/6 1121/62/6 982/136/6 1120/137/6
f 1122/136/5 1020/62/5 1124/111/5 1123/137/5
f 782/2/15 762/123/15 788/124/15 764/125/15
f 792/125/14 790/124/14 766/123/14 783/2/14
f 553/118/6 543/117/6 542/1/6 554/119/6
f 993/111/6 994/62/6 998/136/6 1083/137/6
f 996/136/5 1084/62/5 1085/111/5 997/137/5
f 393/118/6 383/117/6 382/1/6 394/119/6
f 982/135/6 1121/106/6 1107/107/6 986/90/6
f 1122/135/5 1014/90/5 1112/107/5 1020/106/5
f 1095/135/6 1097/106/6 993/107/6 1083/90/6
f 1006/135/5 997/90/5 1085/107/5 1099/106/5
f 1107/111/6 1110/62/6 1109/136/6 986/137/6
f 1013/136/5 1111/62/5 1112/111/5 1014/137/5
f 633/118/6 623/117/6 622/1/6 634/119/6
f 1094/111/6 1097/62/6 1095/136/6 1096/137/6
f 1006/136/5 1099/62/5 1100/111/5 1098/137/5
f 1109/135/6 1110/106/6 1094/107/6 1096/90/6
f 1013/135/5 1098/90/5 1100/107/5 1111/106/5
f 953/118/6 943/117/6 942/1/6 954/119/6
f 431/120/5 425/122/5 439/138/5 437/133/5
f 440/139/5 424/137/5 426/56/5 438/134/5
f 713/118/6 703/117/6 702/1/6 714/119/6
f 520/139/5 504/137/5 506/56/5 518/134/5
f 873/118/6 863/117/6 862/1/6 874/119/6
f 511/120/5 505/122/5 519/138/5 517/133/5
f 351/120/5 345/122/5 359/138/5 357/133/5
f 793/118/6 783/117/6 782/1/6 794/119/6
f 360/139/5 344/137/5 346/56/5 358/134/5
f 600/139/5 584/137/5 586/56/5 598/134/5
f 591/120/5 585/122/5 599/138/5 597/133/5
f 911/120/5 905/122/5 919/138/5 917/133/5
f 920/139/5 904/137/5 906/56/5 918/134/5
f 680/139/5 664/137/5 666/56/5 678/134/5
f 472/85/6 463/117/6 473/118/6 475/128/6
f 444/53/6 476/58/6 474/119/6 462/1/6
f 671/120/5 665/122/5 679/138/5 677/133/5
f 831/120/5 825/122/5 839/138/5 837/133/5
f 524/53/6 556/58/6 554/119/6 542/1/6
f 840/139/5 824/137/5 826/56/5 838/134/5
f 552/85/6 543/117/6 553/118/6 555/128/6
f 392/85/6 383/117/6 393/118/6 395/128/6
f 364/53/6 396/58/6 394/119/6 382/1/6
f 760/139/5 744/137/5 746/56/5 758/134/5
f 751/120/5 745/122/5 759/138/5 757/133/5
f 604/53/6 636/58/6 634/119/6 622/1/6
f 632/85/6 623/117/6 633/118/6 635/128/6
f 952/85/6 943/117/6 953/118/6 955/128/6
f 425/140/15 431/95/15 429/129/15 420/141/15
f 418/142/6 420/143/6 429/80/6 427/66/6
f 418/141/14 427/129/14 426/95/14 424/140/14
f 924/53/6 956/58/6 954/119/6 942/1/6
f 498/141/16 507/129/16 506/95/16 504/140/16
f 498/142/6 500/143/6 509/80/6 507/66/6
f 511/95/13 509/129/13 500/141/13 505/140/13
f 345/140/17 351/95/17 349/129/17 340/141/17
f 684/53/6 716/58/6 714/119/6 702/1/6
f 338/142/6 340/143/6 349/80/6 347/66/6
f 338/141/12 347/129/12 346/95/12 344/140/12
f 712/85/6 703/117/6 713/118/6 715/128/6
f 872/85/6 863/117/6 873/118/6 875/128/6
f 844/53/6 876/58/6 874/119/6 862/1/6
f 764/53/6 796/58/6 794/119/6 782/1/6
f 792/85/6 783/117/6 793/118/6 795/128/6
f 467/66/5 468/127/5 470/31/5 469/80/5
f 578/141/18 587/129/18 586/95/18 584/140/18
f 578/142/6 580/143/6 589/80/6 587/66/6
f 547/66/5 548/127/5 550/31/5 549/80/5
f 585/140/11 591/95/11 589/129/11 580/141/11
f 389/80/5 387/66/5 388/127/5 390/31/5
f 911/95/18 909/129/18 900/141/18 905/140/18
f 898/142/6 900/143/6 909/80/6 907/66/6
f 898/141/11 907/129/11 906/95/11 904/140/11
f 627/66/5 628/127/5 630/31/5 629/80/5
f 658/141/17 667/129/17 666/95/17 664/140/17
f 658/142/6 660/143/6 669/80/6 667/66/6
f 671/95/12 669/129/12 660/141/12 665/140/12
f 947/66/5 948/127/5 950/31/5 949/80/5
f 425/122/5 424/137/5 440/139/5 439/138/5
f 825/140/16 831/95/16 829/129/16 820/141/16
f 818/142/6 820/143/6 829/80/6 827/66/6
f 827/129/13 826/95/13 824/140/13 818/141/13
f 505/122/5 504/137/5 520/139/5 519/138/5
f 747/129/15 746/95/15 744/140/15 738/141/15
f 747/66/6 738/142/6 740/143/6 749/80/6
f 745/140/14 751/95/14 749/129/14 740/141/14
f 345/122/5 344/137/5 360/139/5 359/138/5
f 707/66/5 708/127/5 710/31/5 709/80/5
f 867/66/5 868/127/5 870/31/5 869/80/5
f 787/66/5 788/127/5 790/31/5 789/80/5
f 585/122/5 584/137/5 600/139/5 599/138/5
f 905/122/5 904/137/5 920/139/5 919/138/5
f 679/138/5 665/122/5 664/137/5 680/139/5
f 471/95/15 469/129/15 470/124/15 472/125/15
f 467/129/14 466/95/14 444/125/14 468/124/14
f 839/138/5 825/122/5 824/137/5 840/139/5
f 547/129/16 546/95/16 524/125/16 548/124/16
f 551/95/13 549/129/13 550/124/13 552/125/13
f 745/122/5 744/137/5 760/139/5 759/138/5
f 391/95/17 389/129/17 390/124/17 392/125/17
f 387/129/12 386/95/12 364/125/12 388/124/12
f 627/129/18 626/95/18 604/125/18 628/124/18
f 631/95/11 629/129/11 630/124/11 632/125/11
f 951/95/18 949/129/18 950/124/18 952/125/18
f 947/129/11 946/95/11 924/125/11 948/124/11
f 707/129/17 706/95/17 684/125/17 708/124/17
f 712/125/12 711/95/12 709/129/12 710/124/12
f 872/125/16 871/95/16 869/129/16 870/124/16
f 867/129/13 866/95/13 844/125/13 868/124/13
f 1185/144/5 1186/142/5 1182/145/5 1181/146/5
f 1193/144/5 1194/142/5 1190/145/5 1189/146/5
f 787/129/15 786/95/15 764/125/15 788/124/15
f 791/95/14 789/129/14 790/124/14 792/125/14
f 1177/144/5 1178/142/5 1174/145/5 1173/146/5
f 1201/144/5 1202/142/5 1198/145/5 1197/146/5
f 1169/144/5 1170/142/5 1166/145/5 1165/146/5
f 1209/144/5 1210/142/5 1206/145/5 1205/146/5
f 1161/144/5 1162/142/5 1158/145/5 1157/146/5
f 1217/144/5 1218/142/5 1214/145/5 1213/146/5
f 477/103/6 475/131/6 476/130/6 478/132/6
f 471/120/6 472/85/6 475/128/6 477/133/6
f 1153/144/5 1154/142/5 1150/145/5 1149/146/5
f 478/134/6 476/58/6 444/53/6 466/56/6
f 557/103/6 555/131/6 556/130/6 558/132/6
f 558/134/6 556/58/6 524/53/6 546/56/6
f 1225/144/5 1226/142/5 1222/145/5 1221/146/5
f 551/120/6 552/85/6 555/128/6 557/133/6
f 397/103/6 395/131/6 396/130/6 398/132/6
f 391/120/6 392/85/6 395/128/6 397/133/6
f 398/134/6 396/58/6 364/53/6 386/56/6
f 1145/144/5 1146/142/5 1142/145/5 1141/146/5
f 1233/144/5 1234/142/5 1230/145/5 1229/146/5
f 1137/144/5 1138/142/5 1134/145/5 1133/146/5
f 638/132/6 637/103/6 635/131/6 636/130/6
f 638/134/6 636/58/6 604/53/6 626/56/6
f 1241/144/5 1242/142/5 1238/145/5 1237/146/5
f 631/120/6 632/85/6 635/128/6 637/133/6
f 1129/144/5 1130/142/5 1126/145/5 1125/146/5
f 957/103/6 955/131/6 956/130/6 958/132/6
f 1249/144/5 1250/142/5 1246/145/5 1245/146/5
f 952/85/6 955/128/6 957/133/6 951/120/6
f 958/134/6 956/58/6 924/53/6 946/56/6
f 717/103/6 715/131/6 716/130/6 718/132/6
f 718/134/6 716/58/6 684/53/6 706/56/6
f 711/120/6 712/85/6 715/128/6 717/133/6
f 877/103/6 875/131/6 876/130/6 878/132/6
f 871/120/6 872/85/6 875/128/6 877/133/6
f 878/134/6 876/58/6 844/53/6 866/56/6
f 797/103/6 795/131/6 796/130/6 798/132/6
f 798/134/6 796/58/6 764/53/6 786/56/6
f 791/120/6 792/85/6 795/128/6 797/133/6
f 1023/135/5 1025/90/5 1055/107/5 1061/106/5
f 1050/136/5 1024/62/5 1055/111/5 1025/137/5
f 1023/136/5 1061/62/5 1022/111/5 1060/137/5
f 1050/135/5 1026/90/5 1044/107/5 1024/106/5
f 1068/135/5 1060/90/5 1022/107/5 1071/106/5
f 1039/136/5 1043/62/5 1044/111/5 1026/137/5
f 1068/136/5 1071/62/5 961/111/5 1021/137/5
f 1183/147/15 1181/10/15 1182/112/15 1184/137/15
f 1186/112/14 1185/10/14 1187/147/14 1188/137/14
f 1194/112/2 1193/10/2 1195/147/2 1196/137/2
f 425/148/15 420/149/15 419/28/15 421/150/15
f 418/151/6 417/152/6 419/28/6 420/149/6
f 424/153/5 425/154/5 421/155/5 416/22/5
f 417/152/14 418/151/14 424/144/14 416/63/14
f 1191/147/3 1189/10/3 1190/112/3 1192/137/3
f 1175/147/9 1173/10/9 1174/112/9 1176/137/9
f 1039/135/5 1114/90/5 1119/107/5 1043/106/5
f 1178/112/8 1177/10/8 1179/147/8 1180/137/8
f 1202/112/16 1201/10/16 1203/147/16 1204/137/16
f 497/152/16 498/151/16 504/144/16 496/63/16
f 1199/147/13 1197/10/13 1198/112/13 1200/137/13
f 1076/135/5 1021/90/5 961/107/5 1078/106/5
f 500/149/6 498/151/6 497/152/6 499/28/6
f 504/153/5 505/154/5 501/155/5 496/22/5
f 505/148/13 500/149/13 499/28/13 501/150/13
f 1167/147/17 1165/10/17 1166/112/17 1168/137/17
f 341/150/17 345/148/17 340/149/17 339/28/17
f 1170/112/12 1169/10/12 1171/147/12 1172/137/12
f 338/151/6 337/152/6 339/28/6 340/149/6
f 344/153/5 345/154/5 341/155/5 336/22/5
f 1113/136/5 975/62/5 1119/111/5 1114/137/5
f 337/152/12 338/151/12 344/144/12 336/63/12
f 1210/112/10 1209/10/10 1211/147/10 1212/137/10
f 1207/147/7 1205/10/7 1206/112/7 1208/137/7
f 1076/136/5 1078/62/5 1082/111/5 1077/137/5
f 1159/147/1 1157/10/1 1158/112/1 1160/137/1
f 1162/112/4 1161/10/4 1163/147/4 1164/137/4
f 1113/135/5 1102/90/5 969/107/5 975/106/5
f 1218/112/18 1217/10/18 1219/147/18 1220/137/18
f 1086/135/5 1077/90/5 1082/107/5 1088/106/5
f 577/152/18 578/151/18 584/144/18 576/63/18
f 1215/147/11 1213/10/11 1214/112/11 1216/137/11
f 580/149/6 578/151/6 577/152/6 579/28/6
f 584/153/5 585/154/5 581/155/5 576/22/5
f 1101/136/5 1108/62/5 969/111/5 1102/137/5
f 585/148/11 580/149/11 579/28/11 581/150/11
f 1086/136/5 1088/62/5 1089/111/5 1087/137/5
f 1151/147/18 1149/10/18 1150/112/18 1152/137/18
f 1101/135/5 1087/90/5 1089/107/5 1108/106/5
f 905/148/18 900/149/18 899/28/18 901/150/18
f 1154/112/11 1153/10/11 1155/147/11 1156/137/11
f 898/151/6 897/152/6 899/28/6 900/149/6
f 904/153/5 905/154/5 901/155/5 896/22/5
f 897/152/11 898/151/11 904/144/11 896/63/11
f 1226/112/1 1225/10/1 1227/147/1 1228/137/1
f 1223/147/4 1221/10/4 1222/112/4 1224/137/4
f 1143/147/10 1141/10/10 1142/112/10 1144/137/10
f 1146/112/7 1145/10/7 1147/147/7 1148/137/7
f 1234/112/17 1233/10/17 1235/147/17 1236/137/17
f 1231/147/12 1229/10/12 1230/112/12 1232/137/12
f 657/152/17 658/151/17 664/144/17 656/63/17
f 658/151/6 657/152/6 659/28/6 660/149/6
f 664/153/5 665/154/5 661/155/5 656/22/5
f 665/148/12 660/149/12 659/28/12 661/150/12
f 1135/147/16 1133/10/16 1134/112/16 1136/137/16
f 1138/112/13 1137/10/13 1139/147/13 1140/137/13
f 821/150/16 825/148/16 820/149/16 819/28/16
f 1242/112/9 1241/10/9 1243/147/9 1244/137/9
f 818/151/6 817/152/6 819/28/6 820/149/6
f 824/153/5 825/154/5 821/155/5 816/22/5
f 1239/147/8 1237/10/8 1238/112/8 1240/137/8
f 818/151/13 824/144/13 816/63/13 817/152/13
f 1127/147/2 1125/10/2 1126/112/2 1128/137/2
f 1130/112/3 1129/10/3 1131/147/3 1132/137/3
f 1250/112/15 1249/10/15 1251/147/15 1252/137/15
f 1247/147/14 1245/10/14 1246/112/14 1248/137/14
f 737/152/15 738/151/15 744/144/15 736/63/15
f 738/151/6 737/152/6 739/28/6 740/149/6
f 744/153/5 745/154/5 741/155/5 736/22/5
f 741/150/14 745/148/14 740/149/14 739/28/14
f 1030/135/6 1063/106/6 1031/107/6 1052/90/6
f 1031/111/6 1053/62/6 1051/136/6 1052/137/6
f 976/111/6 1063/62/6 1030/136/6 1062/137/6
f 469/80/5 460/143/5 458/142/5 467/66/5
f 1051/135/6 1053/106/6 962/107/6 1041/90/6
f 1069/135/6 1070/106/6 976/107/6 1062/90/6
f 549/80/5 540/143/5 538/142/5 547/66/5
f 962/111/6 1032/62/6 1040/136/6 1041/137/6
f 389/80/5 380/143/5 378/142/5 387/66/5
f 984/111/6 1070/62/6 1069/136/6 1029/137/6
f 1040/135/6 1032/106/6 1117/107/6 1116/90/6
f 1027/135/6 1080/106/6 984/107/6 1029/90/6
f 629/80/5 620/143/5 618/142/5 627/66/5
f 1117/111/6 1028/62/6 1115/136/6 1116/137/6
f 949/80/5 940/143/5 938/142/5 947/66/5
f 1081/111/6 1080/62/6 1027/136/6 1079/137/6
f 1115/135/6 1028/106/6 1106/107/6 1104/90/6
f 1090/135/6 1092/106/6 1081/107/6 1079/90/6
f 707/66/5 709/80/5 700/143/5 698/142/5
f 1106/111/6 1105/62/6 1103/136/6 1104/137/6
f 1093/111/6 1092/62/6 1090/136/6 1091/137/6
f 1103/135/6 1105/106/6 1093/107/6 1091/90/6
f 869/80/5 860/143/5 858/142/5 867/66/5
f 789/80/5 780/143/5 778/142/5 787/66/5
f 465/140/15 460/141/15 469/129/15 471/95/15
f 458/141/14 464/140/14 466/95/14 467/129/14
f 538/141/16 544/140/16 546/95/16 547/129/16
f 545/140/13 540/141/13 549/129/13 551/95/13
f 479/138/6 465/122/6 471/120/6 477/133/6
f 480/139/6 478/134/6 466/56/6 464/137/6
f 385/140/17 380/141/17 389/129/17 391/95/17
f 378/141/12 384/140/12 386/95/12 387/129/12
f 560/139/6 558/134/6 546/56/6 544/137/6
f 559/138/6 545/122/6 551/120/6 557/133/6
f 399/138/6 385/122/6 391/120/6 397/133/6
f 400/139/6 398/134/6 386/56/6 384/137/6
f 618/141/18 624/140/18 626/95/18 627/129/18
f 620/141/11 629/129/11 631/95/11 625/140/11
f 940/141/18 949/129/18 951/95/18 945/140/18
f 640/139/6 638/134/6 626/56/6 624/137/6
f 938/141/11 944/140/11 946/95/11 947/129/11
f 639/138/6 625/122/6 631/120/6 637/133/6
f 959/138/6 945/122/6 951/120/6 957/133/6
f 960/139/6 958/134/6 946/56/6 944/137/6
f 698/141/17 704/140/17 706/95/17 707/129/17
f 700/141/12 709/129/12 711/95/12 705/140/12
f 860/141/16 869/129/16 871/95/16 865/140/16
f 858/141/13 864/140/13 866/95/13 867/129/13
f 720/139/6 718/134/6 706/56/6 704/137/6
f 719/138/6 705/122/6 711/120/6 717/133/6
f 778/141/15 784/140/15 786/95/15 787/129/15
f 780/141/14 789/129/14 791/95/14 785/140/14
f 879/138/6 865/122/6 871/120/6 877/133/6
f 880/139/6 878/134/6 866/56/6 864/137/6
f 800/139/6 798/134/6 786/56/6 784/137/6
f 799/138/6 785/122/6 791/120/6 797/133/6
f 1057/90/1 972/156/1 1066/157/1 1009/135/1
f 1057/137/10 1056/136/10 971/158/10 972/159/10
f 1064/137/1 1009/136/1 1066/158/1 980/159/1
f 1056/135/10 1018/90/10 1048/156/10 971/157/10
f 1064/90/9 980/156/9 1073/157/9 1004/135/9
f 1045/136/2 1047/158/2 1048/159/2 1018/137/2
f 1004/136/9 1073/158/9 1074/159/9 1072/137/9
f 1120/90/2 1123/156/2 1047/157/2 1045/135/2
f 998/135/3 1072/90/3 1074/156/3 996/157/3
f 982/136/8 1122/158/8 1123/159/8 1120/137/8
f 1188/160/6 1187/161/6 1183/162/6 1184/121/6
f 1083/137/3 998/136/3 996/158/3 997/159/3
f 1196/160/6 1195/161/6 1191/162/6 1192/121/6
f 1180/160/6 1179/161/6 1175/162/6 1176/121/6
f 1204/160/6 1203/161/6 1199/162/6 1200/121/6
f 986/90/8 1014/156/8 1122/157/8 982/135/8
f 480/139/6 464/137/6 465/122/6 479/138/6
f 1083/90/7 997/156/7 1006/157/7 1095/135/7
f 1172/160/6 1171/161/6 1167/162/6 1168/121/6
f 560/139/6 544/137/6 545/122/6 559/138/6
f 1109/136/4 1013/158/4 1014/159/4 986/137/4
f 1212/160/6 1211/161/6 1207/162/6 1208/121/6
f 1095/136/7 1006/158/7 1098/159/7 1096/137/7
f 1096/90/4 1098/156/4 1013/157/4 1109/135/4
f 400/139/6 384/137/6 385/122/6 399/138/6
f 1164/160/6 1163/161/6 1159/162/6 1160/121/6
f 1220/160/6 1219/161/6 1215/162/6 1216/121/6
f 1156/160/6 1155/161/6 1151/162/6 1152/121/6
f 640/139/6 624/137/6 625/122/6 639/138/6
f 1228/160/6 1227/161/6 1223/162/6 1224/121/6
f 960/139/6 944/137/6 945/122/6 959/138/6
f 1148/160/6 1147/161/6 1143/162/6 1144/121/6
f 1236/160/6 1235/161/6 1231/162/6 1232/121/6
f 1140/160/6 1139/161/6 1135/162/6 1136/121/6
f 719/138/6 720/139/6 704/137/6 705/122/6
f 459/28/5 457/152/5 458/151/5 460/149/5
f 1244/160/6 1243/161/6 1239/162/6 1240/121/6
f 1132/160/6 1131/161/6 1127/162/6 1128/121/6
f 879/138/6 880/139/6 864/137/6 865/122/6
f 1252/160/6 1251/161/6 1247/162/6 1248/121/6
f 539/28/5 537/152/5 538/151/5 540/149/5
f 800/139/6 784/137/6 785/122/6 799/138/6
f 379/28/5 377/152/5 378/151/5 380/149/5
f 620/149/5 619/28/5 617/152/5 618/151/5
f 940/149/5 939/28/5 937/152/5 938/151/5
f 699/28/5 697/152/5 698/151/5 700/149/5
f 859/28/5 857/152/5 858/151/5 860/149/5
f 779/28/5 777/152/5 778/151/5 780/149/5
f 461/150/15 459/28/15 460/149/15 465/148/15
f 457/152/14 456/63/14 464/144/14 458/151/14
f 536/63/16 544/144/16 538/151/16 537/152/16
f 541/150/13 539/28/13 540/149/13 545/148/13
f 381/150/17 379/28/17 380/149/17 385/148/17
f 377/152/12 376/63/12 384/144/12 378/151/12
f 617/152/18 616/63/18 624/144/18 618/151/18
f 619/28/11 620/149/11 625/148/11 621/150/11
f 941/150/18 939/28/18 940/149/18 945/148/18
f 937/152/11 936/63/11 944/144/11 938/151/11
f 697/152/17 696/63/17 704/144/17 698/151/17
f 699/28/12 700/149/12 705/148/12 701/150/12
f 859/28/16 860/149/16 865/148/16 861/150/16
f 857/152/13 856/63/13 864/144/13 858/151/13
f 777/152/15 776/63/15 784/144/15 778/151/15
f 779/28/14 780/149/14 785/148/14 781/150/14
f 464/153/6 456/22/6 461/155/6 465/154/6
f 544/153/6 536/22/6 541/155/6 545/154/6
f 384/153/6 376/22/6 381/155/6 385/154/6
f 624/153/6 616/22/6 621/155/6 625/154/6
f 944/153/6 936/22/6 941/155/6 945/154/6
f 704/153/6 696/22/6 701/155/6 705/154/6
f 864/153/6 856/22/6 861/155/6 865/154/6
f 784/153/6 776/22/6 781/155/6 785/154/6
f 1023/136/1 1030/158/1 1052/159/1 1025/137/1
f 1050/135/10 1025/90/10 1052/156/10 1051/157/10
f 1060/90/1 1062/156/1 1030/157/1 1023/135/1
f 1026/137/10 1050/136/10 1051/158/10 1041/159/10
f 1068/136/9 1069/158/9 1062/159/9 1060/137/9
f 1039/135/2 1026/90/2 1041/156/2 1040/157/2
f 1021/90/9 1029/156/9 1069/157/9 1068/135/9
f 1114/137/2 1039/136/2 1040/158/2 1116/159/2
f 1076/136/3 1027/158/3 1029/159/3 1021/137/3
f 1114/90/8 1116/156/8 1115/157/8 1113/135/8
f 1077/90/3 1079/156/3 1027/157/3 1076/135/3
f 1102/137/8 1113/136/8 1115/158/8 1104/159/8
f 1086/136/7 1090/158/7 1079/159/7 1077/137/7
f 1102/90/4 1104/156/4 1103/157/4 1101/135/4
f 1087/90/7 1091/156/7 1090/157/7 1086/135/7
f 1101/136/4 1103/158/4 1091/159/4 1087/137/4
f 1185/68/18 1181/99/18 1183/90/18 1187/136/18
f 1193/68/1 1189/99/1 1191/90/1 1195/136/1
f 1177/68/10 1173/99/10 1175/90/10 1179/136/10
f 1201/68/17 1197/99/17 1199/90/17 1203/136/17
f 1169/68/16 1165/99/16 1167/90/16 1171/136/16
f 1209/68/9 1205/99/9 1207/90/9 1211/136/9
f 1161/68/2 1157/99/2 1159/90/2 1163/136/2
f 1217/68/15 1213/99/15 1215/90/15 1219/136/15
f 1153/68/14 1149/99/14 1151/90/14 1155/136/14
f 1225/68/3 1221/99/3 1223/90/3 1227/136/3
f 1145/68/8 1141/99/8 1143/90/8 1147/136/8
f 1233/68/13 1229/99/13 1231/90/13 1235/136/13
f 1137/68/12 1133/99/12 1135/90/12 1139/136/12
f 1241/68/7 1237/99/7 1239/90/7 1243/136/7
f 1129/68/4 1125/99/4 1127/90/4 1131/136/4
f 1249/68/11 1245/99/11 1247/90/11 1251/136/11
usemtl waterwheel_metal
f 170/136/5 137/163/5 111/156/5 167/158/5
f 112/163/5 126/156/5 146/158/5 175/136/5
f 165/158/5 164/136/5 163/163/5 171/156/5
f 174/156/5 88/158/5 145/136/5 144/163/5
f 239/156/6 265/163/6 298/136/6 295/158/6
f 303/136/6 274/158/6 254/156/6 240/163/6
f 291/163/6 292/136/6 293/158/6 299/156/6
f 273/136/6 216/158/6 302/156/6 272/163/6
f 436/164/5 434/165/5 433/70/5 435/166/5
f 515/166/5 516/164/5 514/165/5 513/70/5
f 355/166/5 356/164/5 354/165/5 353/70/5
f 596/164/5 594/165/5 593/70/5 595/166/5
f 915/166/5 916/164/5 914/165/5 913/70/5
f 675/166/5 676/164/5 674/165/5 673/70/5
f 835/166/5 836/164/5 834/165/5 833/70/5
f 755/166/5 756/164/5 754/165/5 753/70/5
f 439/167/5 440/168/5 438/169/5 437/170/5
f 519/167/5 520/168/5 518/169/5 517/170/5
f 359/167/5 360/168/5 358/169/5 357/170/5
f 599/167/5 600/168/5 598/169/5 597/170/5
f 919/167/5 920/168/5 918/169/5 917/170/5
f 679/167/5 680/168/5 678/169/5 677/170/5
f 840/168/5 838/169/5 837/170/5 839/167/5
f 759/167/5 760/168/5 758/169/5 757/170/5
f 473/70/6 474/165/6 476/164/6 475/166/6
f 555/166/6 553/70/6 554/165/6 556/164/6
f 395/166/6 393/70/6 394/165/6 396/164/6
f 635/166/6 633/70/6 634/165/6 636/164/6
f 955/166/6 953/70/6 954/165/6 956/164/6
f 715/166/6 713/70/6 714/165/6 716/164/6
f 875/166/6 873/70/6 874/165/6 876/164/6
f 795/166/6 793/70/6 794/165/6 796/164/6
f 414/171/4 415/72/4 412/43/4 413/172/4
f 334/171/7 335/72/7 332/43/7 333/172/7
f 494/171/8 495/72/8 492/43/8 493/172/8
f 894/171/3 895/72/3 892/43/3 893/172/3
f 574/171/2 575/72/2 572/43/2 573/172/2
f 814/171/9 815/72/9 812/43/9 813/172/9
f 653/172/10 654/171/10 655/72/10 652/43/10
f 734/171/1 735/72/1 732/43/1 733/172/1
f 479/167/6 477/170/6 478/169/6 480/168/6
f 559/167/6 557/170/6 558/169/6 560/168/6
f 399/167/6 397/170/6 398/169/6 400/168/6
f 639/167/6 637/170/6 638/169/6 640/168/6
f 959/167/6 957/170/6 958/169/6 960/168/6
f 719/167/6 717/170/6 718/169/6 720/168/6
f 877/170/6 878/169/6 880/168/6 879/167/6
f 799/167/6 797/170/6 798/169/6 800/168/6
f 413/171/2 412/172/2 408/168/2 409/173/2
f 414/171/6 413/172/6 409/168/6 411/173/6
f 408/173/5 412/171/5 415/172/5 410/168/5
f 410/173/3 415/171/3 414/172/3 411/168/3
f 335/171/9 334/172/9 331/168/9 330/173/9
f 334/171/6 333/172/6 329/168/6 331/173/6
f 328/173/5 332/171/5 335/172/5 330/168/5
f 333/171/8 332/172/8 328/168/8 329/173/8
f 493/171/10 492/172/10 488/168/10 489/173/10
f 494/171/6 493/172/6 489/168/6 491/173/6
f 488/173/5 492/171/5 495/172/5 490/168/5
f 490/173/7 495/171/7 494/172/7 491/168/7
f 890/173/1 895/171/1 894/172/1 891/168/1
f 894/171/6 893/172/6 889/168/6 891/173/6
f 888/173/5 892/171/5 895/172/5 890/168/5
f 893/171/4 892/172/4 888/168/4 889/173/4
f 569/173/1 573/171/1 572/172/1 568/168/1
f 574/171/6 573/172/6 569/168/6 571/173/6
f 568/173/5 572/171/5 575/172/5 570/168/5
f 575/171/4 574/172/4 571/168/4 570/173/4
f 810/173/10 815/171/10 814/172/10 811/168/10
f 814/171/6 813/172/6 809/168/6 811/173/6
f 808/173/5 812/171/5 815/172/5 810/168/5
f 813/171/7 812/172/7 808/168/7 809/173/7
f 653/171/9 652/172/9 648/168/9 649/173/9
f 654/171/6 653/172/6 649/168/6 651/173/6
f 648/173/5 652/171/5 655/172/5 650/168/5
f 655/171/8 654/172/8 651/168/8 650/173/8
f 730/173/2 735/171/2 734/172/2 731/168/2
f 734/171/6 733/172/6 729/168/6 731/173/6
f 728/173/5 732/171/5 735/172/5 730/168/5
f 729/173/3 733/171/3 732/172/3 728/168/3
f 421/171/15 419/172/15 407/168/15 405/173/15
f 419/174/6 417/172/6 403/168/6 407/173/6
f 416/174/5 421/172/5 405/168/5 401/173/5
f 403/173/14 417/171/14 416/172/14 401/168/14
f 483/173/16 497/171/16 496/172/16 481/168/16
f 499/174/6 497/172/6 483/168/6 487/173/6
f 496/174/5 501/172/5 485/168/5 481/173/5
f 485/173/13 501/171/13 499/172/13 487/168/13
f 325/173/17 341/171/17 339/172/17 327/168/17
f 339/174/6 337/172/6 323/168/6 327/173/6
f 341/172/5 325/168/5 321/173/5 336/174/5
f 337/171/12 336/172/12 321/168/12 323/173/12
f 563/173/18 577/171/18 576/172/18 561/168/18
f 577/172/6 563/168/6 567/173/6 579/174/6
f 576/174/5 581/172/5 565/168/5 561/173/5
f 581/171/11 579/172/11 567/168/11 565/173/11
f 885/173/18 901/171/18 899/172/18 887/168/18
f 899/174/6 897/172/6 883/168/6 887/173/6
f 896/174/5 901/172/5 885/168/5 881/173/5
f 897/171/11 896/172/11 881/168/11 883/173/11
f 643/173/17 657/171/17 656/172/17 641/168/17
f 659/174/6 657/172/6 643/168/6 647/173/6
f 656/174/5 661/172/5 645/168/5 641/173/5
f 645/173/12 661/171/12 659/172/12 647/168/12
f 821/171/16 819/172/16 807/168/16 805/173/16
f 819/174/6 817/172/6 803/168/6 807/173/6
f 821/172/5 805/168/5 801/173/5 816/174/5
f 817/171/13 816/172/13 801/168/13 803/173/13
f 723/173/15 737/171/15 736/172/15 721/168/15
f 739/174/6 737/172/6 723/168/6 727/173/6
f 736/174/5 741/172/5 725/168/5 721/173/5
f 725/173/14 741/171/14 739/172/14 727/168/14
f 452/43/4 455/72/4 454/171/4 453/172/4
f 372/43/7 375/72/7 374/171/7 373/172/7
f 532/43/8 535/72/8 534/171/8 533/172/8
f 932/43/3 935/72/3 934/171/3 933/172/3
f 410/168/1 411/175/1 409/156/1 408/173/1
f 328/173/10 330/168/10 331/175/10 329/156/10
f 612/43/2 615/72/2 614/171/2 613/172/2
f 490/168/9 491/175/9 489/156/9 488/173/9
f 852/43/9 855/72/9 854/171/9 853/172/9
f 890/168/2 891/175/2 889/156/2 888/173/2
f 692/43/10 695/72/10 694/171/10 693/172/10
f 772/43/1 775/72/1 774/171/1 773/172/1
f 568/173/3 570/168/3 571/175/3 569/156/3
f 810/168/8 811/175/8 809/156/8 808/173/8
f 650/168/7 651/175/7 649/156/7 648/173/7
f 728/173/4 730/168/4 731/175/4 729/156/4
f 449/168/5 453/172/5 454/171/5 451/173/5
f 405/168/18 407/175/18 403/156/18 401/173/18
f 369/168/5 373/172/5 374/171/5 371/173/5
f 485/168/17 487/175/17 483/156/17 481/173/17
f 321/173/16 325/168/16 327/175/16 323/156/16
f 529/168/5 533/172/5 534/171/5 531/173/5
f 929/168/5 933/172/5 934/171/5 931/173/5
f 561/173/15 565/168/15 567/175/15 563/156/15
f 881/173/14 885/168/14 887/175/14 883/156/14
f 609/168/5 613/172/5 614/171/5 611/173/5
f 849/168/5 853/172/5 854/171/5 851/173/5
f 645/168/13 647/175/13 643/156/13 641/173/13
f 689/168/5 693/172/5 694/171/5 691/173/5
f 769/168/5 773/172/5 774/171/5 771/173/5
f 805/168/12 807/175/12 803/156/12 801/173/12
f 721/173/11 725/168/11 727/175/11 723/156/11
f 448/168/2 452/172/2 453/171/2 449/173/2
f 450/173/3 451/168/3 454/172/3 455/171/3
f 370/173/9 371/168/9 374/172/9 375/171/9
f 368/168/8 372/172/8 373/171/8 369/173/8
f 528/168/10 532/172/10 533/171/10 529/173/10
f 530/173/7 531/168/7 534/172/7 535/171/7
f 930/173/1 931/168/1 934/172/1 935/171/1
f 929/173/4 928/168/4 932/172/4 933/171/4
f 459/174/5 447/173/5 443/168/5 457/172/5
f 609/173/1 608/168/1 612/172/1 613/171/1
f 539/174/5 527/173/5 523/168/5 537/172/5
f 611/168/4 614/172/4 615/171/4 610/173/4
f 379/174/5 367/173/5 363/168/5 377/172/5
f 850/173/10 851/168/10 854/172/10 855/171/10
f 848/168/7 852/172/7 853/171/7 849/173/7
f 688/168/9 692/172/9 693/171/9 689/173/9
f 691/168/8 694/172/8 695/171/8 690/173/8
f 770/173/2 771/168/2 774/172/2 775/171/2
f 619/174/5 607/173/5 603/168/5 617/172/5
f 768/168/3 772/172/3 773/171/3 769/173/3
f 927/173/5 923/168/5 937/172/5 939/174/5
f 448/173/6 450/168/6 455/172/6 452/171/6
f 368/173/6 370/168/6 375/172/6 372/171/6
f 699/174/5 687/173/5 683/168/5 697/172/5
f 859/174/5 847/173/5 843/168/5 857/172/5
f 528/173/6 530/168/6 535/172/6 532/171/6
f 779/174/5 767/173/5 763/168/5 777/172/5
f 928/173/6 930/168/6 935/172/6 932/171/6
f 447/168/15 459/172/15 461/171/15 445/173/15
f 443/173/14 441/168/14 456/172/14 457/171/14
f 523/173/16 521/168/16 536/172/16 537/171/16
f 608/173/6 610/168/6 615/172/6 612/171/6
f 527/168/13 539/172/13 541/171/13 525/173/13
f 367/168/17 379/172/17 381/171/17 365/173/17
f 363/173/12 361/168/12 376/172/12 377/171/12
f 848/173/6 850/168/6 855/172/6 852/171/6
f 688/173/6 690/168/6 695/172/6 692/171/6
f 603/173/18 601/168/18 616/172/18 617/171/18
f 768/173/6 770/168/6 775/172/6 772/171/6
f 605/173/11 607/168/11 619/172/11 621/171/11
f 927/168/18 939/172/18 941/171/18 925/173/18
f 923/173/11 921/168/11 936/172/11 937/171/11
f 683/173/17 681/168/17 696/172/17 697/171/17
f 685/173/12 687/168/12 699/172/12 701/171/12
f 845/173/16 847/168/16 859/172/16 861/171/16
f 843/173/13 841/168/13 856/172/13 857/171/13
f 761/168/15 776/172/15 777/171/15 763/173/15
f 767/168/14 779/172/14 781/171/14 765/173/14
f 456/174/6 441/173/6 445/168/6 461/172/6
f 521/173/6 525/168/6 541/172/6 536/174/6
f 376/174/6 361/173/6 365/168/6 381/172/6
f 616/174/6 601/173/6 605/168/6 621/172/6
f 449/156/1 451/175/1 450/168/1 448/173/1
f 936/174/6 921/173/6 925/168/6 941/172/6
f 369/156/10 371/175/10 370/168/10 368/173/10
f 528/173/9 529/156/9 531/175/9 530/168/9
f 696/174/6 681/173/6 685/168/6 701/172/6
f 928/173/2 929/156/2 931/175/2 930/168/2
f 856/174/6 841/173/6 845/168/6 861/172/6
f 761/173/6 765/168/6 781/172/6 776/174/6
f 609/156/3 611/175/3 610/168/3 608/173/3
f 848/173/8 849/156/8 851/175/8 850/168/8
f 689/156/7 691/175/7 690/168/7 688/173/7
f 769/156/4 771/175/4 770/168/4 768/173/4
f 441/173/18 443/156/18 447/175/18 445/168/18
f 523/156/17 527/175/17 525/168/17 521/173/17
f 363/156/16 367/175/16 365/168/16 361/173/16
f 603/156/15 607/175/15 605/168/15 601/173/15
f 921/173/14 923/156/14 927/175/14 925/168/14
f 683/156/13 687/175/13 685/168/13 681/173/13
f 843/156/12 847/175/12 845/168/12 841/173/12
f 763/156/11 767/175/11 765/168/11 761/173/11
