# Blender 5.1.0
# www.blender.org
mtllib waterwheel_large.mtl
o waterwheel_large_extension
v 0.375000 0.000000 0.625000
v 0.375000 0.000000 0.375000
v 0.375000 1.000000 0.625000
v 0.375000 1.000000 0.375000
v 0.625000 0.000000 0.375000
v 0.625000 0.000000 0.625000
v 0.625000 1.000000 0.375000
v 0.625000 1.000000 0.625000
v 0.062500 0.937500 0.937500
v 0.062500 0.937500 0.062500
v 0.062500 0.062500 0.937500
v 0.062500 0.062500 0.062500
v 0.937500 0.937500 0.937500
v 0.937500 0.937500 0.062500
v 0.937500 0.062500 0.937500
v 0.937500 0.062500 0.062500
v 0.500000 0.937500 -1.000000
v 1.069544 0.937500 -1.000000
v -0.069544 0.937500 -1.000000
v -0.069544 0.062500 -1.000000
v 0.500000 0.062500 -1.000000
v 1.069544 0.062500 -1.000000
v 1.560660 0.937500 -0.560660
v 1.963388 0.937500 -0.157932
v 1.157932 0.937500 -0.963388
v 1.157932 0.062500 -0.963388
v 1.560660 0.062500 -0.560660
v 1.963388 0.062500 -0.157932
v 2.000000 0.937500 0.500000
v 2.000000 0.937500 1.069544
v 2.000000 0.937500 -0.069543
v 2.000000 0.062500 -0.069543
v 2.000000 0.062500 0.500000
v 2.000000 0.062500 1.069544
v 1.560660 0.937500 1.560660
v 1.157932 0.937500 1.963388
v 1.963388 0.937500 1.157932
v 1.963388 0.062500 1.157932
v 1.560660 0.062500 1.560660
v 1.157932 0.062500 1.963388
v 0.500000 0.937500 2.000000
v -0.069544 0.937500 2.000000
v 1.069543 0.937500 2.000000
v 1.069543 0.062500 2.000000
v 0.500000 0.062500 2.000000
v -0.069544 0.062500 2.000000
v -0.560660 0.937500 1.560660
v -0.963388 0.937500 1.157932
v -0.157932 0.937500 1.963388
v -0.157932 0.062500 1.963388
v -0.560660 0.062500 1.560660
v -0.963388 0.062500 1.157932
v -1.000000 0.937500 0.500000
v -1.000000 0.937500 -0.069544
v -1.000000 0.937500 1.069543
v -1.000000 0.062500 1.069543
v -1.000000 0.062500 0.500000
v -1.000000 0.062500 -0.069544
v -0.560660 0.937500 -0.560660
v -0.157932 0.937500 -0.963388
v -0.963388 0.937500 -0.157932
v -0.963388 0.062500 -0.157932
v -0.560660 0.062500 -0.560660
v -0.157932 0.062500 -0.963388
v -1.937501 0.968750 0.437500
v -1.000000 0.968750 0.437500
v -1.937500 0.031250 0.437500
v -1.000000 0.031250 0.437500
v -1.937501 0.968750 0.562500
v -1.000000 0.968750 0.562500
v -1.937501 0.031250 0.562500
v -1.000000 0.031250 0.562500
v 0.187500 0.750000 0.812500
v 0.187500 0.750000 0.187500
v -0.062500 1.000000 0.750000
v -0.062500 1.000000 0.250000
v -0.062500 0.750000 0.250000
v -0.062500 0.750000 0.750000
v 0.187500 0.750000 0.250000
v 0.187500 0.750000 0.750000
v 0.187500 1.000000 0.250000
v 0.187500 1.000000 0.750000
v -0.062500 1.000000 -0.875000
v -0.062500 0.750000 -0.062500
v -0.062500 0.750000 -0.875000
v 0.187500 1.000000 -0.875000
v 0.187500 0.750000 -0.875000
v -0.062500 1.000000 -0.812500
v -0.062500 0.750000 -0.812500
v 0.187500 0.750000 -0.812500
v 0.187500 1.000000 -0.812500
v -0.062500 1.000000 1.812500
v -0.062500 0.750000 1.812500
v -0.062500 0.750000 1.062500
v 0.187500 0.750000 1.062500
v 0.125000 1.000000 1.000000
v 0.187500 1.000000 1.812500
v 0.187500 0.750000 1.812500
v -0.062500 1.000000 1.875000
v -0.062500 0.750000 1.875000
v 0.187500 0.750000 1.875000
v 0.187500 1.000000 1.875000
v 1.875000 1.000000 0.187500
v -0.875000 1.000000 0.187500
v 1.875000 0.750000 0.187500
v -0.875000 0.750000 0.187500
v 1.875000 1.000000 -0.062500
v -0.875000 1.000000 -0.062500
v 1.875000 0.750000 -0.062500
v -0.875000 0.750000 -0.062500
v -0.812500 1.000000 -0.062500
v -0.812500 1.000000 0.187500
v -0.812500 0.750000 0.187500
v -0.812500 0.750000 -0.062500
v 1.812500 1.000000 0.187500
v 1.812500 0.750000 0.187500
v 1.812500 1.000000 -0.062500
v 1.812500 0.750000 -0.062500
v 0.875000 1.000000 0.125000
v 0.875000 1.000000 0.875000
v 0.812500 0.750000 0.187500
v 0.812500 0.750000 0.812500
v 1.062500 1.000000 0.250000
v 1.062500 1.000000 0.750000
v 1.062500 0.750000 0.750000
v 1.062500 0.750000 0.250000
v 0.812500 0.750000 0.750000
v 0.812500 0.750000 0.250000
v 0.812500 1.000000 0.750000
v 0.812500 1.000000 0.250000
v 1.062500 1.000000 1.875000
v 1.062500 0.750000 1.062500
v 1.062500 0.750000 1.875000
v 0.875000 1.000000 1.000000
v 0.812500 1.000000 1.875000
v 0.812500 0.750000 1.062500
v 0.812500 0.750000 1.875000
v 1.062500 1.000000 1.812500
v 1.062500 0.750000 1.812500
v 0.812500 0.750000 1.812500
v 0.812500 1.000000 1.812500
v 1.062501 1.000000 -0.812500
v 1.062501 0.750000 -0.812500
v 0.812500 0.750000 -0.062500
v 0.875000 1.000000 -0.000000
v 0.812501 1.000000 -0.812500
v 0.812501 0.750000 -0.812500
v 1.062501 1.000000 -0.875000
v 1.062501 0.750000 -0.875000
v 0.812501 0.750000 -0.875000
v 0.812501 1.000000 -0.875000
v 0.000000 1.000000 0.875000
v 0.125000 1.000000 0.875000
v 1.000000 1.000000 1.000000
v -0.812500 0.750000 1.062500
v -0.812500 1.000000 1.062500
v -0.812500 0.750000 0.812500
v -0.812500 1.000000 0.812500
v 1.812500 0.750000 1.062500
v 1.812500 0.750000 0.812500
v 1.812500 1.000000 0.812500
v 1.812500 1.000000 1.062500
v 1.875000 0.750000 1.062500
v -0.875000 0.750000 1.062500
v 1.875000 1.000000 1.062500
v -0.875000 1.000000 1.062500
v 1.875000 0.750000 0.812500
v -0.875000 0.750000 0.812500
v 1.875000 1.000000 0.812500
v -0.875000 1.000000 0.812500
v 0.000000 1.000000 -0.000000
v 0.125000 1.000000 -0.000000
v 0.125000 1.000000 0.125000
v 1.062500 0.750000 -0.062500
v 1.000000 1.000000 0.125000
v 0.187500 0.750000 -0.062500
v 1.062500 0.750000 0.187500
v 1.000000 1.000000 -0.000000
v 0.000000 1.000000 0.125000
v -0.062500 0.750000 0.187500
v -0.062500 0.750000 0.812500
v 0.000000 1.000000 1.000000
v 1.000000 1.000000 0.875000
v 1.062500 0.750000 0.812500
v -0.062500 1.000000 0.187500
v 0.187500 1.000000 0.187500
v 0.187500 1.000000 -0.062500
v -0.062500 1.000000 -0.062500
v 1.062500 1.000000 -0.062500
v 1.062500 1.000000 0.187500
v 0.812500 1.000000 0.187500
v 0.812500 1.000000 -0.062500
v -0.062500 1.000000 1.062500
v -0.062500 1.000000 0.812500
v 0.187500 1.000000 0.812500
v 1.062500 1.000000 1.062500
v 1.062500 1.000000 0.812500
v 0.187500 1.000000 1.062500
v 0.812500 1.000000 0.812500
v 0.812500 1.000000 1.062500
v 0.187500 0.250000 0.812500
v 0.187500 0.250000 0.187500
v -0.062500 0.000000 0.750000
v -0.062500 0.000000 0.250000
v -0.062500 0.250000 0.250000
v -0.062500 0.250000 0.750000
v 0.187500 0.250000 0.250000
v 0.187500 0.250000 0.750000
v 0.187500 0.000000 0.250000
v 0.187500 0.000000 0.750000
v -0.062500 -0.000000 -0.875000
v -0.062500 0.250000 -0.062500
v -0.062500 0.250000 -0.875000
v 0.187500 -0.000000 -0.875000
v 0.187500 0.250000 -0.875000
v -0.062500 -0.000000 -0.812500
v -0.062500 0.250000 -0.812500
v 0.187500 0.250000 -0.812500
v 0.187500 -0.000000 -0.812500
v -0.062500 0.000000 1.812500
v -0.062500 0.250000 1.812500
v -0.062500 0.250000 1.062500
v 0.187500 0.250000 1.062500
v 0.187500 0.000000 1.812500
v 0.187500 0.250000 1.812500
v -0.062500 0.000000 1.875000
v -0.062500 0.250000 1.875000
v 0.187500 0.250000 1.875000
v 0.187500 0.000000 1.875000
v 1.875000 0.000000 0.187500
v -0.875000 0.000000 0.187500
v 1.875000 0.250000 0.187500
v -0.875000 0.250000 0.187500
v 1.875000 -0.000000 -0.062500
v -0.875000 -0.000000 -0.062500
v 1.875000 0.250000 -0.062500
v -0.875000 0.250000 -0.062500
v -0.812500 -0.000000 -0.062500
v -0.812500 0.000000 0.187500
v -0.812500 0.250000 0.187500
v -0.812500 0.250000 -0.062500
v 1.812500 0.000000 0.187500
v 1.812500 0.250000 0.187500
v 1.812500 -0.000000 -0.062500
v 1.812500 0.250000 -0.062500
v 0.812500 0.250000 0.187500
v 0.812500 0.250000 0.812500
v 1.062500 0.000000 0.250000
v 1.062500 0.000000 0.750000
v 1.062500 0.250000 0.750000
v 1.062500 0.250000 0.250000
v 0.812500 0.250000 0.750000
v 0.812500 0.250000 0.250000
v 0.812500 0.000000 0.750000
v 0.812500 0.000000 0.250000
v 1.062500 0.000000 1.875000
v 1.062500 0.250000 1.062500
v 1.062500 0.250000 1.875000
v 0.812500 0.000000 1.875000
v 0.812500 0.250000 1.062500
v 0.812500 0.250000 1.875000
v 1.062500 0.000000 1.812500
v 1.062500 0.250000 1.812500
v 0.812500 0.250000 1.812500
v 0.812500 0.000000 1.812500
v 1.062501 -0.000000 -0.812500
v 1.062501 0.250000 -0.812500
v 0.812500 0.250000 -0.062500
v 0.812501 -0.000000 -0.812500
v 0.812501 0.250000 -0.812500
v 1.062501 -0.000000 -0.875000
v 1.062501 0.250000 -0.875000
v 0.812501 0.250000 -0.875000
v 0.812501 -0.000000 -0.875000
v -0.812500 0.250000 1.062500
v -0.812500 0.000000 1.062500
v -0.812500 0.250000 0.812500
v -0.812500 0.000000 0.812500
v 1.812500 0.250000 1.062500
v 1.812500 0.250000 0.812500
v 1.812500 0.000000 0.812500
v 1.812500 0.000000 1.062500
v 1.875000 0.250000 1.062500
v -0.875000 0.250000 1.062500
v 1.875000 0.000000 1.062500
v -0.875000 0.000000 1.062500
v 1.875000 0.250000 0.812500
v -0.875000 0.250000 0.812500
v 1.875000 0.000000 0.812500
v -0.875000 0.000000 0.812500
v 1.062500 0.250000 -0.062500
v 0.187500 0.250000 -0.062500
v 1.062500 0.250000 0.187500
v -0.062500 0.250000 0.187500
v -0.062500 0.250000 0.812500
v 1.062500 0.250000 0.812500
v -0.062500 0.000000 0.187500
v 0.187500 0.000000 0.187500
v 0.187500 -0.000000 -0.062500
v -0.062500 -0.000000 -0.062500
v 1.062500 -0.000000 -0.062500
v 1.062500 0.000000 0.187500
v 0.812500 0.000000 0.187500
v 0.812500 -0.000000 -0.062500
v -0.062500 0.000000 1.062500
v -0.062500 0.000000 0.812500
v 0.187500 0.000000 0.812500
v 1.062500 0.000000 1.062500
v 1.062500 0.000000 0.812500
v 0.187500 0.000000 1.062500
v 0.812500 0.000000 0.812500
v 0.812500 0.000000 1.062500
v 1.298342 1.093750 -1.672348
v 0.939576 0.906250 -0.806211
v 1.298342 0.906250 -1.672348
v 1.011329 1.093750 -0.979439
v 1.471569 1.093750 -1.600595
v 1.112803 0.906250 -0.734458
v 1.471569 0.906250 -1.600595
v 2.024699 1.093750 -1.157282
v 2.024699 0.906250 -1.157282
v 2.157282 1.093750 -1.024699
v 2.157282 0.906250 -1.024699
v 1.847923 1.093750 -0.980505
v 1.847923 0.906250 -0.980505
v 1.980505 0.906250 -0.847923
v 1.980505 1.093750 -0.847923
v 1.202671 1.093750 -1.441378
v 1.202671 0.906250 -1.441378
v 1.178753 0.906250 -1.383636
v 1.375898 0.906250 -1.369625
v 1.351981 0.906250 -1.311882
v 1.375898 1.093750 -1.369625
v 0.939576 1.093750 -0.806211
v 1.112803 1.093750 -0.734458
v 1.178753 1.093750 -1.383636
v 1.351981 1.093750 -1.311882
v 1.083082 1.093750 -1.152666
v 1.083082 0.906250 -1.152666
v 1.011329 0.906250 -0.979438
v 1.256310 0.906250 -1.080913
v 1.184556 0.906250 -0.907685
v 1.256310 1.093750 -1.080913
v 1.184556 1.093750 -0.907685
v 1.102896 1.093750 -0.873860
v 1.045154 1.093750 -0.897778
v 1.126814 1.093750 -0.931603
v 1.069072 1.093750 -0.955521
v 1.198567 1.093750 -1.104830
v 1.140825 1.093750 -1.128748
v 1.222485 1.093750 -1.162573
v 1.164742 1.093750 -1.186491
v 2.600595 1.093750 -0.471569
v 1.734458 0.906250 -0.112803
v 2.600595 0.906250 -0.471569
v 1.907686 1.093750 -0.184557
v 2.672348 1.093750 -0.298342
v 1.806211 0.906250 0.060424
v 2.672348 0.906250 -0.298342
v 2.750000 1.093750 0.406250
v 2.750000 0.906250 0.406250
v 2.750000 1.093750 0.593750
v 2.750000 0.906250 0.593750
v 2.500000 1.093750 0.406250
v 2.500000 0.906250 0.406250
v 2.500001 0.906250 0.593750
v 2.500001 1.093750 0.593750
v 2.369625 1.093750 -0.375898
v 2.369625 0.906250 -0.375898
v 2.311882 0.906250 -0.351981
v 2.441378 0.906250 -0.202671
v 2.383636 0.906250 -0.178753
v 2.441378 1.093750 -0.202671
v 1.734458 1.093750 -0.112804
v 1.806211 1.093750 0.060424
v 2.311883 1.093750 -0.351981
v 2.383636 1.093750 -0.178753
v 2.080913 1.093750 -0.256310
v 2.080913 0.906250 -0.256310
v 1.907685 0.906250 -0.184557
v 2.152666 0.906250 -0.083082
v 1.979438 0.906250 -0.011329
v 2.152666 1.093750 -0.083082
v 1.979438 1.093750 -0.011329
v 1.897778 1.093750 -0.045154
v 1.873861 1.093750 -0.102897
v 1.955521 1.093750 -0.069072
v 1.931603 1.093750 -0.126814
v 2.128748 1.093750 -0.140825
v 2.104831 1.093750 -0.198567
v 2.186491 1.093750 -0.164742
v 2.162573 1.093750 -0.222485
v 2.672348 1.093750 1.298342
v 1.806211 0.906250 0.939576
v 2.672348 0.906250 1.298342
v 1.979439 1.093750 1.011329
v 2.600595 1.093750 1.471569
v 1.734458 0.906250 1.112803
v 2.600595 0.906250 1.471569
v 2.157282 1.093750 2.024699
v 2.157282 0.906250 2.024699
v 2.024699 1.093750 2.157282
v 2.024699 0.906250 2.157282
v 1.980505 1.093750 1.847922
v 1.980505 0.906250 1.847922
v 1.847923 0.906250 1.980505
v 1.847923 1.093750 1.980505
v 2.441378 1.093750 1.202671
v 2.441378 0.906250 1.202671
v 2.383636 0.906250 1.178753
v 2.369625 0.906250 1.375898
v 2.311882 0.906250 1.351980
v 2.369625 1.093750 1.375898
v 1.806211 1.093750 0.939576
v 1.734458 1.093750 1.112803
v 2.383636 1.093750 1.178753
v 2.311882 1.093750 1.351980
v 2.152666 1.093750 1.083082
v 2.152666 0.906250 1.083082
v 1.979438 0.906250 1.011329
v 2.080913 0.906250 1.256310
v 1.907685 0.906250 1.184556
v 2.080913 1.093750 1.256310
v 1.907685 1.093750 1.184556
v 1.873861 1.093750 1.102896
v 1.897779 1.093750 1.045154
v 1.931603 1.093750 1.126814
v 1.955521 1.093750 1.069072
v 2.104831 1.093750 1.198567
v 2.128748 1.093750 1.140825
v 2.162573 1.093750 1.222485
v 2.186491 1.093750 1.164742
v 1.471570 1.093750 2.600595
v 1.112804 0.906250 1.734458
v 1.471570 0.906250 2.600595
v 1.184557 1.093750 1.907686
v 1.298342 1.093750 2.672348
v 0.939576 0.906250 1.806211
v 1.298342 0.906250 2.672348
v 0.593750 1.093750 2.750000
v 0.593750 0.906250 2.750000
v 0.406250 1.093750 2.750001
v 0.406250 0.906250 2.750000
v 0.593750 1.093750 2.500000
v 0.593750 0.906250 2.500000
v 0.406250 0.906250 2.500001
v 0.406250 1.093750 2.500001
v 1.375898 1.093750 2.369626
v 1.375898 0.906250 2.369625
v 1.351981 0.906250 2.311882
v 1.202671 0.906250 2.441378
v 1.178753 0.906250 2.383636
v 1.202671 1.093750 2.441378
v 1.112804 1.093750 1.734458
v 0.939576 1.093750 1.806211
v 1.351981 1.093750 2.311883
v 1.178753 1.093750 2.383636
v 1.256310 1.093750 2.080913
v 1.256310 0.906250 2.080913
v 1.184557 0.906250 1.907685
v 1.083082 0.906250 2.152666
v 1.011329 0.906250 1.979438
v 1.083082 1.093750 2.152666
v 1.011329 1.093750 1.979438
v 1.045154 1.093750 1.897778
v 1.102897 1.093750 1.873861
v 1.069072 1.093750 1.955521
v 1.126814 1.093750 1.931603
v 1.140825 1.093750 2.128748
v 1.198567 1.093750 2.104831
v 1.164743 1.093749 2.186491
v 1.222485 1.093750 2.162573
v -0.298342 1.093750 2.672348
v 0.060424 0.906250 1.806211
v -0.298342 0.906250 2.672348
v -0.011329 1.093750 1.979439
v -0.471569 1.093750 2.600595
v -0.112803 0.906250 1.734458
v -0.471569 0.906250 2.600595
v -1.024699 1.093750 2.157282
v -1.024699 0.906250 2.157282
v -1.157281 1.093750 2.024700
v -1.157281 0.906250 2.024699
v -0.847922 1.093750 1.980505
v -0.847922 0.906250 1.980505
v -0.980505 0.906250 1.847923
v -0.980505 1.093750 1.847923
v -0.202671 1.093750 2.441379
v -0.202671 0.906250 2.441378
v -0.178753 0.906250 2.383636
v -0.375898 0.906250 2.369625
v -0.351980 0.906250 2.311883
v -0.375898 1.093750 2.369625
v 0.060424 1.093750 1.806211
v -0.112803 1.093750 1.734458
v -0.178753 1.093750 2.383636
v -0.351981 1.093750 2.311883
v -0.083082 1.093750 2.152666
v -0.083082 0.906250 2.152666
v -0.011329 0.906250 1.979439
v -0.256310 0.906250 2.080913
v -0.184556 0.906250 1.907685
v -0.256310 1.093750 2.080913
v -0.184556 1.093750 1.907685
v -0.102896 1.093750 1.873861
v -0.045154 1.093750 1.897779
v -0.126814 1.093750 1.931603
v -0.069072 1.093750 1.955521
v -0.198567 1.093750 2.104831
v -0.140825 1.093750 2.128748
v -0.222485 1.093750 2.162573
v -0.164742 1.093750 2.186491
v -1.600595 1.093750 1.471570
v -0.734458 0.906250 1.112804
v -1.600595 0.906250 1.471570
v -0.907685 1.093750 1.184557
v -1.672348 1.093750 1.298342
v -0.806211 0.906250 0.939576
v -1.672348 0.906250 1.298342
v -1.750000 1.093750 0.593750
v -1.750000 0.906250 0.593750
v -1.750000 1.093750 0.406250
v -1.750000 0.906250 0.406250
v -1.500000 1.093750 0.593750
v -1.500000 0.906250 0.593750
v -1.500000 0.906250 0.406250
v -1.500000 1.093750 0.406250
v -1.369625 1.093750 1.375899
v -1.369625 0.906250 1.375899
v -1.311882 0.906250 1.351981
v -1.441378 0.906250 1.202671
v -1.383636 0.906250 1.178754
v -1.441378 1.093750 1.202671
v -0.734458 1.093750 1.112804
v -0.806211 1.093750 0.939576
v -1.311882 1.093750 1.351981
v -1.383636 1.093750 1.178754
v -1.080913 1.093750 1.256310
v -1.080913 0.906250 1.256310
v -0.907685 0.906250 1.184557
v -1.152666 0.906250 1.083083
v -0.979438 0.906250 1.011330
v -1.152666 1.093750 1.083083
v -0.979438 1.093750 1.011330
v -0.897778 1.093750 1.045154
v -0.873861 1.093750 1.102897
v -0.955521 1.093750 1.069072
v -0.931603 1.093750 1.126815
v -1.128748 1.093750 1.140825
v -1.104831 1.093750 1.198568
v -1.186491 1.093750 1.164743
v -1.162573 1.093750 1.222485
v -1.672348 1.093750 -0.298341
v -0.806211 0.906250 0.060424
v -1.672348 0.906250 -0.298341
v -0.979439 1.093750 -0.011329
v -1.600595 1.093750 -0.471569
v -0.734458 0.906250 -0.112803
v -1.600595 0.906250 -0.471569
v -1.157282 1.093750 -1.024699
v -1.157282 0.906250 -1.024699
v -1.024700 1.093750 -1.157281
v -1.024700 0.906250 -1.157281
v -0.980505 1.093750 -0.847922
v -0.980505 0.906250 -0.847922
v -0.847923 0.906250 -0.980505
v -0.847923 1.093750 -0.980505
v -1.441378 1.093750 -0.202670
v -1.441379 0.906250 -0.202671
v -1.383636 0.906250 -0.178753
v -1.369625 0.906250 -0.375898
v -1.311883 0.906250 -0.351980
v -1.369625 1.093750 -0.375898
v -0.806211 1.093750 0.060424
v -0.734458 1.093750 -0.112803
v -1.383636 1.093750 -0.178753
v -1.311882 1.093750 -0.351980
v -1.152666 1.093750 -0.083082
v -1.152666 0.906250 -0.083082
v -0.979439 0.906250 -0.011329
v -1.080913 0.906250 -0.256309
v -0.907686 0.906250 -0.184556
v -1.080913 1.093750 -0.256309
v -0.907685 1.093750 -0.184556
v -0.873861 1.093750 -0.102896
v -0.897779 1.093750 -0.045154
v -0.931603 1.093750 -0.126814
v -0.955521 1.093750 -0.069071
v -1.104831 1.093750 -0.198567
v -1.128748 1.093750 -0.140824
v -1.162573 1.093750 -0.222485
v -1.186491 1.093750 -0.164742
v -0.471570 1.093750 -1.600595
v -0.112804 0.906250 -0.734458
v -0.471570 0.906250 -1.600595
v -0.184557 1.093750 -0.907685
v -0.298343 1.093750 -1.672348
v 0.060423 0.906250 -0.806211
v -0.298343 0.906250 -1.672348
v 0.406249 1.093750 -1.750000
v 0.406249 0.906250 -1.750000
v 0.593749 1.093750 -1.750000
v 0.593749 0.906250 -1.750000
v 0.406249 1.093750 -1.500000
v 0.406249 0.906250 -1.500000
v 0.593749 0.906250 -1.500001
v 0.593749 1.093750 -1.500000
v -0.375899 1.093750 -1.369625
v -0.375899 0.906250 -1.369625
v -0.351981 0.906250 -1.311882
v -0.202672 0.906250 -1.441378
v -0.178754 0.906250 -1.383636
v -0.202672 1.093750 -1.441378
v -0.112804 1.093750 -0.734458
v 0.060423 1.093750 -0.806211
v -0.351981 1.093750 -1.311882
v -0.178754 1.093750 -1.383636
v -0.256310 1.093750 -1.080913
v -0.256310 0.906250 -1.080913
v -0.184557 0.906250 -0.907685
v -0.083083 0.906250 -1.152666
v -0.011330 0.906250 -0.979438
v -0.083083 1.093750 -1.152666
v -0.011330 1.093750 -0.979438
v -0.045154 1.093750 -0.897778
v -0.102897 1.093750 -0.873860
v -0.069072 1.093750 -0.955521
v -0.126815 1.093750 -0.931603
v -0.140825 1.093750 -1.128748
v -0.198568 1.093750 -1.104831
v -0.164743 1.093750 -1.186491
v -0.222486 1.093750 -1.162573
v 1.069544 0.937500 -0.875000
v 1.069544 0.062500 -0.875000
v 1.069544 1.062500 -0.875000
v 1.875000 0.937500 -0.069544
v 1.472272 0.062500 -0.472272
v 1.875000 0.062500 -0.069544
v 1.472272 0.937500 -0.472272
v 2.002602 1.062500 -1.002602
v 2.625000 1.062500 -0.380204
v 1.875000 1.062500 -0.069544
v 1.875000 0.062500 0.500000
v 1.875000 0.937500 1.069544
v 1.875000 0.062500 1.069544
v 1.875000 0.937500 0.500000
v 2.625000 1.062499 1.380204
v 1.875000 1.062500 0.500000
v -1.002602 0.937500 -1.002602
v 1.069544 0.062500 1.875000
v 1.472272 0.062500 1.472272
v -1.625000 0.937500 -0.380204
v 1.472271 0.937500 1.472272
v 1.069544 0.937500 1.875000
v 1.472272 1.062500 1.472272
v 0.500000 0.062500 1.875000
v -0.069544 0.937500 1.875000
v -0.069544 0.062500 1.875000
v -0.069544 0.937499 1.875000
v 0.500000 0.937500 1.875000
v 0.500000 0.937500 1.875000
v 0.500000 1.062500 2.625000
v -0.380204 1.062499 2.625000
v 0.500000 0.937499 2.625000
v -0.472272 0.062500 1.472272
v -0.875000 0.062500 1.069544
v 1.069544 0.937499 1.875000
v 1.472272 0.937500 1.472272
v -0.875000 0.937500 1.069544
v 2.002601 0.937500 2.002602
v -0.472272 0.937500 1.472272
v -1.002601 1.062499 2.002602
v 1.875000 0.937500 1.069544
v -0.875000 0.062500 -0.069543
v 2.625000 0.937500 0.500000
v -0.875000 0.937500 -0.069544
v -0.875000 0.062500 0.500000
v -0.875000 0.937500 0.500000
v -1.624999 1.062500 0.500000
v -1.625000 1.062500 -0.380204
v -0.472272 0.062500 -0.472272
v -0.069544 0.937500 -0.875000
v -0.069544 0.062500 -0.875000
v 1.380204 0.937500 -1.625000
v -0.472272 0.937500 -0.472272
v -0.472272 1.062500 -0.472272
v -0.069543 0.062500 -0.875000
v -0.069544 0.937500 -0.875000
v 0.500000 0.062500 -0.875000
v 1.069544 0.937500 -0.875000
v 1.069544 0.062500 -0.875000
v 0.500000 0.937500 -0.875000
v 1.069544 0.937500 -0.875000
v 0.500000 0.937500 -1.625000
v 0.500000 0.937500 -0.875000
v 0.500000 1.062500 -1.625000
v 1.380204 1.062500 -1.625000
v 0.500000 1.062500 -0.875000
v 1.875000 0.937500 -0.069544
v 2.002601 0.937500 -1.002602
v 2.625000 0.937500 -0.380204
v 1.472272 0.937500 -0.472272
v 1.472272 1.062500 -0.472272
v 2.625000 0.937499 1.380203
v 1.875000 0.937500 0.500000
v 2.625000 1.062500 0.500000
v 1.875000 1.062500 1.069544
v 1.380204 0.937499 2.625000
v 2.002602 1.062500 2.002602
v 1.380204 1.062499 2.625000
v 1.069544 1.062499 1.875000
v -0.380204 0.937499 2.625000
v 0.500000 1.062500 1.875000
v -0.069544 1.062499 1.875000
v -0.875000 0.937500 1.069544
v -1.002602 0.937499 2.002602
v -1.625000 0.937499 1.380204
v -0.472272 0.937500 1.472272
v -1.625000 1.062500 1.380204
v -0.472272 1.062500 1.472272
v -0.875000 1.062500 1.069544
v -0.875000 0.937500 -0.069544
v -1.624999 0.937500 0.500000
v -0.875000 0.937500 0.500000
v -0.875000 1.062500 0.500000
v -0.875000 1.062500 -0.069544
v -0.069544 0.937500 -0.875000
v -0.380204 0.937500 -1.625000
v -0.472272 0.937500 -0.472272
v -1.002602 1.062500 -1.002602
v -0.380204 1.062500 -1.625000
v -0.069544 1.062500 -0.875000
v -1.728039 0.968750 -0.490534
v -0.861902 0.968750 -0.131768
v -1.728039 0.031250 -0.490533
v -0.861901 0.031250 -0.131768
v -1.775875 0.968750 -0.375049
v -0.909737 0.968750 -0.016283
v -1.775875 0.031250 -0.375048
v -0.909737 0.031250 -0.016283
v -1.179379 0.968750 -1.267767
v -0.516466 0.968750 -0.604855
v -1.179379 0.031250 -1.267767
v -0.516466 0.031250 -0.604854
v -1.267767 0.968750 -1.179379
v -0.604854 0.968750 -0.516466
v -1.267768 0.031250 -1.179379
v -0.604854 0.031250 -0.516466
v -0.375048 0.968750 -1.775875
v -0.016282 0.968750 -0.909737
v -0.375048 0.031250 -1.775874
v -0.016282 0.031250 -0.909737
v -0.490533 0.968750 -1.728039
v -0.131768 0.968750 -0.861902
v -0.490534 0.031250 -1.728039
v -0.131768 0.031250 -0.861902
v 0.562500 0.968750 -1.937500
v 0.562500 0.968750 -1.000000
v 0.562500 0.031250 -1.937500
v 0.562500 0.031250 -1.000000
v 0.437500 0.968750 -1.937500
v 0.437500 0.968750 -1.000000
v 0.437500 0.031250 -1.937501
v 0.437500 0.031250 -1.000000
v 1.490534 0.968750 -1.728039
v 1.131768 0.968750 -0.861901
v 1.490534 0.031250 -1.728039
v 1.131768 0.031250 -0.861901
v 1.375049 0.968750 -1.775874
v 1.016283 0.968750 -0.909737
v 1.375049 0.031250 -1.775875
v 1.016283 0.031250 -0.909737
v 2.267767 0.968750 -1.179378
v 1.604855 0.968750 -0.516466
v 2.267767 0.031250 -1.179378
v 1.604854 0.031250 -0.516466
v 2.179379 0.968750 -1.267767
v 1.516466 0.968750 -0.604854
v 2.179379 0.031250 -1.267767
v 1.516466 0.031250 -0.604854
v 2.775874 0.968750 -0.375048
v 1.909737 0.968750 -0.016282
v 2.775874 0.031250 -0.375048
v 1.909737 0.031250 -0.016282
v 2.728039 0.968750 -0.490533
v 1.861902 0.968750 -0.131767
v 2.728039 0.031250 -0.490533
v 1.861902 0.031250 -0.131767
v 2.937500 0.968750 0.562501
v 2.000000 0.968750 0.562501
v 2.937500 0.031250 0.562500
v 2.000000 0.031250 0.562500
v 2.937500 0.968750 0.437501
v 2.000000 0.968750 0.437500
v 2.937500 0.031250 0.437500
v 2.000000 0.031250 0.437500
v 2.728038 0.968750 1.490534
v 1.861901 0.968750 1.131768
v 2.728038 0.031250 1.490534
v 1.861901 0.031250 1.131768
v 2.775874 0.968750 1.375049
v 1.909737 0.968750 1.016283
v 2.775874 0.031250 1.375049
v 1.909737 0.031250 1.016283
v 2.179378 0.968750 2.267767
v 1.516466 0.968750 1.604855
v 2.179378 0.031250 2.267767
v 1.516466 0.031250 1.604855
v 2.267766 0.968750 2.179379
v 1.604854 0.968750 1.516466
v 2.267767 0.031250 2.179379
v 1.604854 0.031250 1.516466
v 1.375048 0.968750 2.775874
v 1.016282 0.968750 1.909737
v 1.375048 0.031250 2.775874
v 1.016282 0.031250 1.909737
v 1.490533 0.968750 2.728039
v 1.131767 0.968750 1.861902
v 1.490533 0.031250 2.728039
v 1.131767 0.031250 1.861902
v 0.437499 0.968750 2.937500
v 0.437499 0.968750 2.000000
v 0.437499 0.031250 2.937500
v 0.437499 0.031250 2.000000
v 0.562499 0.968750 2.937500
v 0.562499 0.968750 2.000000
v 0.562499 0.031250 2.937500
v 0.562499 0.031250 2.000000
v -0.490534 0.968750 2.728038
v -0.131768 0.968750 1.861901
v -0.490534 0.031250 2.728038
v -0.131768 0.031250 1.861901
v -0.375049 0.968750 2.775874
v -0.016283 0.968750 1.909737
v -0.375049 0.031250 2.775874
v -0.016283 0.031250 1.909737
v -1.267768 0.968750 2.179378
v -0.604855 0.968750 1.516465
v -1.267767 0.031250 2.179378
v -0.604855 0.031250 1.516466
v -1.179379 0.968750 2.267766
v -0.516466 0.968750 1.604854
v -1.179379 0.031250 2.267766
v -0.516466 0.031250 1.604854
v -1.775874 0.968750 1.375047
v -0.909737 0.968750 1.016282
v -1.775874 0.031250 1.375047
v -0.909737 0.031250 1.016282
v -1.728039 0.968750 1.490532
v -0.861902 0.968750 1.131767
v -1.728039 0.031250 1.490533
v -0.861902 0.031250 1.131767
vn -0.0000 -0.0000 -1.0000
vn -1.0000 -0.0000 -0.0000
vn 1.0000 -0.0000 -0.0000
vn -0.0000 -0.0000 1.0000
vn -0.0000 1.0000 -0.0000
vn 0.7071 -0.0000 0.7071
vn -0.7071 -0.0000 0.7071
vn 0.7071 -0.0000 -0.7071
vn -0.7071 -0.0000 -0.7071
vn -0.0000 -1.0000 -0.0000
vn 0.3827 -0.0000 0.9239
vn 0.9239 -0.0000 0.3827
vn -0.3827 -0.0000 0.9239
vn 0.9239 -0.0000 -0.3827
vn -0.9239 -0.0000 0.3827
vn 0.3827 -0.0000 -0.9239
vn -0.9239 -0.0000 -0.3827
vn -0.3827 -0.0000 -0.9239
vt 0.375000 1.000000
vt 0.375000 0.000000
vt 0.625000 0.000000
vt 0.625000 1.000000
vt 0.375000 0.375000
vt 0.625000 0.375000
vt 0.625000 0.625000
vt 0.375000 0.625000
vt 0.062500 0.937500
vt 0.062500 0.062500
vt 0.937500 0.062500
vt 0.937500 0.937500
vt 0.562500 0.968750
vt 0.562500 0.093750
vt 0.000000 0.093750
vt 0.000000 0.968750
vt 0.187500 0.750000
vt 0.812500 0.750000
vt 0.812500 1.000000
vt 0.187500 1.000000
vt 0.937500 0.500000
vt 0.937500 0.750000
vt 0.437500 0.750000
vt 0.437500 0.500000
vt 0.625000 0.500000
vt 0.625000 0.562500
vt 0.375000 0.562500
vt 0.375000 0.500000
vt 0.187500 0.500000
vt 0.812500 0.500000
vt 0.937500 0.000000
vt 0.937500 0.250000
vt 0.437500 0.250000
vt 0.437500 0.000000
vt 0.812500 0.562500
vt 0.562500 0.562500
vt 0.562500 0.500000
vt 0.187500 0.000000
vt 0.812500 0.000000
vt 0.812500 0.250000
vt 0.187500 0.250000
vt 0.437500 1.000000
vt 0.937500 1.000000
vt 0.875000 0.562500
vt 0.875000 0.500000
vt 0.500000 0.562500
vt 0.250000 0.562500
vt 0.250000 0.500000
vt 0.500000 0.500000
vt 0.750000 0.750000
vt 0.687500 0.812500
vt 0.687500 0.937500
vt 0.750000 1.000000
vt 0.562500 0.937500
vt 0.500000 1.000000
vt 0.562500 0.750000
vt 0.562500 1.000000
vt 0.624903 0.937500
vt 0.624903 0.812500
vt 0.812113 1.000000
vt 0.749710 0.937500
vt 0.062500 0.250000
vt 0.062500 0.500000
vt 0.000000 0.500000
vt 0.000000 0.250000
vt 0.750000 0.312500
vt 0.125000 0.312500
vt 0.125000 0.062500
vt 0.750000 0.062500
vt 0.125000 0.250000
vt 0.062500 0.000000
vt 0.125000 0.000000
vt 0.687500 0.500000
vt 0.687500 0.562500
vt 0.437500 0.562500
vt 0.187500 0.562500
vt 0.750000 0.500000
vt 0.750000 0.250000
vt 0.500000 0.250000
vt 0.812113 0.500000
vt 0.812113 0.250000
vt 0.562500 0.250000
vt 0.500000 0.750000
vt 0.562500 0.812500
vt 0.812113 0.750000
vt 0.749710 0.812500
vt 0.000000 1.000000
vt 0.000000 0.750000
vt 0.057468 0.250000
vt 0.057468 0.000000
vt 0.812113 0.000000
vt 0.057468 1.000000
vt 0.057468 0.750000
vt 0.750000 0.000000
vt 0.000000 0.000000
vt 0.057468 0.500000
vt 0.750000 0.562500
vt 0.250000 0.750000
vt 0.500000 0.812500
vt 0.250000 0.812500
vt 0.250000 0.062500
vt 0.000000 0.062500
vt 0.250000 -0.000000
vt 0.687500 0.375000
vt 0.687500 0.250000
vt 0.125000 0.375000
vt 0.875000 0.375000
vt 0.875000 0.250000
vt 0.312500 0.250000
vt 0.312500 0.375000
vt 0.000000 0.812500
vt 1.000000 0.062500
vt 1.000000 -0.000000
vt 0.750000 0.812500
vt 0.500000 0.062500
vt 0.500000 -0.000000
vt 0.375000 0.812500
vt 0.500000 0.875000
vt 0.500000 0.937500
vt 1.000000 0.750000
vt 1.000000 0.812500
vt 0.562500 0.000000
vt 0.562500 0.187500
vt 0.375000 0.187500
vt 0.375000 0.312500
vt 0.562500 0.312500
vt 0.562500 0.875000
vt 0.750000 0.187500
vt 0.312500 0.937500
vt 0.250000 0.937500
vt 0.312500 0.750000
vt 0.750000 0.937500
vt 0.750000 0.875000
vt 0.125000 1.000000
vt 1.000000 1.000000
vt 0.875000 1.000000
vt 0.812500 0.937500
vt 0.812500 0.875000
vt 1.000000 0.000000
vt 1.000000 0.187500
vt 1.000000 0.312500
vt 1.000000 0.500000
vt 0.062500 0.312500
vt 1.000000 0.437500
vt 0.062500 0.437500
vt 0.062500 1.000000
vt 0.250000 0.250000
vt 0.250000 0.312500
vt 0.625000 0.250000
vt 0.625000 0.312500
vt 0.437500 0.312500
vt 0.812500 0.812500
vt 0.625000 0.812500
vt 0.625000 0.750000
vt 0.125000 0.875000
vt 1.000000 0.875000
vt 0.000000 0.875000
vt 0.875000 0.875000
vt 1.000000 0.625000
vt 0.062500 0.625000
vt 0.062500 0.750000
vt 0.125000 0.500000
vt 0.125000 0.562500
vt 0.062500 0.562500
vt 0.187500 0.625000
vt 0.187500 0.687500
vt 0.125000 0.687500
vt 0.125000 0.625000
vt -0.000000 0.437500
vt 0.187500 0.437500
vt -0.000000 0.687500
vt 0.187500 0.875000
s 1
usemtl axis
f 2/1/1 4/2/1 7/3/1 5/4/1
f 1/1/2 3/2/2 4/3/2 2/4/2
f 5/1/3 7/2/3 8/3/3 6/4/3
f 6/1/4 8/2/4 3/3/4 1/4/4
usemtl axis_top
f 8/5/5 7/6/5 4/7/5 3/8/5
usemtl waterwheel_stripped_log
f 9/9/5 13/10/5 14/11/5 10/12/5
usemtl waterwheel_log
f 14/9/1 16/10/1 12/11/1 10/12/1
f 11/9/2 9/10/2 10/11/2 12/12/2
f 13/9/3 15/10/3 16/11/3 14/12/3
f 9/9/4 11/10/4 15/11/4 13/12/4
f 683/13/6 682/14/6 685/15/6 681/16/6
f 676/15/6 674/16/6 681/13/6 685/14/6
f 688/15/4 687/16/4 689/13/4 692/14/4
f 674/13/3 676/14/3 678/15/3 677/16/3
f 690/14/4 692/15/4 689/16/4 691/13/4
f 669/15/3 666/16/3 677/13/3 678/14/3
f 633/15/7 634/16/7 637/13/7 639/14/7
f 666/13/8 669/14/8 671/15/8 665/16/8
f 638/13/7 636/14/7 639/15/7 637/16/7
f 657/15/8 658/16/8 665/13/8 671/14/8
f 636/15/2 638/16/2 643/13/2 646/14/2
f 657/14/1 661/15/1 656/16/1 658/13/1
f 644/14/2 646/15/2 643/16/2 645/13/2
f 654/15/1 650/16/1 656/13/1 661/14/1
f 644/15/9 645/16/9 651/13/9 653/14/9
f 650/13/9 654/14/9 653/15/9 651/16/9
f 63/16/9 59/15/9 60/14/9 64/13/9
f 61/15/9 59/14/9 63/13/9 62/16/9
f 20/16/1 19/15/1 17/14/1 21/13/1
f 57/16/2 53/15/2 54/14/2 58/13/2
f 21/16/1 17/15/1 18/14/1 22/13/1
f 55/15/2 53/14/2 57/13/2 56/16/2
f 25/15/8 23/14/8 27/13/8 26/16/8
f 51/16/7 47/15/7 48/14/7 52/13/7
f 27/16/8 23/15/8 24/14/8 28/13/8
f 50/16/7 49/15/7 47/14/7 51/13/7
f 32/16/3 31/15/3 29/14/3 33/13/3
f 45/16/4 41/15/4 42/14/4 46/13/4
f 29/15/3 30/14/3 34/13/3 33/16/3
f 44/16/4 43/15/4 41/14/4 45/13/4
f 37/15/6 35/14/6 39/13/6 38/16/6
f 39/16/6 35/15/6 36/14/6 40/13/6
usemtl waterwheel_plank
f 191/17/4 186/18/4 74/19/4 121/20/4
f 82/21/3 80/22/3 79/23/3 81/24/3
f 129/24/2 130/21/2 128/22/2 127/23/2
f 195/17/1 199/18/1 122/19/1 73/20/1
f 186/25/3 81/26/3 79/27/3 74/28/3
f 191/17/5 192/29/5 187/30/5 186/18/5
f 75/31/5 82/32/5 81/33/5 76/34/5
f 195/35/3 73/36/3 80/37/3 82/30/3
f 130/30/2 191/35/2 121/36/2 128/37/2
f 124/34/5 123/31/5 130/32/5 129/33/5
f 195/17/5 198/29/5 200/30/5 199/18/5
f 129/26/2 127/27/2 122/28/2 199/25/2
f 121/38/10 74/39/10 176/40/10 144/41/10
f 80/42/10 78/23/10 77/22/10 79/43/10
f 76/44/5 81/26/5 186/25/5 185/45/5
f 128/42/10 126/23/10 125/22/10 127/43/10
f 194/46/5 195/47/5 82/48/5 75/49/5
f 73/38/10 122/39/10 136/40/10 95/41/10
f 190/46/5 191/47/5 130/48/5 123/49/5
f 187/50/5 172/51/5 173/52/5 186/53/5
f 186/53/5 173/52/5 179/54/5 185/55/5
f 197/45/5 124/44/5 129/26/5 199/25/5
f 192/56/5 191/57/5 119/58/5 145/59/5
f 194/60/5 152/61/5 153/58/5 195/57/5
f 190/60/5 175/61/5 119/58/5 191/57/5
f 79/62/10 77/63/10 180/64/10 74/65/10
f 195/57/5 153/58/5 96/59/5 198/56/5
f 144/66/1 176/67/1 187/68/1 192/69/1
f 78/21/2 75/22/2 76/23/2 77/24/2
f 73/62/10 181/63/10 78/64/10 80/65/10
f 199/53/5 120/52/5 183/54/5 197/55/5
f 200/50/5 134/51/5 120/52/5 199/53/5
f 128/70/10 121/62/10 177/71/10 126/72/10
f 126/21/3 123/22/3 124/23/3 125/24/3
f 95/38/4 136/39/4 200/40/4 198/41/4
f 127/62/10 125/71/10 184/72/10 122/70/10
f 77/24/2 76/73/2 185/74/2 180/75/2
f 181/29/2 194/24/2 75/75/2 78/76/2
f 177/29/3 190/24/3 123/75/3 126/76/3
f 176/77/10 74/78/10 180/79/10 84/49/10
f 125/24/3 124/73/3 197/74/3 184/75/3
f 174/80/10 177/81/10 121/82/10 144/37/10
f 188/83/5 171/84/5 172/51/5 187/50/5
f 185/55/5 179/54/5 171/84/5 188/83/5
f 181/81/10 73/82/10 95/37/10 94/80/10
f 189/85/5 192/56/5 145/59/5 178/86/5
f 136/77/10 122/78/10 184/79/10 132/49/10
f 193/85/5 182/86/5 152/61/5 194/60/5
f 189/85/5 178/86/5 175/61/5 190/60/5
f 193/85/5 198/56/5 96/59/5 182/86/5
f 197/55/5 183/54/5 154/84/5 196/83/5
f 200/50/5 196/83/5 154/84/5 134/51/5
f 292/40/5 202/39/5 246/38/5 268/41/5
f 205/22/5 206/23/5 208/42/5 207/43/5
f 250/22/5 251/23/5 253/42/5 252/43/5
f 260/40/5 247/39/5 201/38/5 223/41/5
f 294/64/5 205/63/5 207/62/5 202/65/5
f 206/64/5 295/63/5 201/62/5 208/65/5
f 253/70/5 251/72/5 293/71/5 246/62/5
f 296/72/5 250/71/5 252/62/5 247/70/5
f 202/19/4 298/18/4 303/17/4 246/20/4
f 209/24/3 207/23/3 208/22/3 210/21/3
f 252/23/2 253/22/2 255/21/2 254/24/2
f 247/19/1 311/18/1 307/17/1 201/20/1
f 292/77/5 212/49/5 294/79/5 202/78/5
f 202/28/3 207/27/3 209/26/3 298/25/3
f 208/37/3 201/36/3 307/35/3 210/30/3
f 253/37/2 246/36/2 303/35/2 255/30/2
f 291/80/5 268/37/5 246/82/5 293/81/5
f 223/37/5 201/82/5 295/81/5 222/80/5
f 187/50/3 176/53/3 90/87/3 91/88/3
f 180/41/4 185/38/4 112/31/4 113/32/4
f 247/28/2 252/27/2 254/26/2 311/25/2
f 260/77/5 257/49/5 296/79/5 247/78/5
f 146/50/2 147/53/2 144/87/2 192/88/2
f 181/81/1 157/89/1 158/90/1 194/91/1
f 177/81/4 116/89/4 115/90/4 190/91/4
f 97/50/3 98/53/3 95/87/3 198/88/3
f 184/41/1 197/38/1 161/31/1 160/32/1
f 200/50/2 136/53/2 140/87/2 141/88/2
f 188/77/5 187/50/5 91/88/5 88/64/5
f 185/20/5 188/17/5 111/22/5 112/43/5
f 142/77/5 146/50/5 192/88/5 189/64/5
f 158/92/5 156/93/5 193/85/5 194/60/5
f 299/68/1 292/67/1 268/66/1 304/69/1
f 204/23/2 203/22/2 206/21/2 205/24/2
f 115/92/5 117/93/5 189/85/5 190/60/5
f 92/77/5 97/50/5 198/88/5 193/64/5
f 176/94/10 84/78/10 89/65/10 90/95/10
f 84/29/10 180/41/10 113/32/10 114/21/10
f 249/23/3 248/22/3 251/21/3 250/24/3
f 312/40/4 260/39/4 223/38/4 310/41/4
f 197/20/5 196/17/5 162/22/5 161/43/5
f 196/77/5 200/50/5 141/88/5 138/64/5
f 147/94/10 143/78/10 174/65/10 144/95/10
f 155/96/10 157/89/10 181/81/10 94/80/10
f 297/74/2 204/73/2 205/24/2 294/75/2
f 118/96/10 116/89/10 177/81/10 174/80/10
f 95/95/10 98/94/10 93/78/10 94/65/10
f 203/75/2 306/24/2 295/29/2 206/76/2
f 84/78/2 188/77/2 88/64/2 89/65/2
f 188/17/1 84/29/1 114/21/1 111/22/1
f 248/75/3 302/24/3 293/29/3 251/76/3
f 132/29/10 184/41/10 160/32/10 159/21/10
f 140/95/10 136/94/10 132/78/10 139/65/10
f 309/74/3 249/73/3 250/24/3 296/75/3
f 143/78/3 142/77/3 189/64/3 174/65/3
f 155/96/4 94/80/4 193/85/4 156/93/4
f 118/96/1 174/80/1 189/85/1 117/93/1
f 94/65/2 93/78/2 92/77/2 193/64/2
f 162/22/4 196/17/4 132/29/4 159/21/4
f 132/78/3 196/77/3 138/64/3 139/65/3
f 217/65/5 212/78/5 292/94/5 218/95/5
f 240/32/5 294/41/5 212/29/5 241/21/5
f 291/65/5 267/78/5 270/94/5 268/95/5
f 275/96/5 222/80/5 295/81/5 277/89/5
f 245/96/5 291/80/5 293/81/5 243/89/5
f 223/95/5 222/65/5 221/78/5 225/94/5
f 280/32/5 296/41/5 257/29/5 279/21/5
f 264/95/5 263/65/5 257/78/5 260/94/5
f 218/87/3 292/53/3 299/50/3 219/88/3
f 239/31/4 297/38/4 294/41/4 240/32/4
f 268/87/2 270/53/2 269/50/2 304/88/2
f 295/81/1 306/91/1 278/90/1 277/89/1
f 293/81/4 302/91/4 242/90/4 243/89/4
f 223/87/3 225/53/3 224/50/3 310/88/3
f 281/31/1 309/38/1 296/41/1 280/32/1
f 264/87/2 260/53/2 312/50/2 265/88/2
f 614/97/11 594/77/11 598/30/11 615/35/11
f 575/35/12 574/97/12 554/77/12 558/30/12
f 334/97/13 314/77/13 318/30/13 335/35/13
f 534/97/14 514/77/14 518/30/14 535/35/14
f 91/98/3 90/83/3 87/99/3 86/100/3
f 113/101/4 112/102/4 104/95/4 106/103/4
f 146/100/2 151/98/2 150/83/2 147/99/2
f 168/101/1 170/102/1 158/95/1 157/103/1
f 374/97/15 354/77/15 358/30/15 375/35/15
f 494/97/16 474/77/16 478/30/16 495/35/16
f 727/104/6 732/105/6 686/70/6 729/106/6
f 729/107/6 686/108/6 726/109/6 722/110/6
f 216/64/2 300/77/2 212/78/2 217/65/2
f 241/21/1 212/29/1 300/17/1 238/22/1
f 695/107/4 698/108/4 732/109/4 727/110/4
f 722/104/3 726/105/3 725/70/3 724/106/3
f 693/104/4 635/105/4 698/70/4 695/106/4
f 724/107/3 725/108/3 721/109/3 715/110/3
f 414/97/17 394/77/17 398/30/17 415/35/17
f 454/97/18 434/77/18 438/30/18 455/35/18
f 88/88/5 91/98/5 86/100/5 83/111/5
f 112/112/5 111/69/5 108/94/5 104/113/5
f 105/101/4 103/102/4 115/95/4 116/103/4
f 301/64/3 266/77/3 267/78/3 291/65/3
f 102/98/3 101/83/3 98/99/3 97/100/3
f 305/85/4 222/80/4 275/96/4 276/93/4
f 702/107/7 703/108/7 635/109/7 693/110/7
f 718/106/8 715/104/8 721/105/8 720/70/8
f 160/101/1 161/102/1 169/95/1 167/103/1
f 141/98/2 140/83/2 137/99/2 135/100/2
f 148/88/5 151/98/5 146/100/5 142/111/5
f 301/85/1 291/80/1 245/96/1 244/93/1
f 170/112/5 166/69/5 156/94/5 158/113/5
f 222/65/2 305/64/2 220/77/2 221/78/2
f 702/106/7 699/104/7 642/105/7 703/70/7
f 718/107/8 720/108/8 714/109/8 659/110/8
f 705/107/2 648/108/2 642/109/2 699/110/2
f 282/22/4 279/21/4 257/29/4 308/17/4
f 660/106/1 659/104/1 714/105/1 713/70/1
f 262/64/3 308/77/3 257/78/3 263/65/3
f 90/83/10 89/50/10 85/114/10 87/99/10
f 114/115/10 113/101/10 106/103/10 110/116/10
f 673/104/2 707/105/2 648/70/2 705/106/2
f 660/107/1 713/108/1 711/109/1 667/110/1
f 614/1/5 615/117/5 625/118/5 626/119/5
f 574/1/5 575/117/5 585/118/5 586/119/5
f 103/112/5 107/69/5 117/94/5 115/113/5
f 99/88/5 102/98/5 97/100/5 92/111/5
f 673/110/9 668/107/9 655/108/9 707/109/9
f 667/104/9 711/105/9 655/70/9 668/106/9
f 150/83/10 149/50/10 143/114/10 147/99/10
f 164/115/10 168/101/10 157/103/10 155/116/10
f 161/112/5 162/69/5 165/94/5 169/113/5
f 138/88/5 141/98/5 135/100/5 131/111/5
f 334/1/5 335/117/5 345/118/5 346/119/5
f 534/1/5 535/117/5 545/118/5 546/119/5
f 89/50/2 88/120/2 83/121/2 85/114/2
f 111/69/1 114/115/1 110/116/1 108/94/1
f 109/115/10 105/101/10 116/103/10 118/116/10
f 101/83/10 100/50/10 93/114/10 98/99/10
f 374/1/5 375/117/5 385/118/5 386/119/5
f 494/1/5 495/117/5 505/118/5 506/119/5
f 614/2/15 596/122/15 620/123/15 594/124/15
f 558/124/16 582/123/16 584/122/16 575/2/16
f 622/37/10 598/28/10 594/125/10 620/126/10
f 159/115/10 160/101/10 167/103/10 163/116/10
f 582/37/10 558/28/10 554/125/10 580/126/10
f 598/124/14 622/123/14 624/122/14 615/2/14
f 140/83/10 139/50/10 133/114/10 137/99/10
f 556/122/13 580/123/13 554/124/13 574/2/13
f 149/50/3 148/120/3 142/121/3 143/114/3
f 166/69/4 164/115/4 155/116/4 156/94/4
f 414/1/5 415/117/5 425/118/5 426/119/5
f 454/1/5 455/117/5 465/118/5 466/119/5
f 334/2/17 316/122/17 340/123/17 314/124/17
f 518/124/18 542/123/18 544/122/18 535/2/18
f 318/28/10 314/125/10 340/126/10 342/37/10
f 518/28/10 514/125/10 540/126/10 542/37/10
f 318/124/12 342/123/12 344/122/12 335/2/12
f 516/122/11 540/123/11 514/124/11 534/2/11
f 107/69/1 109/115/1 118/116/1 117/94/1
f 100/50/2 99/120/2 92/121/2 93/114/2
f 374/2/18 356/122/18 380/123/18 354/124/18
f 478/124/17 502/123/17 504/122/17 495/2/17
f 358/28/10 354/125/10 380/126/10 382/37/10
f 502/37/10 478/28/10 474/125/10 500/126/10
f 358/124/11 382/123/11 384/122/11 375/2/11
f 162/69/4 159/115/4 163/116/4 165/94/4
f 139/50/3 138/120/3 131/121/3 133/114/3
f 494/2/12 476/122/12 500/123/12 474/124/12
f 596/57/5 614/1/5 626/119/5 628/54/5
f 585/118/5 575/117/5 584/84/5 587/127/5
f 625/118/5 615/117/5 624/84/5 627/127/5
f 556/57/5 574/1/5 586/119/5 588/54/5
f 414/2/16 396/122/16 420/123/16 394/124/16
f 438/124/15 462/123/15 464/122/15 455/2/15
f 422/37/10 398/28/10 394/125/10 420/126/10
f 462/37/10 438/28/10 434/125/10 460/126/10
f 415/2/13 398/124/13 422/123/13 424/122/13
f 454/2/14 436/122/14 460/123/14 434/124/14
f 316/57/5 334/1/5 346/119/5 348/54/5
f 545/118/5 535/117/5 544/84/5 547/127/5
f 345/118/5 335/117/5 344/84/5 347/127/5
f 516/57/5 534/1/5 546/119/5 548/54/5
f 356/57/5 374/1/5 386/119/5 388/54/5
f 505/118/5 495/117/5 504/84/5 507/127/5
f 385/118/5 375/117/5 384/84/5 387/127/5
f 476/57/5 494/1/5 506/119/5 508/54/5
f 396/57/5 414/1/5 426/119/5 428/54/5
f 465/118/5 455/117/5 464/84/5 467/127/5
f 425/118/5 415/117/5 424/84/5 427/127/5
f 436/57/5 454/1/5 466/119/5 468/54/5
f 213/114/5 217/50/5 218/83/5 215/99/5
f 233/103/5 240/101/5 241/115/5 237/116/5
f 267/114/5 272/50/5 273/83/5 270/99/5
f 277/103/5 288/101/5 284/115/5 275/116/5
f 243/103/5 232/101/5 236/115/5 245/116/5
f 221/114/5 227/50/5 228/83/5 225/99/5
f 287/103/5 280/101/5 279/115/5 283/116/5
f 258/114/5 263/50/5 264/83/5 261/99/5
f 215/99/3 218/83/3 219/98/3 214/100/3
f 231/95/4 239/102/4 240/101/4 233/103/4
f 270/99/2 273/83/2 274/98/2 269/100/2
f 278/95/1 290/102/1 288/101/1 277/103/1
f 596/122/15 618/94/15 619/128/15 620/123/15
f 582/123/16 581/128/16 583/94/16 584/122/16
f 622/37/10 620/126/10 619/66/10 621/77/10
f 628/129/5 627/130/5 629/98/5 630/131/5
f 588/129/5 587/130/5 589/98/5 590/131/5
f 582/37/10 580/126/10 579/66/10 581/77/10
f 622/123/14 621/128/14 623/94/14 624/122/14
f 556/122/13 578/94/13 579/128/13 580/123/13
f 618/53/5 596/57/5 628/54/5 630/132/5
f 583/114/5 589/133/5 587/127/5 584/84/5
f 629/133/5 627/127/5 624/84/5 623/114/5
f 578/53/5 556/57/5 588/54/5 590/132/5
f 242/95/4 230/102/4 232/101/4 243/103/4
f 225/99/3 228/83/3 229/98/3 224/100/3
f 289/95/1 281/102/1 280/101/1 287/103/1
f 261/99/2 264/83/2 265/98/2 259/100/2
f 316/122/17 338/94/17 339/128/17 340/123/17
f 544/122/18 542/123/18 541/128/18 543/94/18
f 342/37/10 340/126/10 339/66/10 341/77/10
f 348/129/5 347/130/5 349/98/5 350/131/5
f 316/57/5 348/54/5 350/132/5 338/53/5
f 542/37/10 540/126/10 539/66/10 541/77/10
f 548/129/5 547/130/5 549/98/5 550/131/5
f 342/123/12 341/128/12 343/94/12 344/122/12
f 543/114/5 549/133/5 547/127/5 544/84/5
f 516/122/11 538/94/11 539/128/11 540/123/11
f 349/133/5 347/127/5 344/84/5 343/114/5
f 516/57/5 548/54/5 550/132/5 538/53/5
f 356/122/18 378/94/18 379/128/18 380/123/18
f 502/123/17 501/128/17 503/94/17 504/122/17
f 382/37/10 380/126/10 379/66/10 381/77/10
f 388/129/5 387/130/5 389/98/5 390/131/5
f 356/57/5 388/54/5 390/132/5 378/53/5
f 502/37/10 500/126/10 499/66/10 501/77/10
f 508/129/5 507/130/5 509/98/5 510/131/5
f 382/123/11 381/128/11 383/94/11 384/122/11
f 503/114/5 509/133/5 507/127/5 504/84/5
f 476/122/12 498/94/12 499/128/12 500/123/12
f 383/114/5 389/133/5 387/127/5 384/84/5
f 498/53/5 476/57/5 508/54/5 510/132/5
f 396/122/16 418/94/16 419/128/16 420/123/16
f 464/122/15 462/123/15 461/128/15 463/94/15
f 422/37/10 420/126/10 419/66/10 421/77/10
f 428/129/5 427/130/5 429/98/5 430/131/5
f 462/37/10 460/126/10 459/66/10 461/77/10
f 468/129/5 467/130/5 469/98/5 470/131/5
f 424/122/13 422/123/13 421/128/13 423/94/13
f 436/122/14 458/94/14 459/128/14 460/123/14
f 396/57/5 428/54/5 430/132/5 418/53/5
f 463/114/5 469/133/5 467/127/5 464/84/5
f 429/133/5 427/127/5 424/84/5 423/114/5
f 436/57/5 468/54/5 470/132/5 458/53/5
f 211/121/2 216/120/2 217/50/2 213/114/2
f 237/116/1 241/115/1 238/69/1 235/94/1
f 266/121/3 271/120/3 272/50/3 267/114/3
f 275/116/4 284/115/4 286/69/4 276/94/4
f 245/116/1 236/115/1 234/69/1 244/94/1
f 220/121/2 226/120/2 227/50/2 221/114/2
f 283/116/4 279/115/4 282/69/4 285/94/4
f 256/121/3 262/120/3 263/50/3 258/114/3
f 727/105/10 729/70/10 649/134/10 728/135/10
f 730/134/5 686/70/5 732/105/5 731/135/5
f 649/136/10 729/108/10 722/109/10 652/87/10
f 730/136/5 680/87/5 726/109/5 686/108/5
f 694/136/10 695/108/10 727/109/10 728/87/10
f 696/136/5 731/87/5 732/109/5 698/108/5
f 722/105/10 724/70/10 723/134/10 652/135/10
f 679/134/5 725/70/5 726/105/5 680/135/5
f 693/105/10 695/70/10 694/134/10 684/135/10
f 696/134/5 698/70/5 635/105/5 697/135/5
f 723/136/10 724/108/10 715/109/10 717/87/10
f 679/136/5 719/87/5 721/109/5 725/108/5
f 700/136/10 702/108/10 693/109/10 684/87/10
f 640/136/5 697/87/5 635/109/5 703/108/5
f 672/134/5 720/70/5 721/105/5 719/135/5
f 715/105/10 718/70/10 716/134/10 717/135/10
f 699/105/10 702/70/10 700/134/10 701/135/10
f 640/134/5 703/70/5 642/105/5 641/135/5
f 672/136/5 663/87/5 714/109/5 720/108/5
f 716/136/10 718/108/10 659/109/10 712/87/10
f 675/136/10 705/108/10 699/109/10 701/87/10
f 706/136/5 641/87/5 642/109/5 648/108/5
f 659/105/10 660/70/10 664/134/10 712/135/10
f 662/134/5 713/70/5 714/105/5 663/135/5
f 673/105/10 705/70/10 675/134/10 704/135/10
f 706/134/5 648/70/5 707/105/5 647/135/5
f 664/136/10 660/108/10 667/109/10 708/87/10
f 662/136/5 710/87/5 711/109/5 713/108/5
f 670/136/10 668/108/10 673/109/10 704/87/10
f 709/136/5 647/87/5 707/109/5 655/108/5
f 667/105/10 668/70/10 670/134/10 708/135/10
f 709/134/5 655/70/5 711/105/5 710/135/5
f 632/137/5 616/135/5 618/53/5 630/132/5
f 583/114/5 577/121/5 591/138/5 589/133/5
f 623/114/5 617/121/5 631/138/5 629/133/5
f 592/137/5 576/135/5 578/53/5 590/132/5
f 352/137/5 336/135/5 338/53/5 350/132/5
f 543/114/5 537/121/5 551/138/5 549/133/5
f 343/114/5 337/121/5 351/138/5 349/133/5
f 552/137/5 536/135/5 538/53/5 550/132/5
f 392/137/5 376/135/5 378/53/5 390/132/5
f 503/114/5 497/121/5 511/138/5 509/133/5
f 383/114/5 377/121/5 391/138/5 389/133/5
f 512/137/5 496/135/5 498/53/5 510/132/5
f 432/137/5 416/135/5 418/53/5 430/132/5
f 463/114/5 457/121/5 471/138/5 469/133/5
f 423/114/5 417/121/5 431/138/5 429/133/5
f 472/137/5 456/135/5 458/53/5 470/132/5
f 619/128/15 618/94/15 616/139/15 610/140/15
f 577/139/16 583/94/16 581/128/16 572/140/16
f 619/66/10 610/141/10 612/142/10 621/77/10
f 570/141/10 572/142/10 581/77/10 579/66/10
f 623/94/14 621/128/14 612/140/14 617/139/14
f 570/140/13 579/128/13 578/94/13 576/139/13
f 330/140/17 339/128/17 338/94/17 336/139/17
f 537/139/18 543/94/18 541/128/18 532/140/18
f 330/141/10 332/142/10 341/77/10 339/66/10
f 539/66/10 530/141/10 532/142/10 541/77/10
f 343/94/12 341/128/12 332/140/12 337/139/12
f 539/128/11 538/94/11 536/139/11 530/140/11
f 370/140/18 379/128/18 378/94/18 376/139/18
f 503/94/17 501/128/17 492/140/17 497/139/17
f 379/66/10 370/141/10 372/142/10 381/77/10
f 490/141/10 492/142/10 501/77/10 499/66/10
f 377/139/11 383/94/11 381/128/11 372/140/11
f 490/140/12 499/128/12 498/94/12 496/139/12
f 617/121/5 616/135/5 632/137/5 631/138/5
f 591/138/5 577/121/5 576/135/5 592/137/5
f 410/140/16 419/128/16 418/94/16 416/139/16
f 457/139/15 463/94/15 461/128/15 452/140/15
f 410/141/10 412/142/10 421/77/10 419/66/10
f 450/141/10 452/142/10 461/77/10 459/66/10
f 423/94/13 421/128/13 412/140/13 417/139/13
f 450/140/14 459/128/14 458/94/14 456/139/14
f 337/121/5 336/135/5 352/137/5 351/138/5
f 537/121/5 536/135/5 552/137/5 551/138/5
f 377/121/5 376/135/5 392/137/5 391/138/5
f 511/138/5 497/121/5 496/135/5 512/137/5
f 417/121/5 416/135/5 432/137/5 431/138/5
f 457/121/5 456/135/5 472/137/5 471/138/5
f 745/143/5 746/141/5 742/144/5 741/145/5
f 753/143/5 754/141/5 750/144/5 749/145/5
f 737/143/5 738/141/5 734/144/5 733/145/5
f 761/143/5 762/141/5 758/144/5 757/145/5
f 69/143/5 70/141/5 66/144/5 65/145/5
f 769/143/5 770/141/5 766/144/5 765/145/5
f 849/143/5 850/141/5 846/144/5 845/145/5
f 777/143/5 778/141/5 774/144/5 773/145/5
f 841/143/5 842/141/5 838/144/5 837/145/5
f 785/143/5 786/141/5 782/144/5 781/145/5
f 833/143/5 834/141/5 830/144/5 829/145/5
f 793/143/5 794/141/5 790/144/5 789/145/5
f 825/143/5 826/141/5 822/144/5 821/145/5
f 801/143/5 802/141/5 798/144/5 797/145/5
f 817/143/5 818/141/5 814/144/5 813/145/5
f 809/143/5 810/141/5 806/144/5 805/145/5
f 743/146/8 741/10/8 742/112/8 744/135/8
f 746/112/7 745/10/7 747/146/7 748/135/7
f 754/112/15 753/10/15 755/146/15 756/135/15
f 735/146/16 733/10/16 734/112/16 736/135/16
f 751/146/14 749/10/14 750/112/14 752/135/14
f 609/147/15 610/148/15 616/143/15 608/62/15
f 573/149/16 577/150/16 572/151/16 571/33/16
f 738/112/13 737/10/13 739/146/13 740/135/13
f 616/152/5 617/153/5 613/154/5 608/18/5
f 610/148/10 609/147/10 611/33/10 612/151/10
f 576/152/5 577/153/5 573/154/5 568/18/5
f 570/148/10 569/147/10 571/33/10 572/151/10
f 617/150/14 612/151/14 611/33/14 613/149/14
f 570/148/13 576/143/13 568/62/13 569/147/13
f 762/112/2 761/10/2 763/146/2 764/135/2
f 67/146/1 65/10/1 66/112/1 68/135/1
f 759/146/3 757/10/3 758/112/3 760/135/3
f 70/112/4 69/10/4 71/146/4 72/135/4
f 770/112/17 769/10/17 771/146/17 772/135/17
f 329/147/17 330/148/17 336/143/17 328/62/17
f 847/146/18 845/10/18 846/112/18 848/135/18
f 767/146/12 765/10/12 766/112/12 768/135/12
f 533/149/18 537/150/18 532/151/18 531/33/18
f 330/148/10 329/147/10 331/33/10 332/151/10
f 336/152/5 337/153/5 333/154/5 328/18/5
f 850/112/11 849/10/11 851/146/11 852/135/11
f 530/148/10 529/147/10 531/33/10 532/151/10
f 536/152/5 537/153/5 533/154/5 528/18/5
f 337/150/12 332/151/12 331/33/12 333/149/12
f 529/147/11 530/148/11 536/143/11 528/62/11
f 778/112/9 777/10/9 779/146/9 780/135/9
f 839/146/9 837/10/9 838/112/9 840/135/9
f 775/146/6 773/10/6 774/112/6 776/135/6
f 842/112/6 841/10/6 843/146/6 844/135/6
f 786/112/18 785/10/18 787/146/18 788/135/18
f 831/146/17 829/10/17 830/112/17 832/135/17
f 369/147/18 370/148/18 376/143/18 368/62/18
f 783/146/11 781/10/11 782/112/11 784/135/11
f 834/112/12 833/10/12 835/146/12 836/135/12
f 497/150/17 492/151/17 491/33/17 493/149/17
f 372/151/10 370/148/10 369/147/10 371/33/10
f 376/152/5 377/153/5 373/154/5 368/18/5
f 490/148/10 489/147/10 491/33/10 492/151/10
f 496/152/5 497/153/5 493/154/5 488/18/5
f 377/150/11 372/151/11 371/33/11 373/149/11
f 489/147/12 490/148/12 496/143/12 488/62/12
f 794/112/1 793/10/1 795/146/1 796/135/1
f 823/146/2 821/10/2 822/112/2 824/135/2
f 791/146/4 789/10/4 790/112/4 792/135/4
f 826/112/3 825/10/3 827/146/3 828/135/3
f 802/112/16 801/10/16 803/146/16 804/135/16
f 815/146/15 813/10/15 814/112/15 816/135/15
f 799/146/13 797/10/13 798/112/13 800/135/13
f 818/112/14 817/10/14 819/146/14 820/135/14
f 409/147/16 410/148/16 416/143/16 408/62/16
f 810/112/8 809/10/8 811/146/8 812/135/8
f 807/146/7 805/10/7 806/112/7 808/135/7
f 457/150/15 452/151/15 451/33/15 453/149/15
f 410/148/10 409/147/10 411/33/10 412/151/10
f 416/152/5 417/153/5 413/154/5 408/18/5
f 452/151/10 450/148/10 449/147/10 451/33/10
f 456/152/5 457/153/5 453/154/5 448/18/5
f 417/150/13 412/151/13 411/33/13 413/149/13
f 449/147/14 450/148/14 456/143/14 448/62/14
f 649/134/9 730/155/9 731/156/9 728/135/9
f 652/87/9 680/157/9 730/158/9 649/136/9
f 728/87/1 731/157/1 696/158/1 694/136/1
f 723/134/2 679/155/2 680/156/2 652/135/2
f 694/134/1 696/155/1 697/156/1 684/135/1
f 717/87/2 719/157/2 679/158/2 723/136/2
f 700/136/8 684/87/8 697/157/8 640/158/8
f 716/134/7 672/155/7 719/156/7 717/135/7
f 701/135/8 700/134/8 640/155/8 641/156/8
f 712/87/7 663/157/7 672/158/7 716/136/7
f 748/159/10 747/160/10 743/161/10 744/120/10
f 756/159/10 755/160/10 751/161/10 752/120/10
f 740/159/10 739/160/10 735/161/10 736/120/10
f 764/159/10 763/160/10 759/161/10 760/120/10
f 701/87/3 641/157/3 706/158/3 675/136/3
f 72/159/10 71/160/10 67/161/10 68/120/10
f 712/135/4 664/134/4 662/155/4 663/156/4
f 772/159/10 771/160/10 767/161/10 768/120/10
f 704/135/3 675/134/3 706/155/3 647/156/3
f 664/136/4 708/87/4 710/157/4 662/158/4
f 852/159/10 851/160/10 847/161/10 848/120/10
f 670/136/6 704/87/6 647/157/6 709/158/6
f 708/135/6 670/134/6 709/155/6 710/156/6
f 780/159/10 779/160/10 775/161/10 776/120/10
f 844/159/10 843/160/10 839/161/10 840/120/10
f 788/159/10 787/160/10 783/161/10 784/120/10
f 836/159/10 835/160/10 831/161/10 832/120/10
f 796/159/10 795/160/10 791/161/10 792/120/10
f 828/159/10 827/160/10 823/161/10 824/120/10
f 804/159/10 803/160/10 799/161/10 800/120/10
f 820/159/10 819/160/10 815/161/10 816/120/10
f 812/159/10 811/160/10 807/161/10 808/120/10
f 745/68/9 741/102/9 743/87/9 747/134/9
f 753/68/18 749/102/18 751/87/18 755/134/18
f 737/68/17 733/102/17 735/87/17 739/134/17
f 761/68/1 757/102/1 759/87/1 763/134/1
f 69/68/2 65/102/2 67/87/2 71/134/2
f 769/68/16 765/102/16 767/87/16 771/134/16
f 849/68/15 845/102/15 847/87/15 851/134/15
f 777/68/8 773/102/8 775/87/8 779/134/8
f 841/68/7 837/102/7 839/87/7 843/134/7
f 785/68/14 781/102/14 783/87/14 787/134/14
f 833/68/13 829/102/13 831/87/13 835/134/13
f 793/68/3 789/102/3 791/87/3 795/134/3
f 825/68/4 821/102/4 823/87/4 827/134/4
f 801/68/12 797/102/12 799/87/12 803/134/12
f 817/68/11 813/102/11 815/87/11 819/134/11
f 809/68/6 805/102/6 807/87/6 811/134/6
usemtl waterwheel_metal
f 173/155/5 172/134/5 171/87/5 179/157/5
f 178/134/5 145/87/5 119/157/5 175/155/5
f 182/157/5 96/155/5 153/134/5 152/87/5
f 120/87/5 134/157/5 154/155/5 183/134/5
f 627/162/5 628/163/5 626/164/5 625/63/5
f 587/162/5 588/163/5 586/164/5 585/63/5
f 347/162/5 348/163/5 346/164/5 345/63/5
f 547/162/5 548/163/5 546/164/5 545/63/5
f 388/163/5 386/164/5 385/63/5 387/162/5
f 507/162/5 508/163/5 506/164/5 505/63/5
f 427/162/5 428/163/5 426/164/5 425/63/5
f 468/163/5 466/164/5 465/63/5 467/162/5
f 631/165/5 632/166/5 630/167/5 629/168/5
f 592/166/5 590/167/5 589/168/5 591/165/5
f 351/165/5 352/166/5 350/167/5 349/168/5
f 551/165/5 552/166/5 550/167/5 549/168/5
f 391/165/5 392/166/5 390/167/5 389/168/5
f 511/165/5 512/166/5 510/167/5 509/168/5
f 431/165/5 432/166/5 430/167/5 429/168/5
f 471/165/5 472/166/5 470/167/5 469/168/5
f 566/169/6 567/65/6 564/41/6 565/170/6
f 606/169/4 607/65/4 604/41/4 605/170/4
f 526/169/3 527/65/3 524/41/3 525/170/3
f 326/169/7 327/65/7 324/41/7 325/170/7
f 485/170/8 486/169/8 487/65/8 484/41/8
f 366/169/2 367/65/2 364/41/2 365/170/2
f 446/169/1 447/65/1 444/41/1 445/170/1
f 406/169/9 407/65/9 404/41/9 405/170/9
f 562/171/8 567/169/8 566/170/8 563/166/8
f 566/169/10 565/170/10 561/166/10 563/171/10
f 560/171/5 564/169/5 567/170/5 562/166/5
f 565/169/7 564/170/7 560/166/7 561/171/7
f 605/169/2 604/170/2 600/166/2 601/171/2
f 522/171/1 527/169/1 526/170/1 523/166/1
f 600/171/5 604/169/5 607/170/5 602/166/5
f 606/169/10 605/170/10 601/166/10 603/171/10
f 520/171/5 524/169/5 527/170/5 522/166/5
f 526/169/10 525/170/10 521/166/10 523/171/10
f 602/171/3 607/169/3 606/170/3 603/166/3
f 521/171/4 525/169/4 524/170/4 520/166/4
f 325/169/9 324/170/9 320/166/9 321/171/9
f 487/169/9 486/170/9 483/166/9 482/171/9
f 326/169/10 325/170/10 321/166/10 323/171/10
f 320/171/5 324/169/5 327/170/5 322/166/5
f 486/169/10 485/170/10 481/166/10 483/171/10
f 480/171/5 484/169/5 487/170/5 482/166/5
f 327/169/6 326/170/6 323/166/6 322/171/6
f 485/169/6 484/170/6 480/166/6 481/171/6
f 365/169/1 364/170/1 360/166/1 361/171/1
f 447/169/2 446/170/2 443/166/2 442/171/2
f 360/171/5 364/169/5 367/170/5 362/166/5
f 366/169/10 365/170/10 361/166/10 363/171/10
f 446/169/10 445/170/10 441/166/10 443/171/10
f 440/171/5 444/169/5 447/170/5 442/166/5
f 362/171/4 367/169/4 366/170/4 363/166/4
f 441/171/3 445/169/3 444/170/3 440/166/3
f 405/169/8 404/170/8 400/166/8 401/171/8
f 406/169/10 405/170/10 401/166/10 403/171/10
f 400/171/5 404/169/5 407/170/5 402/166/5
f 407/169/7 406/170/7 403/166/7 402/171/7
f 609/169/15 608/170/15 593/166/15 595/171/15
f 573/169/16 571/170/16 559/166/16 557/171/16
f 608/169/5 613/170/5 597/166/5 593/171/5
f 611/169/10 609/170/10 595/166/10 599/171/10
f 573/170/5 557/166/5 553/171/5 568/169/5
f 569/170/10 555/166/10 559/171/10 571/169/10
f 597/171/14 613/169/14 611/170/14 599/166/14
f 555/171/13 569/169/13 568/170/13 553/166/13
f 329/169/17 328/170/17 313/166/17 315/171/17
f 517/171/18 533/169/18 531/170/18 519/166/18
f 331/169/10 329/170/10 315/166/10 319/171/10
f 333/170/5 317/166/5 313/171/5 328/169/5
f 528/169/5 533/170/5 517/166/5 513/171/5
f 531/169/10 529/170/10 515/166/10 519/171/10
f 317/171/12 333/169/12 331/170/12 319/166/12
f 515/171/11 529/169/11 528/170/11 513/166/11
f 355/171/18 369/169/18 368/170/18 353/166/18
f 493/169/17 491/170/17 479/166/17 477/171/17
f 371/169/10 369/170/10 355/166/10 359/171/10
f 368/169/5 373/170/5 357/166/5 353/171/5
f 491/169/10 489/170/10 475/166/10 479/171/10
f 488/169/5 493/170/5 477/166/5 473/171/5
f 357/171/11 373/169/11 371/170/11 359/166/11
f 475/171/12 489/169/12 488/170/12 473/166/12
f 395/171/16 409/169/16 408/170/16 393/166/16
f 453/169/15 451/170/15 439/166/15 437/171/15
f 411/169/10 409/170/10 395/166/10 399/171/10
f 408/169/5 413/170/5 397/166/5 393/171/5
f 449/170/10 435/166/10 439/171/10 451/169/10
f 448/169/5 453/170/5 437/166/5 433/171/5
f 413/169/13 411/170/13 399/166/13 397/171/13
f 435/171/14 449/169/14 448/170/14 433/166/14
f 560/171/9 562/166/9 563/172/9 561/157/9
f 602/166/1 603/172/1 601/157/1 600/171/1
f 522/166/2 523/172/2 521/157/2 520/171/2
f 320/171/8 322/166/8 323/172/8 321/157/8
f 482/166/7 483/172/7 481/157/7 480/171/7
f 360/171/3 362/166/3 363/172/3 361/157/3
f 440/171/4 442/166/4 443/172/4 441/157/4
f 402/166/6 403/172/6 401/157/6 400/171/6
f 597/166/18 599/172/18 595/157/18 593/171/18
f 557/166/17 559/172/17 555/157/17 553/171/17
f 317/166/16 319/172/16 315/157/16 313/171/16
f 513/171/15 517/166/15 519/172/15 515/157/15
f 357/166/14 359/172/14 355/157/14 353/171/14
f 477/166/13 479/172/13 475/157/13 473/171/13
f 397/166/12 399/172/12 395/157/12 393/171/12
f 437/166/11 439/172/11 435/157/11 433/171/11
